<svg id="Group_2808" data-name="Group 2808" xmlns="http://www.w3.org/2000/svg" width="76.586" height="83.183" viewBox="0 0 76.586 83.183">
  <g id="Group_160" data-name="Group 160">
    <path id="Path_60" data-name="Path 60" d="M93.048,79.062a23.023,23.023,0,0,1,7.4,1.374,42.4,42.4,0,0,1,6.859,3.1,58.752,58.752,0,0,1,6.276,4.05c1,.74,1.978,1.5,2.936,2.3.481.4.951.8,1.424,1.217.235.207.472.415.706.631l.352.326.376.358-6.961.016.622-.729.581-.647c.387-.422.771-.836,1.165-1.239.788-.8,1.588-1.579,2.411-2.33s1.663-1.473,2.514-2.182c.429-.35.86-.7,1.3-1.036l.653-.512.666-.494c1.77-1.324,3.614-2.542,5.5-3.686a65.8,65.8,0,0,1,5.837-3.11,59.813,59.813,0,0,1,12.466-4.282,50.787,50.787,0,0,1,6.514-.989,37.612,37.612,0,0,1,6.6-.015c-.925.634-1.86,1.177-2.778,1.747-.458.288-.916.565-1.374.834q-.344.2-.681.417l-.678.416c-1.812,1.08-3.579,2.19-5.335,3.261-3.5,2.181-6.893,4.366-10.213,6.622s-6.564,4.564-9.734,6.96c-.789.6-1.585,1.2-2.359,1.816-.789.6-1.551,1.23-2.327,1.842s-1.528,1.245-2.272,1.877c-.37.316-.745.627-1.1.943l-1,.875-4.216,3.7-2.744-3.687c-.054-.073-.152-.191-.233-.29l-.263-.316-.537-.643-1.1-1.291q-1.11-1.293-2.249-2.579c-1.516-1.71-3.053-3.416-4.63-5.089s-3.19-3.325-4.885-4.923A55.929,55.929,0,0,0,93.048,79.062Z" transform="translate(-82.657 -71.044)" fill="#333e46"/>
    <g id="Group_159" data-name="Group 159" transform="translate(0 22.02)">
      <path id="Path_61" data-name="Path 61" d="M113.9,159.846A20.386,20.386,0,0,1,95.648,148.5l-12.132,5.218A33.551,33.551,0,0,0,125.963,170.8l-5.219-12.136A20.27,20.27,0,0,1,113.9,159.846Z" transform="translate(-80.342 -111.878)" fill="#61b22f"/>
      <path id="Path_62" data-name="Path 62" d="M92.517,127.73a20.374,20.374,0,0,1,9.827-17.421l-8.527-10.181a33.543,33.543,0,0,0-12.447,39.146l12.155-5.228A20.272,20.272,0,0,1,92.517,127.73Z" transform="translate(-79.323 -100.128)" fill="#f8d813"/>
      <path id="Path_63" data-name="Path 63" d="M146.738,101.257l-11.393,8.407a20.51,20.51,0,0,1,9.047,8.632l12.148-5.225A33.787,33.787,0,0,0,146.738,101.257Z" transform="translate(-92.931 -100.402)" fill="#e6e6e6"/>
      <path id="Path_64" data-name="Path 64" d="M160.264,132.651a33.372,33.372,0,0,0-2.324-12.265L145.811,125.6a20.355,20.355,0,0,1-9.6,25.05l5.224,12.146A33.6,33.6,0,0,0,160.264,132.651Z" transform="translate(-93.143 -105.049)" fill="#999fa4"/>
    </g>
  </g>
</svg>