<svg xmlns="http://www.w3.org/2000/svg" width="159.896" height="43.47" viewBox="0 0 159.896 43.47"><g transform="translate(-21.637 -10.069)"><g transform="translate(21.637 10.07)"><path d="M1.33-13.3H5.092V-2.983h6.346V0H1.33Zm11.419,3h3.61V0h-3.61Zm1.8-1.14a2.285,2.285,0,0,1-1.6-.551,1.771,1.771,0,0,1-.608-1.368,1.771,1.771,0,0,1,.608-1.368,2.285,2.285,0,0,1,1.6-.551,2.363,2.363,0,0,1,1.6.522,1.686,1.686,0,0,1,.608,1.34A1.843,1.843,0,0,1,16.15-12,2.262,2.262,0,0,1,14.554-11.438Zm17.556.969a4.076,4.076,0,0,1,3.03,1.14A4.7,4.7,0,0,1,36.271-5.89V0h-3.61V-5.3a2.549,2.549,0,0,0-.409-1.6A1.386,1.386,0,0,0,31.1-7.41a1.649,1.649,0,0,0-1.311.57A2.584,2.584,0,0,0,29.3-5.111V0h-3.61V-5.3q0-2.109-1.558-2.109a1.67,1.67,0,0,0-1.33.57,2.584,2.584,0,0,0-.494,1.729V0H18.7V-10.3h3.439v1.083a3.62,3.62,0,0,1,1.359-.941,4.613,4.613,0,0,1,1.719-.313,4.531,4.531,0,0,1,1.938.4,3.292,3.292,0,0,1,1.387,1.216,3.993,3.993,0,0,1,1.539-1.2A4.906,4.906,0,0,1,32.11-10.469ZM49.229-5.13q0,.038-.057.893H41.686a2.1,2.1,0,0,0,.884,1.225,2.95,2.95,0,0,0,1.643.428A3.558,3.558,0,0,0,45.5-2.793a3.784,3.784,0,0,0,1.092-.684l1.9,1.976A5.594,5.594,0,0,1,44.1.171a7.007,7.007,0,0,1-3.173-.684,5.108,5.108,0,0,1-2.118-1.9,5.138,5.138,0,0,1-.75-2.755,5.155,5.155,0,0,1,.731-2.727,5.111,5.111,0,0,1,2.024-1.891,6.116,6.116,0,0,1,2.907-.684,6.081,6.081,0,0,1,2.793.636A4.842,4.842,0,0,1,48.5-7.99,5.41,5.41,0,0,1,49.229-5.13ZM43.738-7.9a2.085,2.085,0,0,0-1.4.475,2.145,2.145,0,0,0-.713,1.292h4.218a2.145,2.145,0,0,0-.713-1.292A2.085,2.085,0,0,0,43.738-7.9ZM55.746.266a12.3,12.3,0,0,1-3.135-.4A7.711,7.711,0,0,1,50.141-1.2l1.235-2.774a7.991,7.991,0,0,0,2.071.95,7.884,7.884,0,0,0,2.318.361q2.166,0,2.166-1.083a.9.9,0,0,0-.618-.845,11.356,11.356,0,0,0-1.986-.58,18.951,18.951,0,0,1-2.508-.694,4.221,4.221,0,0,1-1.729-1.187,3.209,3.209,0,0,1-.722-2.2,3.816,3.816,0,0,1,.665-2.194A4.45,4.45,0,0,1,53.019-13a8.172,8.172,0,0,1,3.24-.57,11.427,11.427,0,0,1,2.584.295,7.913,7.913,0,0,1,2.242.864L59.926-9.614A7.743,7.743,0,0,0,56.24-10.64a3.09,3.09,0,0,0-1.634.332,1,1,0,0,0-.513.865.857.857,0,0,0,.608.8,10.993,10.993,0,0,0,1.957.551,18.333,18.333,0,0,1,2.518.694A4.347,4.347,0,0,1,60.9-6.223a3.146,3.146,0,0,1,.732,2.194,3.741,3.741,0,0,1-.665,2.166A4.533,4.533,0,0,1,58.976-.313,8.069,8.069,0,0,1,55.746.266ZM74.024-10.3V0H70.585V-1.1a3.7,3.7,0,0,1-1.368.95,4.464,4.464,0,0,1-1.691.323,4.32,4.32,0,0,1-3.182-1.178,4.776,4.776,0,0,1-1.188-3.534V-10.3h3.61V-5.13A2.652,2.652,0,0,0,67.2-3.439a1.552,1.552,0,0,0,1.273.532,1.8,1.8,0,0,0,1.4-.6,2.665,2.665,0,0,0,.541-1.834V-10.3Zm5.757,1.235a3.36,3.36,0,0,1,1.435-1.054,5.442,5.442,0,0,1,2.023-.351V-7.22a7.38,7.38,0,0,0-.817-.057,2.518,2.518,0,0,0-1.814.627,2.542,2.542,0,0,0-.656,1.919V0h-3.61V-10.3h3.439ZM95.893-10.3,91.637,0H87.913L83.676-10.3h3.705l2.47,6.289,2.6-6.289ZM107.065-5.13q0,.038-.057.893H99.522a2.1,2.1,0,0,0,.883,1.225,2.95,2.95,0,0,0,1.644.428,3.558,3.558,0,0,0,1.283-.209,3.784,3.784,0,0,0,1.092-.684l1.9,1.976A5.594,5.594,0,0,1,101.935.171a7.007,7.007,0,0,1-3.173-.684,5.109,5.109,0,0,1-2.118-1.9,5.138,5.138,0,0,1-.75-2.755,5.155,5.155,0,0,1,.731-2.727,5.111,5.111,0,0,1,2.023-1.891,6.116,6.116,0,0,1,2.907-.684,6.082,6.082,0,0,1,2.793.636,4.842,4.842,0,0,1,1.985,1.843A5.41,5.41,0,0,1,107.065-5.13ZM101.574-7.9a2.085,2.085,0,0,0-1.4.475,2.145,2.145,0,0,0-.713,1.292h4.218a2.145,2.145,0,0,0-.713-1.292A2.085,2.085,0,0,0,101.574-7.9ZM119.4-10.3,114.95.418a5.8,5.8,0,0,1-1.9,2.67,4.718,4.718,0,0,1-2.736.77,5.521,5.521,0,0,1-1.644-.257,3.96,3.96,0,0,1-1.34-.674L108.585.4a2.183,2.183,0,0,0,.731.446,2.429,2.429,0,0,0,.865.162A1.564,1.564,0,0,0,111.027.8a1.6,1.6,0,0,0,.56-.665L107.179-10.3h3.705l2.527,6.289,2.546-6.289Z" transform="translate(40.499 36.396)" fill="#fff"/><path d="M13.73,4.182A12.121,12.121,0,0,1,17.6,4.9,21.992,21.992,0,0,1,21.179,6.52a30.9,30.9,0,0,1,3.28,2.117c.522.388,1.033.783,1.535,1.2.253.206.5.419.744.637.123.107.245.218.368.328l.182.174.2.186-3.636.008.324-.38.3-.336c.2-.222.4-.435.609-.649q.617-.629,1.258-1.218c.427-.392.87-.771,1.313-1.139.225-.182.451-.364.676-.542l.34-.269.348-.257c.926-.692,1.887-1.329,2.876-1.927s2.01-1.131,3.05-1.626A31.172,31.172,0,0,1,41.466.586a26.76,26.76,0,0,1,3.4-.518A19.7,19.7,0,0,1,48.318.06c-.483.332-.973.613-1.452.914-.237.15-.479.3-.72.435-.119.071-.237.142-.356.218l-.356.218c-.946.57-1.867,1.147-2.785,1.709-1.828,1.139-3.6,2.283-5.337,3.462S33.882,9.4,32.225,10.65c-.411.316-.827.625-1.234.949s-.811.641-1.215.961-.8.653-1.187.981c-.194.166-.388.328-.578.491l-.522.459-2.2,1.935L23.85,14.5c-.028-.04-.079-.1-.123-.15l-.138-.166-.281-.336-.574-.676q-.582-.676-1.175-1.349c-.791-.894-1.594-1.784-2.421-2.658s-1.666-1.737-2.552-2.571A28.914,28.914,0,0,0,13.73,4.182Z" transform="translate(-8.298 0.012)" fill="#fff"/><g transform="translate(0 11.509)"><path d="M20.07,83.38a10.653,10.653,0,0,1-9.538-5.93L4.19,80.18A17.538,17.538,0,0,0,26.372,89.1l-2.726-6.342A10.614,10.614,0,0,1,20.07,83.38Z" transform="translate(-2.532 -58.314)" fill="#fff"/><path d="M6.9,43.5a10.65,10.65,0,0,1,5.135-9.1L7.572,29.08a17.536,17.536,0,0,0-6.5,20.457l6.353-2.73A10.618,10.618,0,0,1,6.9,43.5Z" transform="translate(0 -29.08)" fill="#fff"/><path d="M61.974,30.21l-5.954,4.4a10.741,10.741,0,0,1,4.728,4.51l6.35-2.73A17.66,17.66,0,0,0,61.974,30.21Z" transform="translate(-33.858 -29.763)" fill="#fff"/><path d="M69.459,55.749a17.422,17.422,0,0,0-1.215-6.409l-6.338,2.726A10.641,10.641,0,0,1,56.89,65.156L59.62,71.5A17.558,17.558,0,0,0,69.459,55.749Z" transform="translate(-34.384 -41.325)" fill="#fff"/></g></g></g></svg>