<?xml version="1.0" standalone="no"?>
<!DOCTYPE svg PUBLIC "-//W3C//DTD SVG 1.1//EN" "http://www.w3.org/Graphics/SVG/1.1/DTD/svg11.dtd" >
<svg xmlns="http://www.w3.org/2000/svg">
    <metadata>Generated by IcoMoon</metadata>
    <defs>
        <font id="icomoon" horiz-adv-x="1024">
            <font-face units-per-em="1024" ascent="960" descent="-64"/>
            <missing-glyph horiz-adv-x="1024"/>
            <glyph unicode="&#x20;" horiz-adv-x="512" d=""/>
            <glyph unicode="&#xe800;" glyph-name="add"
                   d="M518.46 929.854c-267.293 0-484.008-216.714-484.008-484.008s216.714-484.008 484.008-484.008c267.293 0 484.008 216.714 484.008 484.008s-216.714 484.008-484.008 484.008zM760.464 385.346h-181.503v-181.503h-121.002v181.503h-181.503v121.002h181.503v181.503h121.002v-181.503h181.503v-121.002z"/>
            <glyph unicode="&#xe801;" glyph-name="expression"
                   d="M880.44 955.561v-248.316l-173.684 128h-401.668l347.736-369.991-347.736-408.937h415.925l159.925 128v-248.316h-721.899v140.485l333.131 388.768-333.131 354.69v135.617z"/>
            <glyph unicode="&#xe802;" glyph-name="settings"
                   d="M948.74 734.411l-143.835-143.835h-150.335v152.684l142.060 142.003c-21.018 6.328-42.724 10.738-65.775 10.738-126.454 0-229.025-102.629-229.025-229.083 0-35.279 8.619-68.295 22.937-98.219l-458.738-458.595c-13.745-13.888-22.364-32.902-22.364-54.149 0-42.065 34.105-76.285 76.399-76.285 21.133 0 40.261 8.505 53.92 22.364l458.824 458.681c29.809-14.203 62.912-22.88 98.047-22.88 126.625 0 229.083 102.629 229.083 229.083 0 23.653-4.467 46.017-11.196 67.493z"/>
            <glyph unicode="&#xe803;" glyph-name="label"
                   d="M721.329 756.325c-55.549 0-101.013-45.464-101.013-101.013s45.464-101.013 101.013-101.013c55.549 0 101.013 45.464 101.013 101.013s-45.464 101.013-101.013 101.013zM721.329 715.919c33.712 0 60.608-26.896 60.608-60.608s-26.896-60.608-60.608-60.608c-33.712 0-60.608 26.896-60.608 60.608s26.896 60.608 60.608 60.608zM570.125 897.743c-32.009 0-62.564-12.785-85.23-35.355l-404.999-403.105c-47.261-47.060-47.124-124.283 0-171.406l270.525-270.841c47.028-47.028 124.015-46.924 171.091 0l406.577 405.315c22.766 22.692 35.67 53.355 35.67 85.545v268.631c0 66.572-54.644 121.216-121.216 121.216zM528.773 844.395c-5.372-3.286-10.942-6.226-15.468-10.733l-404.999-403.105c0.065 0.065 444.529 414.394 444.594 414.458l-16.448-12.652c4.505 4.486-12.965 8.779-7.68 12.032zM570.125 816.932h272.419c22.967 0 40.405-17.438 40.405-40.405v-268.631c0-10.882-4.12-21.19-11.68-28.726l-406.577-404.999c-16.216-16.164-41.289-16.162-57.451 0l-270.525 270.525c-16.274 16.274-16.272 41.249 0 57.451l404.999 403.105c7.658 7.626 17.716 11.68 28.41 11.68zM378.832 45.761c7.864-7.864 16.775-13.749 26.516-17.677s20.252-6 30.62-5.998c20.735 0.004 41.395 7.985 57.135 23.675v-0.315c-15.76-15.709-36.472-23.351-57.135-23.359-10.472-0.004-20.793 1.964-30.62 5.998-9.562 3.926-18.763 9.608-26.516 17.362z"/>
            <glyph unicode="&#xe804;" glyph-name="logout"
                   d="M270.24 739.76c-27.98 0.329-51.905-18.323-67.84-39.6-104.218-103.863-145.283-265.26-108.39-407.436 39.944-164.351 184.496-297.061 352.113-322.28 148.779-25.271 308.269 34.285 403.698 150.864 99.222 117.148 128.49 288.364 73.059 431.492-22.099 57.058-55.068 111.629-100.080 153.28-26.284 24.27-67.803 30.143-97.76 9.28-35.57-20.674-47.969-72.671-24.48-107.36 11.911-20.183 34.535-30.368 45.6-51.12 62.282-87.997 65.558-213.13 7.36-303.92-56.6-91.845-169.349-145.458-276.934-129.238-113.403 15.004-211.713 104.838-234.986 217.158-21.462 97.253 14.214 204.867 90.48 268.56 35.495 37.025 19.274 105.764-28.24 124.080-10.711 4.426-21.993 6.726-33.6 6.24zM513.68 927.040c-47.146 0.253-83.668-47.681-76.791-93.2 0.87-121.017-1.808-242.428 1.431-363.2 8.349-46.67 64.011-77.954 107.52-57.6 35.423 14.317 54.184 55.322 48.626 92.4-0.86 119.014 1.813 238.442-1.426 357.2-6.624 36.604-41.691 66.234-79.36 64.4z"/>
            <glyph unicode="&#xe805;" glyph-name="shield"
                   d="M433.842-5.476c-260.439 141.97-329.504 275.278-329.731 636.447-0.064 106.060 4.382 123.507 31.534 123.678 6.82 0.040 30.745 8.62 53.167 19.061 44.443 20.694 69.165 52.395 85.877 110.118 8.812 30.435 13.325 34.971 41.62 41.825 41.571 10.070 334.718 10.276 375.046 0.263 28.365-7.043 32.615-11.614 45.186-48.599 7.632-22.454 20.393-50.77 28.358-62.926 15.488-23.637 83.531-59.612 112.994-59.741 26.093-0.114 29.222-23.813 23.688-179.398-12.028-338.12-68.309-437.972-326.52-579.3-33.542-18.359-65.942-33.329-72-33.267-6.058 0.080-37.207 14.39-69.219 31.84zM602.338 95.915c79.123 46.387 147.818 109.159 175.878 160.714 22.862 42.005 45.517 125.239 45.711 167.943l0.118 26h-312v199.144c0 172.443-1.662 199.782-12.393 203.9-12.828 4.923-160.251-8.025-171.66-15.077-3.547-2.192-12.2-20.865-19.23-41.495-17.276-50.703-39.994-72.653-90.347-87.29l-42.37-12.317v-113.832c0-77.87 3.033-116.865 9.6-123.432 6.82-6.82 55.467-9.6 168-9.6h158.4v-196c0-177.385 1.263-196 13.297-196 7.313 0 41.961 16.805 76.996 37.344z"/>
            <glyph unicode="&#xe806;" glyph-name="list" horiz-adv-x="1170"
                   d="M146.286 886.857c0-40.396-32.747-73.143-73.143-73.143s-73.143 32.747-73.143 73.143c0 40.396 32.747 73.143 73.143 73.143s73.143-32.747 73.143-73.143zM146.286 594.286c0-40.396-32.747-73.143-73.143-73.143s-73.143 32.747-73.143 73.143c0 40.396 32.747 73.143 73.143 73.143s73.143-32.747 73.143-73.143zM146.286 301.714c0-40.396-32.747-73.143-73.143-73.143s-73.143 32.747-73.143 73.143c0 40.396 32.747 73.143 73.143 73.143s73.143-32.747 73.143-73.143zM146.286 9.143c0-40.396-32.747-73.143-73.143-73.143s-73.143 32.747-73.143 73.143c0 40.396 32.747 73.143 73.143 73.143s73.143-32.747 73.143-73.143zM292.571 960h877.641v-146.286h-877.641v146.286zM292.571 667.429h877.641v-146.286h-877.641v146.286zM292.571 374.857h877.641v-146.286h-877.641v146.286zM292.571 82.286h877.641v-146.286h-877.641v146.286z"/>
            <glyph unicode="&#xe807;" glyph-name="templates"
                   d="M391.809 207.622c0 66.434-53.875 120.189-120.189 120.189-66.434 0-120.189-53.754-120.189-120.189v-0.24c0-88.85-48.346-166.311-120.189-207.867l0.481-0.361c35.215-20.282 76.050-31.91 119.708-31.91 132.749 0 240.378 107.629 240.378 240.378v0zM957.478 893.54c-46.934 46.934-123.013 46.934-169.947 0l-454.404-454.464c82.87-22.175 147.892-87.077 169.947-170.067l454.404 454.584c46.964 46.934 46.964 123.013 0 169.947z"/>
            <glyph unicode="&#xe808;" glyph-name="tools"
                   d="M874.697-43.584c-18.231 2.274-34.745 10.626-49.982 25.277-2.010 1.933-74.287 78.802-160.614 170.821s-157.296 167.579-157.708 167.913c-0.615 0.499-0.921 0.456-1.712-0.24-0.53-0.466-73.812-77.755-162.848-171.754s-163.432-172.37-165.324-174.159c-9.385-8.872-17.868-12.643-29.604-13.161-9.861-0.435-18.36 1.567-29.045 6.84-10.972 5.416-11.297 5.707-52.368 46.883-20.617 20.67-38.941 39.418-40.72 41.662-17.274 21.797-16.367 40.698 2.892 60.249 2.081 2.112 82.145 79.101 177.921 171.086 127.404 122.361 174.036 167.427 173.758 167.924-0.875 1.564-97.702 104.34-98.301 104.34-0.36 0-34.712-6.481-76.337-14.402s-76.141-14.399-76.703-14.394c-0.813 0.007-13.936 18.645-64.391 91.458l-63.37 91.45-0.279 8.831 23.661 23.665c13.014 13.016 23.986 23.665 24.384 23.665s26.106-25.384 57.13-56.409c32.199-32.2 56.77-56.409 57.253-56.409 1.437 0 75.449 21.234 76.111 21.837 0.529 0.482 22.179 75.459 22.18 76.814 0 0.261-25.545 26.024-56.767 57.25l-56.767 56.775 55.31 55.31 96.203-62.031c52.911-34.117 96.613-62.425 97.114-62.907 0.893-0.858 0.562-2.426-16.445-77.843-9.546-42.332-17.356-77.436-17.354-78.010 0.002-0.761 17.802-17.895 65.833-63.37 36.206-34.28 66.176-62.527 66.598-62.771 0.618-0.357 16.699 15.553 82.246 81.373l81.478 81.817-0.767 1.2c-3.509 5.493-40.039 54.43-45.306 60.695-17.050 20.28-31.929 33.105-60.087 51.794-19.053 12.646-33.58 21.518-75.734 46.253-13.598 7.979-24.724 14.772-24.724 15.096s0.864 0.858 1.92 1.188c1.056 0.329 14.99 4.853 30.963 10.052 47.097 15.329 58.323 18.751 77.774 23.703 18.493 4.708 34.669 7.626 51.128 9.224 7.761 0.753 26.959 0.759 34.325 0.011 37.977-3.859 69.941-19.545 98.745-48.458 21.355-21.436 121.962-124.806 126.011-129.472 17.629-20.316 29.425-37.191 38.057-54.445 1.399-2.796 4.76-10.161 7.469-16.366 7.198-16.488 10.665-23.074 17.435-33.125 5.679-8.431 17.45-23.095 18.803-23.424 0.318-0.077 2.177 0.709 4.133 1.747 10.601 5.628 21.648 6.374 33.687 2.275 6.077-2.070 11.469-5.356 16.507-10.063 4.939-4.614 7.723-8.169 10.532-13.449 4.166-7.831 4.655-9.866 4.885-20.344 0.187-8.48 0.116-9.537-0.846-12.705-1.154-3.801-3.184-8.080-5.413-11.411-1.838-2.747-73.812-74.962-78.494-78.758-17.796-14.425-45.91-9.748-61.88 10.293-3.732 4.683-7.856 12.856-9.355 18.537-1.538 5.83-1.56 15.929-0.045 21.199 2.465 8.575 5.188 12.775 13.882 21.408 3.523 3.499 6.406 6.46 6.406 6.581 0 0.358-18.692 23.648-23.553 29.346-11.074 12.983-21.768 21.651-31.691 25.689-10.031 4.082-18.716 4.521-31.321 1.584-2.953-0.688-7.421-1.548-9.929-1.912-17.937-2.598-34.795 2.566-51.039 15.634-1.976 1.589-3.776 2.89-4.001 2.89-0.855 0-161.567-161.18-161.402-161.872 0.093-0.389 83.253-79.353 184.8-175.474s185.98-176.361 187.628-178.311c8.676-10.263 14.532-22.286 17.166-35.247 1.308-6.432 1.167-21.221-0.264-27.827-4.012-18.517-14.062-35.842-27.906-48.104-13.655-12.096-28.779-19.075-45.604-21.044-7.030-0.823-9.52-0.818-16.325 0.031zM893.116-1.857c12.096 2.314 22.81 11.213 27.509 22.848 3.78 9.359 3.367 21.345-1.048 30.377-9.811 20.072-34.603 27.427-53.583 15.897-3.442-2.091-8.38-6.589-10.693-9.739-15.201-20.708-5.695-50.345 18.711-58.338 5.596-1.833 12.896-2.232 19.104-1.044z"/>
            <glyph unicode="&#xe809;" glyph-name="user"
                   d="M549.671 437.683c-189.457 0-343.167-153.71-343.167-343.167 0-63.228 51.16-114.389 114.389-114.389h457.556c63.228 0 114.389 51.16 114.389 114.389 0 189.457-153.71 343.167-343.167 343.167zM721.254 723.656c0-94.763-76.82-171.583-171.583-171.583s-171.583 76.82-171.583 171.583c0 94.763 76.82 171.583 171.583 171.583s171.583-76.82 171.583-171.583z"/>
            <glyph unicode="&#xe80a;" glyph-name="conditions_add"
                   d="M704 960v-124c0-51.264-20-99.488-56.128-135.616l-362.112-360.128c-57.248-57.12-88.768-132.128-92.256-212.256h-129.504l192-192 192 192h-126.624c3.36 46.016 21.888 88.736 54.752 121.76l362.112 360c60.512 60.48 93.76 140.736 93.76 226.24v124h-128zM830.496 128c-3.488 80.128-35.136 155.136-92.384 212.512l-71.36 70.88-90.752-90.272 71.744-71.36c32.992-32.864 51.488-75.744 54.88-121.76h-126.624l192-192 192 192h-129.504zM255.941 959.715c-141.376 0-256-114.624-256-256s114.624-256 256-256c141.376 0 256 114.624 256 256s-114.624 256-256 256zM383.941 671.715h-96v-96h-64v96h-96v64h96v96h64v-96h96v-64z"/>
            <glyph unicode="&#xe80b;" glyph-name="saved"
                   d="M320 896c-176.736 0-320-143.264-320-320v-320c0-141.376 114.752-256 256-256 0 65.975 23.385 118.977 87.384 126v129c-77.748-4.235-120.273-42.275-164.384-101-31.104 23.488-51 60.24-51 102v320c0 105.888 86.24 192 192 192h19.182v128zM370.19 896v-128h140.81v128zM572 896v-128h86.211c6.455 0 19.668-4.732 26.004-5.202v128c-6.381 0.315-19.545 5.202-26.004 5.202zM757 878v-138c25.175-12.947 47.551-30.791 67-51v160c-21.199 11.619-43.62 21.51-67 29zM962 721v-418c39.069 60.159 62 132.031 62 209s-22.931 148.841-62 209zM824 335c-19.449-20.209-41.825-38.053-67-51v-138c23.38 7.49 45.801 17.381 67 29zM674.409 259.802c-6.336-0.471-16.748-3.802-23.202-3.802h-79.207v-128h79.207c6.459 0 16.821 3.486 23.202 3.802zM374.393 256v-128h136.607v128z"/>
            <glyph unicode="&#xe80c;" glyph-name="conditions"
                   d="M704 960v-124c0-51.264-20-99.488-56.128-135.616l-362.112-360.128c-57.248-57.12-88.768-132.128-92.256-212.256h-129.504l192-192 192 192h-126.624c3.36 46.016 21.888 88.736 54.752 121.76l362.112 360c60.512 60.48 93.76 140.736 93.76 226.24v124h-128zM830.496 128c-3.488 80.128-35.136 155.136-92.384 212.512l-71.36 70.88-90.752-90.272 71.744-71.36c32.992-32.864 51.488-75.744 54.88-121.76h-126.624l192-192 192 192h-129.504z"/>
            <glyph unicode="&#xe80d;" glyph-name="copy"
                   d="M655.030 759.887h-388.348v-823.653h665.74v546.317zM377.638 47.19v601.74h221.913v-221.913h221.913v-379.827zM-0.047 959.94v-888h203v111h-92v666h222v-39.008h203.607l-148.607 150.008z"/>
            <glyph unicode="&#xe80e;" glyph-name="browse"
                   d="M640 768c141.248 0 256-114.752 256-256s-114.752-256-256-256h-256c-83.488 0-157.888-40.256-204.64-102.496-31.104 23.488-51.36 60.736-51.36 102.496v320c0 105.888 86.24 192 192 192h320zM640 896h-320c-176.736 0-320-143.264-320-320v-320c0-141.376 114.752-256 256-256 0 70.752 57.376 128 128 128h256c212.128 0 384 172 384 384s-171.872 384-384 384v0z"/>
            <glyph unicode="&#xe80f;" glyph-name="exportvv"
                   d="M533.26 958.759c-107.322 0-204.871-18.668-279.8-51.7-37.465-16.516-69.493-36.584-94.2-62.3s-42.4-59.251-42.4-96.4v-600.9c0-37.149 17.693-70.684 42.4-96.4s56.736-45.784 94.2-62.3c74.929-33.032 172.478-51.7 279.8-51.7 107.984 0 207.199 21.033 283.2 54.9 38.001 16.934 70.318 36.941 95.4 61.7s44.3 56.577 44.3 93.8c0 15.086 0 49 0 49l-111.7-74.5c0 0-36.759-28.78-67.1-42.3-60.683-27.041-148.909-46.6-244.1-46.6-95.853 0-182.534 17.725-241 43.5-29.233 12.887-51.183 27.867-63.8 41s-15.6 22.258-15.6 29.9v600.9c0 7.642 2.983 16.767 15.6 29.9s34.567 28.113 63.8 41c58.466 25.775 145.148 43.5 241 43.5s184.388-17.751 244.7-43.7c30.156-12.974 52.931-28.032 66.1-41.3s16.1-22.345 16.1-29.4l1.401-201.674 97.401-65.839-2.802 267.512c-0.395 37.734-18.511 71.419-43.9 97s-58.214 45.471-96.4 61.9c-76.372 32.858-175.278 51.5-282.6 51.5zM682.5 612.9c-7.026-0.026-14.603-1.171-22.8-3.6-45.979-13.625-27.4-80.14-27.4-108.3 0-6.984-116.116-3.3-130.4-3.3-212.012 8.878-169.608-54.756-169.7-151.6s-27.754-105.391 147.6-101.7c50.511 1.063 100.978 0 151.5 0 3.079 0-0.894-84.691 1.9-96 6.717-27.211 59.322-36.288 85.8-17.3 40.445 28.586 84.257 60.147 119.9 85.6 38.513 27.498 76.987 54.999 115.5 82.5 20.046 14.309 52.17 30.73 64.3 49.8 19.361 30.462-14.987 50.559-41.4 69.5-37.293 26.742-74.602 53.558-111.9 80.3-36.723 26.323-73.376 52.677-110.1 79-21.668 15.547-42.355 35.216-72.8 35.1zM441.9 449.4h67.7l40.7-90.5 40.9 90.5h67.3l-88.6-176.3h-40.2l-87.8 176.3zM667.2 449.4h67.7l40.7-90.5 40.9 90.5h67.3l-88.6-176.3h-40.1l-87.9 176.3zM393.7 315.4c6.113 0 11.321-2.13 15.6-6.5s6.4-9.767 6.4-16.1c0-6.333-2.121-11.667-6.4-16.1s-9.487-6.7-15.6-6.7c-6.357 0-11.76 2.267-16.1 6.7s-6.5 9.767-6.5 16.1c0 6.333 2.16 11.73 6.5 16.1s9.743 6.5 16.1 6.5z"/>
            <glyph unicode="&#xe810;" glyph-name="exportspss"
                   d="M533.26 958.759c-107.322 0-204.871-18.668-279.8-51.7-37.465-16.516-69.493-36.584-94.2-62.3s-42.4-59.251-42.4-96.4v-600.9c0-37.149 17.693-70.684 42.4-96.4s56.736-45.784 94.2-62.3c74.929-33.032 172.478-51.7 279.8-51.7 107.984 0 207.199 21.033 283.2 54.9 38.001 16.934 70.318 36.941 95.4 61.7s44.3 56.577 44.3 93.8c0 15.086 0 49 0 49l-111.7-74.5c0 0-36.759-28.78-67.1-42.3-60.683-27.041-148.909-46.6-244.1-46.6-95.853 0-182.534 17.725-241 43.5-29.233 12.887-51.183 27.867-63.8 41s-15.6 22.258-15.6 29.9v600.9c0 7.642 2.983 16.767 15.6 29.9s34.567 28.113 63.8 41c58.466 25.775 145.148 43.5 241 43.5s184.388-17.751 244.7-43.7c30.156-12.974 52.931-28.032 66.1-41.3s16.1-22.345 16.1-29.4l1.401-201.674 97.401-65.839-2.802 267.512c-0.395 37.734-18.511 71.419-43.9 97s-58.214 45.471-96.4 61.9c-76.372 32.858-175.278 51.5-282.6 51.5zM682.5 612.9c-7.026-0.026-14.603-1.171-22.8-3.6-45.979-13.625-27.4-80.14-27.4-108.3 0-6.984-116.116-3.3-130.4-3.3-212.012 8.878-169.608-54.756-169.7-151.6s-27.754-105.391 147.6-101.7c50.511 1.063 100.978 0 151.5 0 3.079 0-0.894-84.691 1.9-96 6.717-27.211 59.322-36.288 85.8-17.3 40.445 28.586 84.257 60.147 119.9 85.6 38.513 27.498 76.987 54.999 115.5 82.5 20.046 14.309 52.17 30.73 64.3 49.8 19.361 30.462-14.987 50.559-41.4 69.5-37.293 26.742-74.602 53.558-111.9 80.3-36.723 26.323-73.376 52.677-110.1 79-21.668 15.547-42.355 35.216-72.8 35.1zM433.7 458.6c18.971 0 37.601-4.928 55.8-14.8l-18.3-36.8c-9.958 8.004-19.971 12-30.1 12-4.893 0-9.337-1.221-13.2-3.8-4.378-2.935-6.6-6.909-6.6-11.8 0-4.803 2.949-8.932 8.7-12.4 2.575-1.601 10.324-4.387 23.2-8.3 16.138-4.892 27.633-11.818 34.5-20.8 5.923-7.649 8.8-17.494 8.8-29.5 0-30.772-13.004-50.762-39.1-60.1-9.099-3.291-18.927-5-29.4-5-21.975 0-42.301 6.915-61.1 20.7l19.6 38.2c13.735-12.807 27.166-19.2 40.3-19.2 5.923 0 10.88 1.354 15 4.2 4.807 3.202 7.2 7.73 7.2 13.6 0 5.336-2.578 9.843-7.9 13.4-3.949 2.668-10.643 5.343-20 8.1-11.331 3.468-18.481 5.866-21.4 7.2-4.635 2.045-8.538 4.443-11.8 7.2-9.357 8.004-14.1 20.114-14.1 36.3 0 16.898 4.9 30.883 14.6 42 11.331 13.073 26.415 19.6 45.3 19.6zM722.9 458.6c18.971 0 37.501-4.928 55.7-14.8l-18.3-36.8c-9.958 8.004-19.971 12-30.1 12-4.893 0-9.237-1.221-13.1-3.8-4.378-2.935-6.6-6.909-6.6-11.8 0-4.803 2.849-8.932 8.6-12.4 2.575-1.601 10.324-4.387 23.2-8.3 16.138-4.892 27.633-11.818 34.5-20.8 5.923-7.649 8.9-17.494 8.9-29.5 0-30.772-13.004-50.762-39.1-60.1-9.099-3.291-18.927-5-29.4-5-21.975 0-42.401 6.915-61.2 20.7l19.6 38.2c13.735-12.807 27.166-19.2 40.3-19.2 5.923 0 10.98 1.354 15.1 4.2 4.807 3.202 7.2 7.73 7.2 13.6 0 5.336-2.678 9.843-8 13.4-3.949 2.668-10.543 5.343-19.9 8.1-11.331 3.468-18.481 5.866-21.4 7.2-4.635 2.045-8.638 4.443-11.9 7.2-9.357 8.004-14 20.114-14 36.3 0 16.898 4.9 30.883 14.6 42 11.331 13.073 26.415 19.6 45.3 19.6zM863.9 458.6c18.971 0 37.501-4.928 55.7-14.8l-18.3-36.8c-9.958 8.004-19.971 12-30.1 12-4.893 0-9.237-1.221-13.1-3.8-4.378-2.935-6.6-6.909-6.6-11.8 0-4.803 2.849-8.932 8.6-12.4 2.575-1.601 10.324-4.387 23.2-8.3 16.138-4.892 27.633-11.818 34.5-20.8 5.923-7.649 8.9-17.494 8.9-29.5 0-30.772-13.104-50.762-39.2-60.1-9.099-3.291-18.827-5-29.3-5-21.976 0-42.401 6.915-61.2 20.7l19.6 38.2c13.735-12.807 27.166-19.2 40.3-19.2 5.923 0 10.98 1.354 15.1 4.2 4.807 3.202 7.2 7.73 7.2 13.6 0 5.336-2.678 9.843-8 13.4-3.949 2.668-10.643 5.343-20 8.1-11.331 3.468-18.381 5.866-21.3 7.2-4.635 2.045-8.638 4.443-11.9 7.2-9.357 8.004-14 20.114-14 36.3 0 16.898 4.8 30.883 14.5 42 11.331 13.073 26.515 19.6 45.4 19.6zM515.7 454.2h72.8c20.688 0 36.37-6.26 47.1-18.8 9.271-10.761 13.9-24.48 13.9-41.2 0-16.453-3.732-30.039-11.2-40.8-9.7-13.963-25.81-21-48.3-21h-28.6v-60.3h-45.7v182.1zM561.4 416v-45.3h15.2c9.872 0 16.709 2.253 20.4 6.7 3.348 4.002 5 9.452 5 16.3 0 6.759-1.88 12.153-5.7 16.2s-10.415 6.1-19.6 6.1h-15.3z"/>
            <glyph unicode="&#xe811;" glyph-name="exportr"
                   d="M533.26 958.759c-107.322 0-204.871-18.668-279.8-51.7-37.465-16.516-69.493-36.584-94.2-62.3s-42.4-59.251-42.4-96.4v-600.9c0-37.149 17.693-70.684 42.4-96.4s56.736-45.784 94.2-62.3c74.929-33.032 172.478-51.7 279.8-51.7 107.984 0 207.199 21.033 283.2 54.9 38.001 16.934 70.318 36.941 95.4 61.7s44.3 56.577 44.3 93.8c0 15.086 0 49 0 49l-111.7-74.5c0 0-36.759-28.78-67.1-42.3-60.683-27.041-148.909-46.6-244.1-46.6-95.853 0-182.534 17.725-241 43.5-29.233 12.887-51.183 27.867-63.8 41s-15.6 22.258-15.6 29.9v600.9c0 7.642 2.983 16.767 15.6 29.9s34.567 28.113 63.8 41c58.466 25.775 145.148 43.5 241 43.5s184.388-17.751 244.7-43.7c30.156-12.974 52.931-28.032 66.1-41.3s16.1-22.345 16.1-29.4l1.401-201.674 97.401-65.839-2.802 267.512c-0.395 37.734-18.511 71.419-43.9 97s-58.214 45.471-96.4 61.9c-76.372 32.858-175.278 51.5-282.6 51.5zM682.5 612.9c-7.026-0.026-14.603-1.171-22.8-3.6-45.979-13.625-27.4-80.14-27.4-108.3 0-6.984-116.116-3.3-130.4-3.3-212.012 8.878-169.608-54.756-169.7-151.6s-27.754-105.391 147.6-101.7c50.511 1.063 100.978 0 151.5 0 3.079 0-0.894-84.691 1.9-96 6.717-27.211 59.322-36.288 85.8-17.3 40.445 28.586 84.257 60.147 119.9 85.6 38.513 27.498 76.987 54.999 115.5 82.5 20.046 14.309 52.17 30.73 64.3 49.8 19.361 30.462-14.987 50.559-41.4 69.5-37.293 26.742-74.602 53.558-111.9 80.3-36.723 26.323-73.376 52.677-110.1 79-21.668 15.547-42.355 35.216-72.8 35.1zM433.7 465c18.971 0 37.601-4.928 55.8-14.8l-18.3-36.8c-9.958 8.004-19.971 12-30.1 12-4.893 0-9.337-1.221-13.2-3.8-4.378-2.935-6.6-6.909-6.6-11.8 0-4.803 2.949-8.932 8.7-12.4 2.575-1.601 10.324-4.387 23.2-8.3 16.138-4.892 27.633-11.818 34.5-20.8 5.923-7.649 8.8-17.494 8.8-29.5 0-30.772-13.004-50.762-39.1-60.1-9.099-3.291-18.927-5-29.4-5-21.975 0-42.301 6.915-61.1 20.7l19.6 38.2c13.735-12.807 27.166-19.2 40.3-19.2 5.923 0 10.88 1.354 15 4.2 4.807 3.202 7.2 7.73 7.2 13.6 0 5.336-2.578 9.843-7.9 13.4-3.949 2.668-10.643 5.343-20 8.1-11.331 3.468-18.481 5.866-21.4 7.2-4.635 2.045-8.538 4.443-11.8 7.2-9.357 8.004-14.1 20.114-14.1 36.3 0 16.898 4.9 30.883 14.6 42 11.331 13.073 26.415 19.6 45.3 19.6zM722.9 465c18.971 0 37.501-4.928 55.7-14.8l-18.3-36.8c-9.958 8.004-19.971 12-30.1 12-4.893 0-9.237-1.221-13.1-3.8-4.378-2.935-6.6-6.909-6.6-11.8 0-4.803 2.849-8.932 8.6-12.4 2.575-1.601 10.324-4.387 23.2-8.3 16.138-4.892 27.633-11.818 34.5-20.8 5.923-7.649 8.9-17.494 8.9-29.5 0-30.772-13.004-50.762-39.1-60.1-9.099-3.291-18.927-5-29.4-5-21.975 0-42.401 6.915-61.2 20.7l19.6 38.2c13.735-12.807 27.166-19.2 40.3-19.2 5.923 0 10.98 1.354 15.1 4.2 4.807 3.202 7.2 7.73 7.2 13.6 0 5.336-2.678 9.843-8 13.4-3.949 2.668-10.543 5.343-19.9 8.1-11.331 3.468-18.481 5.866-21.4 7.2-4.635 2.045-8.638 4.443-11.9 7.2-9.357 8.004-14 20.114-14 36.3 0 16.898 4.9 30.883 14.6 42 11.331 13.073 26.415 19.6 45.3 19.6zM863.9 465c18.971 0 37.501-4.928 55.7-14.8l-18.3-36.8c-9.958 8.004-19.971 12-30.1 12-4.893 0-9.237-1.221-13.1-3.8-4.378-2.935-6.6-6.909-6.6-11.8 0-4.803 2.849-8.932 8.6-12.4 2.575-1.601 10.324-4.387 23.2-8.3 16.138-4.892 27.633-11.818 34.5-20.8 5.923-7.649 8.9-17.494 8.9-29.5 0-30.772-13.104-50.762-39.2-60.1-9.099-3.291-18.827-5-29.3-5-21.976 0-42.401 6.915-61.2 20.7l19.6 38.2c13.735-12.807 27.166-19.2 40.3-19.2 5.923 0 10.98 1.354 15.1 4.2 4.807 3.202 7.2 7.73 7.2 13.6 0 5.336-2.678 9.843-8 13.4-3.949 2.668-10.643 5.343-20 8.1-11.331 3.468-18.381 5.866-21.3 7.2-4.635 2.045-8.638 4.443-11.9 7.2-9.357 8.004-14 20.114-14 36.3 0 16.898 4.8 30.883 14.5 42 11.331 13.073 26.515 19.6 45.4 19.6zM515.7 460.6h72.8c20.688 0 36.37-6.26 47.1-18.8 9.271-10.761 13.9-24.48 13.9-41.2 0-16.453-3.732-30.039-11.2-40.8-9.7-13.963-25.81-21-48.3-21h-28.6v-60.3h-45.7v182.1zM561.4 422.4v-45.3h15.2c9.872 0 16.709 2.253 20.4 6.7 3.348 4.002 5 9.452 5 16.3 0 6.759-1.88 12.153-5.7 16.2s-10.415 6.1-19.6 6.1h-15.3z"/>
            <glyph unicode="&#xe812;" glyph-name="exportcsv"
                   d="M533.26 954.259c-106.035 0-202.385-19.030-275.4-51.9-36.508-16.435-67.402-36.343-90.6-61s-38.9-55.558-38.9-89.4v-613.7c0-33.842 15.702-64.743 38.9-89.4s54.092-44.565 90.6-61c73.015-32.87 169.365-51.9 275.4-51.9 215.657 0 382.872 141.864 394.6 158.3s16.441 42.537 16.441 42.537l-0.369 99.971-70.603-35.305 1.032-65.904c-97.701-65.638-150.408-126.7-341.1-126.7-97.14 0-185.020 18.318-245.4 45.5-30.19 13.591-53.373 29.385-67.5 44.4s-19 27.602-19 39.5v613.7c0 11.899 4.873 24.485 19 39.5s37.31 30.909 67.5 44.5c60.38 27.182 148.26 45.4 245.4 45.4s186.823-18.282 249-45.6c31.088-13.659 55.11-29.586 69.8-44.7s19.7-27.638 19.7-39.1v-195.9l72.9-51.2v247.1c0 34.278-16.432 65.342-40.3 89.9s-55.546 44.333-92.8 60.7c-74.507 32.735-172.265 51.7-278.3 51.7zM682.5 612.9c-7.026-0.027-14.603-1.171-22.8-3.6-45.979-13.625-27.4-80.14-27.4-108.3 0-6.984-116.116-3.3-130.4-3.3-212.012 8.878-169.608-54.756-169.7-151.6s-27.754-105.391 147.6-101.7c50.511 1.063 100.978 0 151.5 0 3.079 0-0.894-84.691 1.9-96 6.717-27.211 59.322-36.288 85.8-17.3 40.445 28.586 84.257 60.147 119.9 85.6 38.513 27.498 76.987 54.999 115.5 82.5 20.046 14.309 52.17 30.73 64.3 49.8 19.361 30.462-14.987 50.559-41.4 69.5-37.293 26.742-74.602 53.558-111.9 80.3-36.723 26.323-73.376 52.677-110.1 79-21.668 15.547-42.355 35.216-72.8 35.1zM517.4 435.4c19.375 0 34.865-4.303 46.3-12.9s19.606-21.693 24.6-39.3l-41.5-7.7c-1.398 8.546-4.557 14.975-9.5 19.3s-11.41 6.5-19.3 6.5c-10.486 0-18.858-3.735-25.1-11.2s-9.3-19.996-9.3-37.5c0-19.46 3.158-33.169 9.5-41.2s14.814-12.1 25.5-12.1c7.989 0 14.607 2.315 19.7 7s8.603 12.771 10.7 24.2l41.4-7.2c-4.295-19.563-12.516-34.413-24.7-44.4s-28.527-14.9-49-14.9c-23.27 0-41.868 7.564-55.7 22.7s-20.7 36.029-20.7 62.8c0 27.079 6.918 48.216 20.8 63.3s32.631 22.6 56.3 22.6zM678.3 435.4c21.771 0 38.014-3.69 48.6-11s17.805-18.088 21.8-32.4l-39.7-7.6c-1.698 6.384-4.856 11.302-9.6 14.7s-11.512 5.1-20.3 5.1c-11.086 0-19.006-1.608-23.8-4.8-3.196-2.265-4.8-5.196-4.8-8.8 0-3.089 1.404-5.738 4.2-7.9 3.795-2.883 16.879-6.949 39.3-12.2s38.011-11.681 46.9-19.3c8.788-7.722 13.2-18.503 13.2-32.3 0-15.033-6.016-27.889-18.2-38.7s-30.231-16.2-54.1-16.2c-21.672 0-38.867 4.439-51.5 13.5s-20.905 21.452-24.8 37l42.3 6.6c1.798-8.443 5.407-14.824 10.9-19.2s13.213-6.6 23.1-6.6c10.886 0 19.007 2.081 24.5 6.2 3.695 2.883 5.6 6.761 5.6 11.6 0 3.295-1.003 5.938-3 8.1-2.097 2.059-6.81 4.050-14.1 5.8-33.956 7.722-55.512 14.716-64.6 21.1-12.584 8.855-18.8 21.146-18.8 36.9 0 14.209 5.414 26.221 16.3 35.9s27.73 14.5 50.6 14.5zM770.8 431.7h44.1l30-83.7 8.7-28c2.297 7.104 3.701 11.835 4.3 14.1 1.398 4.633 2.902 9.267 4.5 13.9l30.3 83.7h43.3l-63.2-164h-37.9l-64.1 164zM364.5 311.1h42.1v-43.4h-42.1v43.4z"/>
            <glyph unicode="&#xe813;" glyph-name="export"
                   d="M533.26 958.759c-107.322 0-204.871-18.668-279.8-51.7-37.465-16.516-69.493-36.584-94.2-62.3s-42.4-59.251-42.4-96.4v-600.9c0-37.149 17.693-70.684 42.4-96.4s56.736-45.784 94.2-62.3c74.929-33.032 172.478-51.7 279.8-51.7 107.984 0 207.199 21.033 283.2 54.9 38.001 16.934 70.318 36.941 95.4 61.7s44.3 56.577 44.3 93.8c0 15.086 0 49 0 49l-111.7-74.5c0 0-36.759-28.78-67.1-42.3-60.683-27.041-148.909-46.6-244.1-46.6-95.853 0-182.534 17.725-241 43.5-29.233 12.887-51.183 27.867-63.8 41s-15.6 22.258-15.6 29.9v600.9c0 7.642 2.983 16.767 15.6 29.9s34.567 28.113 63.8 41c58.466 25.775 145.148 43.5 241 43.5s184.388-17.751 244.7-43.7c30.156-12.974 52.931-28.032 66.1-41.3s16.1-22.345 16.1-29.4l1.401-201.674 97.401-65.839-2.802 267.512c-0.395 37.734-18.511 71.419-43.9 97s-58.214 45.471-96.4 61.9c-76.372 32.858-175.278 51.5-282.6 51.5zM661.708 560.602c-42.024-12.457-25.014-73.296-25.014-99.040 0-6.385-106.107-3.044-119.162-3.044-193.774 8.117-155.057-50.050-155.141-138.586s-25.387-96.346 134.883-92.972c46.166 0.972 92.348 0 138.525 0 2.814 0-0.895-77.406 1.658-87.745 6.139-24.877 54.234-33.167 78.435-15.808 36.966 26.134 77.020 55.010 109.597 78.28 35.2 25.139 70.391 50.271 105.591 75.413 18.322 13.082 47.67 28.078 58.756 45.512 17.696 27.849-13.685 46.262-37.826 63.579-34.085 24.448-68.18 48.9-102.27 73.348-33.565 24.065-67.116 48.137-100.68 72.202-24.374 17.493-47.396 40.701-87.351 28.86z"/>
            <glyph unicode="&#xe814;" glyph-name="resetsurveylogic"
                   d="M704 960v-124c0-4.39-0.709-8.66-1-13 31.574-36.943 49.843-69.874 78.626-86-114.696-54.503-198.456-328.281-311.577-204.59l-184.049-192.41c-17.252-17.214-32.484-35.886-45-56 31.156-31.671 74.114-49.503 119-54 5.068 6.687 9.958 13.929 16 20l205 203c3.474 4.446 7.551 8.653 12 12l145 145c60.512 60.48 94 140.496 94 226v124zM168.976 36.398l87.024-100.398 68.085 54.711c-42.521 6.759-118.621 26.533-155.11 45.687zM799 255c-32.384-77.854-86.050-146.321-153-197l122-122 192 192h-130c-1.942 44.608-12.045 87.725-31 127zM638.495 418.994c0-141.12-114.752-256-256-256s-256 114.88-256 256c0 141.12 114.752 256 256 256l75.488-0.864-37.248-37.248 90.496-90.496 192.384 192.608-192.384 192-90.496-90.496 37.76-37.504h-76c-212 0-384-171.872-384-384s172-384 384-384c212 0 384 171.872 384 384h-128z"/>
            <glyph unicode="&#xe815;" glyph-name="renumber"
                   d="M255.796-66.755c-24.343 0-45.877 3.752-64.602 11.255-18.351 7.146-33.706 17.508-46.064 31.086s-21.721 30.014-28.088 49.309c-6.367 19.295-9.55 41.091-9.55 65.388v193.483c0 22.51-2.809 41.626-8.426 57.348-5.243 15.721-13.108 28.585-23.594 38.589-10.112 10.004-22.658 17.508-37.638 22.51s-32.020 7.861-51.12 8.575v68.067c19.1 0.714 36.14 3.573 51.12 8.575s27.526 12.505 37.638 22.51c10.486 10.004 18.351 22.867 23.594 38.589 5.617 15.721 8.426 34.659 8.426 56.812v194.019c0 50.38 12.359 89.148 37.076 116.304 25.092 27.155 62.168 40.732 111.228 40.733h75.837v-69.139h-35.391c-34.080-0.001-58.423-9.648-73.029-28.942-14.231-18.938-21.347-47.701-21.347-86.29v-190.803c0-17.866-2.809-34.302-8.426-49.309s-13.295-28.228-23.032-39.661c-9.737-11.434-21.347-21.082-34.829-28.942-13.108-7.861-27.339-13.578-42.694-17.151v-1.072c16.104-3.573 30.709-9.29 43.817-17.151 13.482-7.861 24.904-17.687 34.267-29.478 9.737-11.434 17.227-24.655 22.47-39.661 5.617-15.007 8.426-31.622 8.426-49.845v-191.339c0-37.875 7.115-66.459 21.347-85.754 14.605-19.652 38.948-29.478 73.029-29.478h35.391v-69.139h-75.837zM723.742 2.384c34.080 0 58.423 9.826 73.029 29.478 14.98 19.295 22.47 47.88 22.47 85.754v191.339c0 18.223 2.621 34.837 7.865 49.845s12.546 28.227 21.909 39.661c9.737 11.791 21.159 21.617 34.267 29.478 13.482 7.861 28.275 13.577 44.379 17.151v1.072c-15.729 3.573-30.148 9.29-43.255 17.151s-24.53 17.508-34.267 28.942c-9.737 11.434-17.415 24.654-23.032 39.661-5.243 15.007-7.865 31.443-7.865 49.309v190.803c0 38.589-7.49 67.352-22.47 86.29-14.606 19.294-38.949 28.941-73.029 28.942h-33.706v69.139h74.152c49.060-0.001 85.949-13.579 110.666-40.733 25.092-27.156 37.638-65.924 37.638-116.304v-194.019c0-22.154 2.621-41.091 7.865-56.812 5.617-15.722 13.482-28.585 23.594-38.589 10.486-10.005 23.219-17.508 38.2-22.51 15.354-5.003 32.769-7.861 52.244-8.575v-68.067c-19.475-0.715-36.889-3.573-52.244-8.575-14.981-5.003-27.714-12.506-38.2-22.51-10.112-10.005-17.977-22.868-23.594-38.589-5.243-15.722-7.865-34.838-7.865-57.348v-193.483c0-24.297-3.184-46.093-9.55-65.388s-15.729-35.731-28.088-49.309c-12.359-13.578-27.901-23.939-46.626-31.086-18.351-7.503-39.698-11.255-64.041-11.255h-74.152v69.139h33.706zM398.321 645.888v44.325h88.12v203.809l-85.342-44.749v46.87l89.13 48.566h67.163v-254.496h81.555v-44.325h-240.625zM383.676 294.072v41.356c8.080 14.846 17.927 28.207 29.542 40.083 11.615 12.018 23.734 22.975 36.359 32.872 12.793 10.038 25.417 19.299 37.874 27.783 12.624 8.624 23.902 16.896 33.834 24.813 10.1 8.059 18.263 16.118 24.492 24.177s9.342 16.613 9.342 25.662c0 13.29-3.956 23.117-11.867 29.479s-19.526 9.543-34.844 9.544c-15.15 0-26.764-3.464-34.844-10.392-7.912-6.787-13.046-17.037-15.402-30.752l-71.455 3.393c1.683 11.735 5.134 22.763 10.352 33.085s12.625 19.37 22.219 27.146c9.763 7.776 21.883 13.856 36.359 18.239 14.644 4.524 32.066 6.786 52.266 6.787 19.189 0 36.19-1.909 51.003-5.726 14.813-3.676 27.269-9.12 37.369-16.33s17.758-16.048 22.977-26.51c5.218-10.321 7.827-22.127 7.827-35.417 0-13.998-3.283-26.652-9.847-37.962s-14.981-21.774-25.249-31.388c-10.268-9.473-21.715-18.38-34.339-26.722-12.456-8.342-24.576-16.472-36.359-24.389s-22.556-15.906-32.319-23.965c-9.595-8.059-16.749-16.684-21.462-25.874h165.13v-48.991h-248.958zM634.654 25.18c0-13.573-2.694-25.803-8.080-36.69-5.218-10.745-13.13-19.936-23.734-27.57s-23.819-13.502-39.641-17.603c-15.655-3.959-33.918-5.938-54.791-5.938-23.229 0-42.84 2.474-58.831 7.423-15.823 4.949-28.868 11.452-39.136 19.511-10.1 8.2-17.759 17.461-22.977 27.783-5.050 10.321-8.332 20.784-9.847 31.388l72.213 5.302c1.010-6.362 2.861-12.23 5.555-17.603 2.861-5.231 6.649-9.756 11.362-13.573s10.436-6.787 17.169-8.907c6.901-1.979 14.981-2.969 24.239-2.969 17.001 0 30.215 3.535 39.641 10.604s14.139 17.885 14.14 32.448c0 8.907-2.273 16.047-6.817 21.42-4.377 5.373-10.016 9.473-16.917 12.301-6.733 2.969-14.056 4.948-21.967 5.938s-15.402 1.484-22.472 1.485h-24.744v48.142h23.229c7.070 0 14.224 0.566 21.462 1.697 7.406 1.131 14.055 3.181 19.947 6.15s10.689 7.069 14.392 12.301c3.703 5.373 5.555 12.159 5.555 20.36 0 12.3-4.124 21.915-12.372 28.843-8.080 7.069-19.947 10.604-35.601 10.604-14.645 0-26.512-3.394-35.601-10.18-8.921-6.787-14.056-16.401-15.402-28.843l-70.95 4.242c2.020 13.997 6.565 26.156 13.635 36.478 7.238 10.321 16.244 18.875 27.017 25.662 10.941 6.786 23.482 11.806 37.621 15.058 14.139 3.393 29.121 5.090 44.944 5.090 20.873 0 38.799-2.121 53.781-6.362s27.269-9.968 36.864-17.179c9.594-7.211 16.664-15.624 21.209-25.238s6.817-19.865 6.817-30.752c0-8.766-1.515-16.967-4.545-24.601-3.030-7.494-7.659-14.28-13.887-20.36-6.060-5.938-13.887-11.099-23.482-15.482-9.595-4.242-20.957-7.423-34.086-9.544v-0.848c14.644-1.414 27.353-4.242 38.126-8.483 10.773-4.1 19.61-9.261 26.512-15.482s12.035-13.29 15.402-21.208c3.366-7.776 5.050-16.048 5.050-24.813z"/>
            <glyph unicode="&#xe816;" glyph-name="expressionmanagercheck"
                   d="M185 929c-83.161 0-150-66.839-150-150v-256c6.939 56.51 26.695 102.394 60 137 42.070 43.713 99.912 66 172 66 71.431 0 127.149-22.287 169-66s62.999-104.339 63-183c-0.001-41.632-5.387-78.448-17-110-8.765-24.103-22.718-47.431-42-70 23.043-16.49 48.080-30.037 75-40l180 461h103l193-482h-106l-42 109h-193l-39-109h-103l-26-49c-14.681 4.382-28.977 10.331-43 18-3.068 1.534-24.903 16.049-65 43-31.553-13.804-66.655-20-105-20-74.060 0-132.040 21.396-174 65-33.219 34.519-53.080 80.371-60 137v-312c0-83.161 66.839-150 150-150h658c83.161 0 150 66.839 150 150v661c0 83.161-66.839 150-150 150h-658zM266 643c-39.66 0-72.35-14.392-97-42s-37-68.565-37-124c0-56.312 12.35-99.063 37-127s56.312-42 94-42c14.023 0 27.51 2.399 40 7-19.72 12.928-39.623 22.769-60 30l27 56c31.99-10.956 62.858-27.089 92-49 12.489 14.68 21.755 32.184 28 53s9 45.049 9 72c0 55.654-12.46 96.501-37 124s-56.341 42-96 42zM745 605l-65-179h132l-67 179z"/>
            <glyph unicode="&#xe817;" glyph-name="emailtemplates"
                   d="M514.496 337.376l509.504 241.248v125.376l-204.274-222.434-184.798-88.172h-167.264l-7.89 240.47 52.227 70.137h-512v-124.992zM514.752 195.872l-514.752 241.888v-501.76h1024v500.992zM989.139 919.123c-25.237 25.253-58.309 37.871-91.381 37.871s-66.145-12.618-91.381-37.871l-295.875-295.859-0.501-183.28h182.763l296.376 296.376c50.489 50.489 50.489 132.274 0 182.763zM666.008 504.611h-0.695c25.237 25.237 25.237 66.646 0 91.898-24.17 24.17-62.348 24.493-87.73 2.391l273.918 273.902 91.381-91.381-276.875-276.81z"/>
            <glyph unicode="&#xe818;" glyph-name="assessments"
                   d="M576 832c176.512 0 320-143.488 320-320s-143.488-320-320-320c-22.624 0-175.136 3.36-202.88 10.112l-54.496 13.504-61.376-40.608 0.128 21.888 0.256 52.864-37.12 37.632c-59.648 60.48-93.059 140.226-92.512 224.608 1.479 228.279 218.048 335.268 448 320zM576 960c-354.239 0-577.479-156.268-576-448 0.622-122.622 49.504-233.504 129.376-314.496l-1.376-261.504 214.496 141.888c34.016-8.384 196.992-13.888 233.504-13.888 247.36 0 448 200.64 448 448s-200.64 448-448 448z"/>
            <glyph unicode="&#xe819;" glyph-name="quota"
                   d="M1024 320h-1024l512 640zM0 192h1022.624v-256h-1022.624v256z"/>
            <glyph unicode="&#xe81a;" glyph-name="security"
                   d="M512.128 960c-176.32 0-319.936-143.488-319.936-320v-64h-64.192v-448c0-105.76 86.24-192 191.936-192h384.064c105.984 0 205.118 87.057 192 192l0.718 439.646-60.067 7.678-4.651 64.675c-12.662 176.057-143.488 320-319.872 320zM320.192 640c0 105.984 86.176 192 191.936 192 105.856 0 191.872-86.016 191.872-192v-64h-383.808zM704 64h-384.064c-35.264 0-64 28.736-64 64v320h512.064v-320c0-35.264-28.512-64-64-64zM576.128 256c0-35.264-28.736-64-64-64-35.488 0-64 28.736-64 64 0 35.488 28.512 64 64 64 35.232 0 64-28.512 64-64z"/>
            <glyph unicode="&#xe81b;" glyph-name="responses"
                   d="M1010.849 446.759c52.319 225.345-38.585 388.915-187.789 466.879-72.743 42.458-157.935 48.886-240.207 46.362-98.512-0.895-197.148 1.916-295.571-1.652-149.807-12.415-277.773-143.635-286.348-293.726-1.874-119.219-0.811-238.546-0.6-357.794 3.697-127.181 153.256-247.715 280.431-251.418 13.001 5.116-19.458 92.552 2.328 124.64 10.893 16.044 55.406-2.947 54.882 1.963-5.418 50.721 9.119 125.234 9.119 125.234s-144.442 45.798-167.733-89.743c-42.645 29.717-55.224 83.336-51.36 132.43 0.609 103.215-1.252 206.509 0.994 309.672 7.913 101.555 106.555 181.804 359.17 172.394 279.104 2.856 396.257-103.020 406.513-229.848 15.498-124.314 2.167-65.778 2.167-65.778zM683.36 206.494l-224.189 224.189c-111.755-128.986-111.755-319.392 0-448.378l224.189 224.189zM723.556 263.247l5.603 328.259c-103.977-6.464-176.684-34.996-252.347-96.925zM772.291 530.206v-313.924l-220.056-220.056c49.339-36.263 108.788-59.11 174.532-59.11 165.694 0 299.809 134.115 299.809 299.533 0 150.010-110.781 271.536-254.284 293.557z"/>
            <glyph unicode="&#xe81c;" glyph-name="display_export"
                   d="M452.6 954.1c49.005-17.618 93.598-56.568 130.9-91.4 72.194 3.267 144.021-21.792 194.5-43.6 30.156-12.974 52.931-28.032 66.1-41.3s16.1-22.345 16.1-29.4l1.4-201.7 97.4-65.9-2.8 267.6c-0.395 37.734-18.511 71.419-43.9 97s-58.214 45.471-96.4 61.9c-126.628 45.118-257.091 64.14-363.3 46.8zM228.5 778.3c-152.333-561.533-76.167-280.767 0 0zM116.9 536.1v-388.6c0-37.149 17.693-70.684 42.4-96.4s56.736-45.784 94.2-62.3c74.929-33.032 172.478-51.7 279.8-51.7 107.984 0 207.199 21.033 283.2 54.9 38.001 16.934 70.318 36.941 95.4 61.7s44.3 56.577 44.3 93.8v49l-111.7-74.5c0 0-36.759-28.78-67.1-42.3-60.683-27.041-148.909-46.6-244.1-46.6-95.853 0-182.534 17.725-241 43.5-29.233 12.887-51.183 27.867-63.8 41s-15.6 22.258-15.6 29.9v318.3c-35.27 18.265-67.681 43.499-96 70.3zM838.070 793.239c0-22.795-24.134-51.442-51.688-67.531s-35.064-24.457-121.975-24.457l-64.63-89.514c98.622 0 189.697 7.105 242.128 37.72s79.202 81.302 79.202 129.773zM661.708 560.602c-42.024-12.457-25.014-73.296-25.014-99.040 0-6.385-106.107-3.044-119.162-3.044-193.774 8.117-155.057-50.050-155.141-138.586s-25.387-96.346 134.883-92.972c46.166 0.972 92.348 0 138.525 0 2.814 0-0.895-77.406 1.658-87.745 6.139-24.877 54.234-33.167 78.435-15.808 36.966 26.134 77.020 55.010 109.597 78.28 35.2 25.139 70.391 50.271 105.591 75.413 18.322 13.082 47.67 28.078 58.756 45.512 17.696 27.849-13.685 46.262-37.826 63.579-34.085 24.448-68.18 48.9-102.27 73.348-33.565 24.065-67.116 48.137-100.68 72.202-24.374 17.493-47.396 40.701-87.351 28.86zM320.088 961.401c-176.42 0-319.457-236.478-319.457-236.478s143.037-242.708 319.457-242.708c176.42 0 319.457 242.708 319.457 242.708s-143.037 236.478-319.457 236.478zM320.088 562.079c-88.21 0-159.729 71.518-159.729 159.729s71.518 159.729 159.729 159.729c88.21 0 159.729-71.518 159.729-159.729s-71.518-159.729-159.729-159.729zM399.952 721.488c0-44.108-35.756-79.864-79.864-79.864s-79.864 35.756-79.864 79.864c0 44.108 35.756 79.864 79.864 79.864s79.864-35.756 79.864-79.864z"/>
            <glyph unicode="&#xe81d;" glyph-name="edit"
                   d="M921.493 857.493c-46.719 46.869-108.101 70.288-169.603 70.288-61.382 0-122.764-23.419-169.603-70.288l-549.139-549.11-0.93-340.165h339.205l550.069 550.069c93.707 93.707 93.707 245.498 0 339.205zM321.767 88.164h-49.657v119.945h-119.256l0.12 50.377 514.115 514.205 169.603-169.603-514.925-514.925z"/>
            <glyph unicode="&#xe81e;" glyph-name="do"
                   d="M1024 384.992v128l-152.992 63.744c-4.256 12-8.736 23.616-14.24 35.008l61.76 153.76-90.528 90.496-152.384-62.752c-11.616 5.632-23.488 10.368-35.744 14.752l-64.864 152h-128l-63.264-151.488c-12.736-4.512-24.992-9.248-37.12-15.008l-152.128 61.12-90.496-90.496 62.016-150.752c-6.016-12.384-10.88-24.992-15.52-38.016l-150.496-64.352v-128l150.624-62.752c4.64-12.992 9.632-25.632 15.616-38.016l-60.864-151.744 90.496-90.496 151.136 62.24c12.128-5.76 24.512-10.368 37.248-14.752l64.736-151.488h128l63.36 152.256c12.128 4.512 24.128 9.248 35.616 14.752l153.504-61.504 90.496 90.496-63.008 152.736c5.376 11.488 9.76 23.136 14.016 35.008l153.024 65.248zM511.008 256c-105.984 0-192 86.016-192 192s86.016 192 192 192c105.984 0 192-86.016 192-192s-86.016-192-192-192z"/>
            <glyph unicode="&#xe81f;" glyph-name="importvv"
                   d="M542.562 958.759c107.322 0 204.871-18.668 279.8-51.7 37.465-16.516 69.493-36.584 94.2-62.3s42.4-59.251 42.4-96.4v-600.9c0-37.149-17.693-70.684-42.4-96.4s-56.736-45.784-94.2-62.3c-74.929-33.032-172.478-51.7-279.8-51.7-107.984 0-207.199 21.033-283.2 54.9-38.001 16.934-70.833 36.43-95.4 61.7-37.69 38.767-44.3 106.6-44.3 106.6l96-2.2c14.91-44.277 44.033-60.564 82.8-78.4 60.683-27.041 148.909-46.6 244.1-46.6 95.853 0 182.534 17.725 241 43.5 29.233 12.887 51.183 27.867 63.8 41s15.6 22.258 15.6 29.9v600.9c0 7.642-2.983 16.767-15.6 29.9s-34.567 28.113-63.8 41c-58.466 25.775-145.148 43.5-241 43.5s-184.388-17.751-244.7-43.7c-30.156-12.974-52.931-28.032-66.1-41.3s-16.1-22.345-16.1-29.4l-1.401-220.874-97.401-1.839 2.802 222.712c0.475 37.733 18.511 71.419 43.9 97s58.214 45.471 96.4 61.9c76.372 32.858 175.278 51.5 282.6 51.5zM364.9 595.1c-25.535-1.611-41.144-6.854-60.6-20.8-4.9-4.734-9.196-9.93-12.2-15.4-7.775-14.158-9.958-28.37-10.6-41.2-0.499-9.975 0.256-18.982 0.9-27.6-6.775-0.145-12.531-0.41-20.3-0.4-27.556 0.036-55.242 0.9-64.5 0.9v-0.1c-49.278 2.003-85.114 0.244-113.5-6.6-28.652-6.908-51.893-21.133-64.3-42.1s-12.959-42.848-12.3-62.7c0.659-19.852 2.919-39.302 2.9-59.1-0.020-20.61-1.646-36.721-1.5-52.7s3.059-36.955 19.2-51.8c16.141-14.845 35.157-17.849 57.9-19.7s51.691-1.649 92-0.8c35.085 0.739 70.897 0.222 106.8 0-0.029-2.778 0.036-4.697 0-7.6-0.128-10.313-0.259-21.090-0.2-30.3s-1.499-12.141 1.8-25.5c7.529-30.508 34.483-43.097 57.6-47.5 23.051-4.39 48.227-2.612 70.4 13.2 0.061 0.043 0.139 0.057 0.2 0.1 37.091 26.224 77.070 55.135 109.5 78.3 35.2 25.139 70.399 50.257 105.6 75.4 7.291 5.206 19.323 12.368 31.6 20.8s25.425 17.599 35.6 33.6c7.576 11.923 11.539 27.097 9.6 40.9s-8.589 24.531-15.4 32.6c-13.622 16.139-29.301 25.238-40.4 33.2-34.086 24.449-68.21 48.952-102.3 73.4-33.537 24.046-67.052 48.146-100.6 72.2-0.019 0.013-0.082-0.013-0.1 0-10.609 7.622-23.791 19.433-42.8 28.4-11.241 5.303-25.076 8.459-40 8.9zM131 424.9h67.7l40.7-90.4 40.9 90.4h67.3l-88.6-176.3h-40.2l-87.8 176.3zM356.3 424.9h67.7l40.7-90.4 40.9 90.4h67.3l-88.6-176.3h-40.1l-87.9 176.3zM82.8 291c6.113 0 11.321-2.23 15.6-6.6s6.4-9.667 6.4-16c0-6.333-2.121-11.767-6.4-16.2s-9.487-6.6-15.6-6.6c-6.357 0-11.66 2.167-16 6.6s-6.5 9.867-6.5 16.2c0 6.333 2.16 11.63 6.5 16s9.643 6.6 16 6.6z"/>
            <glyph unicode="&#xe820;" glyph-name="importldap"
                   d="M542.562 958.759c107.322 0 204.871-18.668 279.8-51.7 37.465-16.516 69.493-36.584 94.2-62.3s42.4-59.251 42.4-96.4v-600.9c0-37.149-17.693-70.684-42.4-96.4s-56.736-45.784-94.2-62.3c-74.929-33.032-172.478-51.7-279.8-51.7-107.984 0-207.199 21.033-283.2 54.9-38.001 16.934-70.833 36.43-95.4 61.7-37.69 38.767-44.3 106.6-44.3 106.6l96-2.2c14.91-44.277 44.033-60.564 82.8-78.4 60.683-27.041 148.909-46.6 244.1-46.6 95.853 0 182.534 17.725 241 43.5 29.233 12.887 51.183 27.867 63.8 41s15.6 22.258 15.6 29.9v600.9c0 7.642-2.983 16.767-15.6 29.9s-34.567 28.113-63.8 41c-58.466 25.775-145.148 43.5-241 43.5s-184.388-17.751-244.7-43.7c-30.156-12.974-52.931-28.032-66.1-41.3s-16.1-22.345-16.1-29.4l-1.401-220.874-97.401-1.839 2.802 222.712c0.475 37.733 18.511 71.419 43.9 97s58.214 45.471 96.4 61.9c76.372 32.858 175.278 51.5 282.6 51.5zM364.9 595.1c-25.535-1.611-41.144-6.854-60.6-20.8-4.9-4.734-9.196-9.93-12.2-15.4-7.775-14.158-9.958-28.37-10.6-41.2-0.499-9.975 0.256-18.982 0.9-27.6-6.775-0.145-12.531-0.41-20.3-0.4-27.556 0.036-55.242 0.9-64.5 0.9v-0.1c-49.278 2.003-85.114 0.244-113.5-6.6-28.652-6.908-51.893-21.133-64.3-42.1s-12.959-42.848-12.3-62.7c0.659-19.852 2.919-39.302 2.9-59.1-0.020-20.61-1.646-36.721-1.5-52.7s3.059-36.955 19.2-51.8c16.141-14.845 35.157-17.849 57.9-19.7s51.691-1.649 92-0.8c35.085 0.739 70.897 0.222 106.8 0-0.029-2.778 0.036-4.697 0-7.6-0.128-10.313-0.259-21.090-0.2-30.3s-1.499-12.141 1.8-25.5c7.529-30.508 34.483-43.097 57.6-47.5 23.051-4.39 48.227-2.612 70.4 13.2 0.061 0.043 0.139 0.057 0.2 0.1 37.091 26.224 77.070 55.135 109.5 78.3 35.2 25.139 70.399 50.257 105.6 75.4 7.291 5.206 19.323 12.368 31.6 20.8s25.425 17.599 35.6 33.6c7.576 11.923 11.539 27.097 9.6 40.9s-8.589 24.531-15.4 32.6c-13.622 16.139-29.301 25.238-40.4 33.2-34.086 24.449-68.21 48.952-102.3 73.4-33.537 24.046-67.052 48.146-100.6 72.2-0.019 0.013-0.082-0.013-0.1 0-10.609 7.622-23.791 19.433-42.8 28.4-11.241 5.303-25.076 8.459-40 8.9zM169 420h61c13.757 0 24.283-1.095 31.5-3.2 9.698-2.857 17.984-7.908 24.9-15.2s12.191-16.238 15.8-26.8c3.608-10.563 5.4-23.514 5.4-39 0-13.607-1.717-25.352-5.1-35.2-4.135-12.028-10.032-21.757-17.7-29.2-5.789-5.638-13.652-10.043-23.5-13.2-7.368-2.331-17.171-3.5-29.5-3.5h-62.8v165.3zM383.6 420h35.3l66.2-165.3h-36.3l-14.5 37.5h-66.1l-13.6-37.5h-35.4l64.4 165.3zM502.9 420h53.5c20.298 0 33.535-0.846 39.7-2.5 9.472-2.481 17.41-7.893 23.8-16.2s9.6-19.044 9.6-32.2c0-10.149-1.816-18.684-5.5-25.6s-8.324-12.253-14-16.2c-5.676-3.947-11.536-6.622-17.4-7.9-7.969-1.579-19.489-2.4-34.6-2.4h-21.7v-62.3h-33.4v165.3zM28.8 418.7h33.4v-136.2h83v-27.8h-116.4v164zM202.4 392v-109.5h24.9c9.322 0 16.065 0.547 20.2 1.6 5.413 1.353 9.829 3.667 13.4 6.9s6.545 8.595 8.8 16c2.255 7.405 3.4 17.42 3.4 30.2s-1.145 22.659-3.4 29.5c-2.255 6.841-5.441 12.166-9.5 16s-9.16 6.447-15.4 7.8c-4.661 1.052-13.793 1.5-27.4 1.5h-15zM536.3 392v-46.9h18.2c13.156 0 21.964 0.871 26.4 2.6s7.981 4.416 10.5 8.1c2.518 3.684 3.7 8.013 3.7 12.9 0 6.014-1.767 10.991-5.3 14.9s-7.987 6.323-13.4 7.3c-3.984 0.752-11.972 1.1-24 1.1h-16.1zM400.8 381.4l-22.3-61.3h45.1l-22.8 61.3z"/>
            <glyph unicode="&#xe821;" glyph-name="importcsv"
                   d="M542.562 958.759c107.322 0 204.871-18.668 279.8-51.7 37.465-16.516 69.493-36.584 94.2-62.3s42.4-59.251 42.4-96.4v-600.9c0-37.149-17.693-70.684-42.4-96.4s-56.736-45.784-94.2-62.3c-74.929-33.032-172.478-51.7-279.8-51.7-107.984 0-207.199 21.033-283.2 54.9-38.001 16.934-70.833 36.43-95.4 61.7-37.69 38.767-44.3 106.6-44.3 106.6l96-2.2c14.91-44.277 44.033-60.564 82.8-78.4 60.683-27.041 148.909-46.6 244.1-46.6 95.853 0 182.534 17.725 241 43.5 29.233 12.887 51.183 27.867 63.8 41s15.6 22.258 15.6 29.9v600.9c0 7.642-2.983 16.767-15.6 29.9s-34.567 28.113-63.8 41c-58.466 25.775-145.148 43.5-241 43.5s-184.388-17.751-244.7-43.7c-30.156-12.974-52.931-28.032-66.1-41.3s-16.1-22.345-16.1-29.4l-1.401-220.874-97.401-1.839 2.802 222.712c0.475 37.733 18.511 71.419 43.9 97s58.214 45.471 96.4 61.9c76.372 32.858 175.278 51.5 282.6 51.5zM304.3 574.3c-4.9-4.734-9.196-9.93-12.2-15.4-7.775-14.158-9.958-28.37-10.6-41.2-0.499-9.975 0.256-18.982 0.9-27.6-6.775-0.145-12.531-0.41-20.3-0.4-27.556 0.036-55.242 0.9-64.5 0.9v-0.1c-49.278 2.003-85.114 0.244-113.5-6.6-28.652-6.908-51.893-21.133-64.3-42.1s-12.959-42.848-12.3-62.7c0.659-19.852 2.919-39.302 2.9-59.1-0.020-20.61-1.646-36.721-1.5-52.7s3.059-36.955 19.2-51.8c16.141-14.845 35.157-17.849 57.9-19.7s51.691-1.649 92-0.8c35.085 0.739 70.897 0.222 106.8 0-0.029-2.778 0.036-4.697 0-7.6-0.128-10.313-0.259-21.090-0.2-30.3s-1.499-12.141 1.8-25.5c7.529-30.508 34.483-43.097 57.6-47.5 23.051-4.39 48.227-2.612 70.4 13.2 0.061 0.043 0.139 0.057 0.2 0.1 37.091 26.224 77.070 55.135 109.5 78.3 35.2 25.139 70.399 50.257 105.6 75.4 7.291 5.206 19.323 12.368 31.6 20.8s25.425 17.599 35.6 33.6c7.576 11.923 11.539 27.097 9.6 40.9s-8.589 24.531-15.4 32.6c-13.622 16.139-29.301 25.238-40.4 33.2-34.086 24.449-68.21 48.952-102.3 73.4-33.537 24.046-67.052 48.146-100.6 72.2-0.019 0.013-0.082-0.013-0.1 0-10.609 7.622-23.791 19.433-42.8 28.4-11.241 5.303-25.076 8.459-40 8.9-25.535-1.611-41.144-6.854-60.6-20.8z"/>
            <glyph unicode="&#xe822;"
                   d="M705.731 874.127l-97.844-0.656 1.823-286.47 97.844 0.656-1.823 286.47zM608.106 566.731l-0.583-540.129 97.917-0.146 0.51 540.202-97.844 0.073z"/>
            <glyph unicode="&#xe823;" glyph-name="organize"
                   d="M145.384 955.688c-54.143 0-96.795-42.652-96.795-96.795s42.652-99.215 96.795-99.215c54.143 0 99.215 45.072 99.215 99.215s-45.072 96.795-99.215 96.795zM145.384 902.451c24.848 0 45.978-18.709 45.978-43.558s-21.129-45.978-45.978-45.978c-24.848 0-43.558 21.129-43.558 45.978s18.709 43.558 43.558 43.558zM497.804 686.468c-54.143 0-96.795-42.652-96.795-96.795s42.652-99.215 96.795-99.215c54.143 0 99.215 45.072 99.215 99.215s-45.072 96.795-99.215 96.795zM497.804 633.23c24.848 0 45.978-18.709 45.978-43.558s-21.129-45.978-45.978-45.978c-24.848 0-43.558 21.129-43.558 45.978s18.709 43.558 43.558 43.558zM497.804 410.847c-54.143 0-96.795-42.652-96.795-96.795s42.652-99.215 96.795-99.215c54.143 0 99.215 45.072 99.215 99.215s-45.072 96.795-99.215 96.795zM497.804 357.61c24.848 0 45.978-18.709 45.978-43.558s-21.129-45.978-45.978-45.978c-24.848 0-43.558 21.129-43.558 45.978s18.709 43.558 43.558 43.558zM497.804 135.227c-54.143 0-96.795-42.652-96.795-96.795s42.652-99.215 96.795-99.215c54.143 0 99.215 45.072 99.215 99.215s-45.072 96.795-99.215 96.795zM497.804 81.99c24.848 0 45.978-18.709 45.978-43.558s-21.129-45.978-45.978-45.978c-24.848 0-43.558 21.129-43.558 45.978s18.709 43.558 43.558 43.558zM93.698 731.643v-742.823h295.643v88.105h-186.901v191.822h183.503v88.105h-183.503v187.515h183.503v88.105h-183.503v99.171zM885.214 307.314l-84.738-91.615 91.615-84.738-264.53-10.316-10.316 264.53 91.615-84.738 84.738 91.615c64.164 74.514-4.425 154.757-82.425 185.967-13.536 3.055-23.668 7.521-37.557 6.334 35.316 16.014 76.258 21.286 117.312 12.020 94.081-21.235 159.296-116.303 137.044-211.752-6.95-29.812-22.183-56.371-42.759-77.307zM413.451 52.824c0.042-0.082 0.046-0.095 0.115-0.229-0.051 0.101-0.070 0.142-0.115 0.229z"/>
            <glyph unicode="&#xe824;" d="M914.98 355.506l-807.615-2.771 0.365-97.847 807.615 2.698-0.365 97.92z"/>
            <glyph unicode="&#xe825;"
                   d="M419.708 874.929l-97.844-0.656 1.823-288.292 97.844 0.583-1.823 288.365zM322.083 565.565l-0.583-543.702 97.917-0.073 0.51 543.702-97.844 0.073z"/>
            <glyph unicode="&#xe826;" d="M924.823 638.622l-812.354-2.698 0.365-97.847 812.281 2.698-0.292 97.847z"/>
            <glyph unicode="&#xe827;" d="M324.999 857.503l-1.021-262.773 97.844-0.365 1.021 262.773-97.844 0.365z"/>
            <glyph unicode="&#xe828;"
                   d="M185.524 922.977c-81.179 0-148.079-66.902-148.079-148.083v-658.1c0-81.182 66.9-148.083 148.079-148.083h658.078c81.179 0 148.079 66.902 148.079 148.083v658.1c0 81.182-66.9 148.083-148.079 148.083h-658.078zM185.524 825.13h658.078c28.655 0 50.234-21.58 50.234-50.236v-658.1c0-28.656-21.579-50.236-50.234-50.236h-658.078c-28.655 0-50.234 21.58-50.234 50.236v658.1c0 28.656 21.579 50.236 50.234 50.236z"/>
            <glyph unicode="&#xe829;"
                   d="M184.667 678.295h31.912v114.145l-34.717-7.216v18.44l34.523 7.215h19.534v-132.585h31.912v-17.037h-83.165v17.037z"/>
            <glyph unicode="&#xe82a;"
                   d="M208.703 386.627h78.4v-17.049h-105.423v17.049c8.526 7.956 20.128 18.62 34.807 31.991 14.753 13.438 24.020 22.096 27.801 25.974 7.191 7.287 12.195 13.438 15.013 18.453 2.891 5.081 4.337 10.062 4.337 14.943 0 7.956-3.114 14.441-9.341 19.456-6.153 5.014-14.197 7.521-24.132 7.521-7.043 0-14.494-1.103-22.352-3.309-7.784-2.206-16.125-5.549-25.021-10.029v20.458c9.045 3.276 17.496 5.75 25.355 7.421s15.050 2.507 21.574 2.507c17.2 0 30.915-3.878 41.146-11.633s15.346-18.118 15.346-31.089c0-6.151-1.298-12.001-3.892-17.55-2.521-5.482-7.154-11.968-13.901-19.456-1.854-1.939-7.747-7.555-17.682-16.848-9.934-9.226-23.946-22.163-42.036-38.811z"/>
            <glyph unicode="&#xe82b;"
                   d="M255.506 169.356c10.68-2.283 19.003-7.034 24.969-14.252 6.040-7.218 9.060-16.131 9.060-26.737 0-16.278-5.598-28.873-16.794-37.786s-27.106-13.369-47.729-13.369c-6.924 0-14.068 0.7-21.434 2.099-7.292 1.326-14.842 3.351-22.649 6.077v21.544c6.187-3.609 12.963-6.334 20.329-8.176s15.063-2.762 23.091-2.762c13.995 0 24.638 2.762 31.93 8.286 7.366 5.524 11.048 13.553 11.048 24.086 0 9.723-3.425 17.309-10.275 22.76-6.776 5.524-16.241 8.286-28.394 8.286h-19.224v18.34h20.108c10.975 0 19.371 2.173 25.19 6.519 5.819 4.419 8.728 10.754 8.728 19.003 0 8.47-3.020 14.952-9.060 19.445-5.966 4.567-14.547 6.85-25.743 6.85-6.114 0-12.669-0.663-19.666-1.989s-14.694-3.388-23.091-6.187v19.887c8.47 2.357 16.388 4.125 23.754 5.303 7.439 1.178 14.437 1.768 20.992 1.768 16.941 0 30.346-3.867 40.216-11.601 9.87-7.66 14.805-18.046 14.805-31.157 0-9.133-2.615-16.867-7.844-23.202-5.23-6.261-12.669-10.607-22.318-13.037z"/>
            <glyph unicode="&#xe82c;" glyph-name="takeownership"
                   d="M382 962c-106.222 0-192-86.778-192-193s85.778-192 192-192c106.222 0 192 85.778 192 192s-85.778 193-192 193zM382 449c-212.367 0-385-172.633-385-385 0-70.874 58.127-127.583 129-128l449-2.643c73.333 2.87 106.359-5.615 104 26.745-33.962 0-103.885 0.715-137.84 0-117.876-2.482-106.395 107.066-106.331 172.183 0.061 65.117 36.372 179.769 178.89 173.799 7.116 0 24.903 0.109 47.574 1.321-52.313 83.886-125.614 141.594-279.293 141.594zM752.515 215.071c0-4.696-92.641-2.239-102.243-2.239-142.518 5.97-114.042-36.811-114.104-101.928-0.064-65.117-18.672-70.861 99.204-68.379 33.955 0.715 82.522 0 116.484 0 2.069 0 2.547-76.482 2.547-76.482l236.603 157.452-237.35 168.4c0 0-1.141-57.89-1.141-76.824z"/>
            <glyph unicode="&#xe82d;" glyph-name="defaultanswers"
                   d="M702.5 928l-63-0.4 2-320.9 63 0.4-2 320.9zM639.8 583.8l-0.7-605.1 31.5-0.1h31.5l0.6 605.1-62.9 0.1zM382 928.9l-63-0.4 2.1-323 63 0.4-2.1 323zM319.3 582.5l-0.6-609.1 63-0.1 0.6 609.1-63 0.1zM960.3 323.4l-904.8-3.1 0.2-62.1 904.8 3.1-0.2 62.1zM971.3 641.9l-910-3.1 0.2-64.6 910 3-0.2 64.7zM148.6 958.9c-81.648 0-148.6-66.952-148.6-148.6v-725.3c0-81.648 66.952-148.6 148.6-148.6h726.4c81.648 0 148.6 66.952 148.6 148.6v725.3c0 81.648-66.952 148.6-148.6 148.6h-726.4zM148.6 880.2h726.4c39.389 0 69.8-30.511 69.8-69.9v-725.3c0-39.389-30.411-69.8-69.8-69.8h-726.4c-39.389 0-69.9 30.411-69.9 69.8v725.3c0 39.389 30.511 69.9 69.9 69.9zM274.755 643.252l-21.116 56.762h-90.715l-21.116-56.762h-49.834l86.83 222.159h58.788l86.492-222.159h-49.328zM219.008 798.874c-1.352 3.679-2.703 7.358-4.054 11.037-1.239 3.784-2.365 7.2-3.379 10.249-0.901 3.153-1.689 5.729-2.365 7.726-0.563 1.997-0.901 3.101-1.014 3.311-0.113-0.316-0.451-1.472-1.014-3.469s-1.352-4.52-2.365-7.568c-0.901-3.048-2.027-6.465-3.379-10.249-1.239-3.679-2.534-7.358-3.885-11.037l-23.481-63.857h68.417l-23.481 63.857zM511.089 574.938c-70.064 0-127.056-56.992-127.056-127.056s56.992-127.056 127.056-127.056c70.064 0 127.056 56.992 127.056 127.056s-56.992 127.056-127.056 127.056zM511.089 554.883c59.202 0 107-47.799 107-107s-47.799-107-107-107c-59.202 0-107 47.799-107 107s47.799 107 107 107zM603.2 448c0-50.368-40.832-91.2-91.2-91.2s-91.2 40.832-91.2 91.2c0 50.368 40.832 91.2 91.2 91.2s91.2-40.832 91.2-91.2zM912.3 256.7c-10.68-0.173-19.905-6.232-24.59-15.068l-79.71-145.232-54.8 61.9c-5.231 6.27-13.047 10.231-21.788 10.231-15.638 0-28.316-12.677-28.316-28.316 0-7.521 2.933-14.358 7.717-19.429l81.387-91.986c5.212-5.868 12.777-9.547 21.202-9.547 10.623 0 19.88 5.85 24.725 14.504l99.174 180.643c2.324 4.020 3.696 8.843 3.696 13.987 0 15.638-12.677 28.316-28.316 28.316-0.133 0-0.267-0.001-0.4-0.003z"/>
            <glyph unicode="&#xe82e;" glyph-name="templatepermissions"
                   d="M360.991 239.841c0 66.434-53.875 120.189-120.189 120.189-66.434 0-120.189-53.754-120.189-120.189v-0.24c0-88.85-48.346-166.311-120.189-207.867l0.481-0.361c35.215-20.282 76.050-31.91 119.708-31.91 132.749 0 240.378 107.629 240.378 240.378v0zM926.66 925.759c-46.934 46.934-123.013 46.934-169.947 0l-454.404-454.464c82.87-22.175 147.892-87.077 169.947-170.067l454.404 454.584c46.964 46.934 46.964 123.013 0 169.947zM799.845 534.851c-102.994 0-186.885-83.816-186.885-186.922v-37.384h-37.497v-261.691c0-61.778 50.375-112.153 112.116-112.153h224.344c61.909 0 119.816 50.853 112.153 112.153l0.42 256.811-35.087 4.485-2.717 37.779c-7.396 102.841-83.816 186.922-186.847 186.922zM687.729 347.929c0 61.909 50.338 112.153 112.116 112.153 61.834 0 112.078-50.245 112.078-112.153v-37.384h-224.194zM911.923 11.469h-224.344c-20.599 0-37.384 16.786-37.384 37.384v186.922h299.113v-186.922c0-20.599-16.655-37.384-37.384-37.384zM837.229 123.622c0-20.599-16.786-37.384-37.384-37.384-20.73 0-37.384 16.786-37.384 37.384 0 20.73 16.655 37.384 37.384 37.384 20.58 0 37.384-16.655 37.384-37.384z"/>
            <glyph unicode="&#xe82f;" glyph-name="superadmin"
                   d="M384 576h-384l316-243.008-124-396.992 320.512 245.76 319.744-245.76-123.872 396 315.616 244h-384l-128 384z"/>
            <glyph unicode="&#xe830;" glyph-name="cpdb"
                   d="M504 444c-123.603 0-224-100.397-224-224 0-46.993 38.007-86 85-86h278c46.993 0 85 39.007 85 86 0 123.603-100.397 224-224 224zM504 412c106.295 0 192-85.705 192-192 0-29.732-23.268-54-53-54h-278c-29.732 0-53 24.268-53 54 0 106.295 85.705 192 192 192zM503.919 714.001c-62.184 0-112.78-50.596-112.78-112.78s50.596-112.78 112.78-112.78c62.184 0 112.78 50.596 112.78 112.78s-50.596 112.78-112.78 112.78zM503.919 696.65c52.807 0 95.429-42.622 95.429-95.429s-42.622-95.429-95.429-95.429c-52.807 0-95.429 42.622-95.429 95.429s42.622 95.429 95.429 95.429zM508 961c-116.556 0-222.145-18.224-304-51-40.927-16.388-76.055-36.581-104-63s-50-63.199-50-105v-592c0-41.801 22.055-78.581 50-105s63.073-45.612 104-62c81.855-32.776 187.444-51 304-51s224.609 18.413 308 51c41.695 16.294 77.339 35.771 106 62s52 62.413 52 105v592c0 42.586-23.339 79.771-52 106s-64.305 45.706-106 62c-83.391 32.587-191.444 51-308 51zM508 844c103.903 0 200.078-17.63 265-43 32.461-12.685 56.823-26.941 70-39s14-18.442 14-20v-592c0-1.557-0.823-6.941-14-19s-37.539-27.315-70-40c-64.922-25.37-161.097-43-265-43s-197.112 17.819-260 43c-31.444 12.591-55.445 27.131-68 39s-13 17.657-13 20v592c0 2.343 0.445 8.131 13 20s36.556 26.409 68 39c62.888 25.181 156.097 43 260 43z"/>
            <glyph unicode="&#xe831;" glyph-name="invite"
                   d="M1024 704h-1024v-124.992l514.496-241.632 509.504 241.248zM0 438v-502h1024v172c-0.586-1.329-1.119-2.614-2-4-8.828-13.879-32.411-26.586-47-37-28.029-20.015-55.97-39.987-84-60-25.941-18.525-57.564-41.195-87-62-19.271-13.819-57.111-6.804-62 13-2.033 8.231 0.241 90-2 90-36.77 0-73.238 0.774-110 0-127.622-2.687-107.067-17.483-107 53s-31.301 96.462 123 90c10.396 0 95-3.083 95 2 0 20.495-13.464 90.084 20 100 31.816 9.427 50.591-9.074 70-23 26.727-19.158 53.273-37.842 80-57 27.146-19.463 53.858-39.537 81-59 12.015-8.616 26.43-17.081 32-28v311l-509-241-515 242z"/>
            <glyph unicode="&#xe832;" glyph-name="import"
                   d="M542.562 958.759c107.322 0 204.871-18.668 279.8-51.7 37.465-16.516 69.493-36.584 94.2-62.3s42.4-59.251 42.4-96.4v-600.9c0-37.149-17.693-70.684-42.4-96.4s-56.736-45.784-94.2-62.3c-74.929-33.032-172.478-51.7-279.8-51.7-107.984 0-207.199 21.033-283.2 54.9-38.001 16.934-70.833 36.43-95.4 61.7-37.69 38.767-44.3 106.6-44.3 106.6l96-2.2c14.91-44.277 44.033-60.564 82.8-78.4 60.683-27.041 148.909-46.6 244.1-46.6 95.853 0 182.534 17.725 241 43.5 29.233 12.887 51.183 27.867 63.8 41s15.6 22.258 15.6 29.9v600.9c0 7.642-2.983 16.767-15.6 29.9s-34.567 28.113-63.8 41c-58.466 25.775-145.148 43.5-241 43.5s-184.388-17.751-244.7-43.7c-30.156-12.974-52.931-28.032-66.1-41.3s-16.1-22.345-16.1-29.4l-1.401-220.874-97.401-1.839 2.802 222.712c0.475 37.733 18.511 71.419 43.9 97s58.214 45.471 96.4 61.9c76.372 32.858 175.278 51.5 282.6 51.5zM341.708 560.602c-42.024-12.457-25.014-73.296-25.014-99.040 0-6.385-106.107-3.044-119.162-3.044-193.774 8.117-155.057-50.050-155.141-138.586s-25.387-96.346 134.883-92.972c46.166 0.972 92.348 0 138.525 0 2.814 0-0.895-77.406 1.658-87.745 6.139-24.877 54.234-33.167 78.435-15.808 36.966 26.134 77.020 55.010 109.597 78.28 35.2 25.139 70.391 50.271 105.591 75.413 18.322 13.082 47.67 28.078 58.756 45.512 17.696 27.849-13.685 46.262-37.826 63.579-34.085 24.448-68.18 48.9-102.27 73.348-33.565 24.065-67.116 48.137-100.68 72.202-24.374 17.493-47.396 40.701-87.351 28.86z"/>
            <glyph unicode="&#xe833;" glyph-name="minimize"
                   d="M142.781 911.086c-51.671-2.602-92.495-45.184-92.495-97.524v-733.105c0-54.028 43.496-97.524 97.524-97.524h728.838c54.028 0 97.524 43.496 97.524 97.524v733.105c0 54.028-43.496 97.524-97.524 97.524h-728.838c-1.688 0-3.362 0.084-5.029 0zM219.429 716.19h585.143c27.014 0 48.762-21.748 48.762-48.762v-97.524c0-27.014-21.748-48.762-48.762-48.762h-585.143c-27.014 0-48.762 21.748-48.762 48.762v97.524c0 27.014 21.748 48.762 48.762 48.762z"/>
            <glyph unicode="&#xe834;" glyph-name="maximize"
                   d="M142.019 911.39c-51.749-2.602-92.648-45.184-92.648-97.524v-733.105c0-54.028 43.566-97.524 97.676-97.524h729.905c54.11 0 97.676 43.496 97.676 97.524v733.105c0 54.028-43.566 97.524-97.676 97.524h-729.905c-1.691 0-3.359 0.084-5.029 0zM219.124 770.895h585.752c27.038 0 48.762-22.299 48.762-50.133v-100.571c0-3.044-0.263-5.946-0.762-8.838v-424.076c0-52.673-42.187-99.352-96.305-99.352h-488.686c-54.118 0-96.305 46.679-96.305 99.352v422.095c-0.75 3.512-1.219 7.069-1.219 10.819v100.571c0 27.835 21.723 50.133 48.762 50.133zM267.581 569.905v-382.629c0-2.616 0.187-3.229 0.305-3.352 0.147 0 0.153 0.013 0.152 0h488.533c0.118 0.124 0.305 0.737 0.305 3.352v382.629h-489.295z"/>
            <glyph unicode="&#xe835;" glyph-name="import2"
                   d="M542.562 958.759c107.322 0 204.871-18.668 279.8-51.7 37.465-16.516 69.493-36.584 94.2-62.3s42.4-59.251 42.4-96.4v-600.9c0-37.149-17.693-70.684-42.4-96.4s-56.736-45.784-94.2-62.3c-74.929-33.032-172.478-51.7-279.8-51.7-107.984 0-207.199 21.033-283.2 54.9-38.001 16.934-70.833 36.43-95.4 61.7-37.69 38.767-44.3 106.6-44.3 106.6l96-2.2c14.91-44.277 44.033-60.564 82.8-78.4 60.683-27.041 148.909-46.6 244.1-46.6 95.853 0 182.534 17.725 241 43.5 29.233 12.887 51.183 27.867 63.8 41s15.6 22.258 15.6 29.9v600.9c0 7.642-2.983 16.767-15.6 29.9s-34.567 28.113-63.8 41c-58.466 25.775-145.148 43.5-241 43.5s-184.388-17.751-244.7-43.7c-30.156-12.974-52.931-28.032-66.1-41.3s-16.1-22.345-16.1-29.4l-1.401-220.874-97.401-1.839 2.802 222.712c0.475 37.733 18.511 71.419 43.9 97s58.214 45.471 96.4 61.9c76.372 32.858 175.278 51.5 282.6 51.5zM341.708 560.602c-42.024-12.457-25.014-73.296-25.014-99.040 0-6.385-106.107-3.044-119.162-3.044-193.774 8.117-155.057-50.050-155.141-138.586s-25.387-96.346 134.883-92.972c46.166 0.972 92.348 0 138.525 0 2.814 0-0.895-77.406 1.658-87.745 6.139-24.877 54.234-33.167 78.435-15.808 36.966 26.134 77.020 55.010 109.597 78.28 35.2 25.139 70.391 50.271 105.591 75.413 18.322 13.082 47.67 28.078 58.756 45.512 17.696 27.849-13.685 46.262-37.826 63.579-34.085 24.448-68.18 48.9-102.27 73.348-33.565 24.065-67.116 48.137-100.68 72.202-24.374 17.493-47.396 40.701-87.351 28.86z"/>
            <glyph unicode="&#xe836;" glyph-name="dataforward"
                   d="M512-64c-282.752 0-512 229.248-512 511.936 0 282.816 229.248 512.064 512 512.064s512-229.248 512-512.064c0-282.688-229.248-511.936-512-511.936zM512.992 704v-192.064h-256.992v-127.936h256.992v-191.008l255.008 254.944-255.008 256.064z"/>
            <glyph unicode="&#xe837;" glyph-name="dataend"
                   d="M512 960c-282.752 0-512-229.184-512-512 0-282.688 229.248-512 512-512s512 229.312 512 512c0 282.816-229.248 512-512 512zM475 704l253-256v255h77v-508h-77v251l-253-254v192h-256v127h256v193zM728 446l1 1-1 1v-2z"/>
            <glyph unicode="&#xe838;" glyph-name="databegin"
                   d="M512 960c-282.752 0-512-229.184-512-512 0-282.688 229.248-512 512-512s512 229.312 512 512c0 282.816-229.248 512-512 512zM549 704v-193h256v-127h-256v-192l-253 252v-249h-77v508h77v-253l253 254zM296 450l-3-3 3-3v6z"/>
            <glyph unicode="&#xe839;" glyph-name="databack"
                   d="M512-64c282.752 0 512 229.248 512 511.936 0 282.816-229.248 512.064-512 512.064s-512-229.248-512-512.064c0-282.688 229.248-511.936 512-511.936zM511.008 704v-192.064h256.992v-127.936h-256.992v-191.008l-255.008 254.944 255.008 256.064z"/>
            <glyph unicode="&#xe83a;" glyph-name="viewlast"
                   d="M128 467.046v-531.419h768v531.419l-128.109 109.327-89.149-109.327-73.215 108.764-98.736-108.764-90.791 108.2-80.066-108.2-81.226 109.038zM256 63.627l-1.291 403.419 81.226-108.896 82.386 108.896 88.471-108.896 98.736 108.896 73.215-108.896 89.149 108.896 0.109-403.419z"/>
            <glyph unicode="&#xe83b;"
                   d="M705.731 874.127l-97.844-0.656 1.823-286.47 97.844 0.656-1.823 286.47zM608.106 566.731l-0.583-540.129 97.917-0.146 0.51 540.202-97.844 0.073z"/>
            <glyph unicode="&#xe83c;" d="M914.98 355.506l-807.615-2.771 0.365-97.847 807.615 2.698-0.365 97.92z"/>
            <glyph unicode="&#xe83d;"
                   d="M419.708 874.929l-97.844-0.656 1.823-288.292 97.844 0.583-1.823 288.365zM322.083 565.565l-0.583-543.702 97.917-0.073 0.51 543.702-97.844 0.073z"/>
            <glyph unicode="&#xe83e;" d="M924.823 638.622l-812.354-2.698 0.365-97.847 812.281 2.698-0.292 97.847z"/>
            <glyph unicode="&#xe83f;" d="M324.999 857.503l-1.021-262.773 97.844-0.365 1.021 262.773-97.844 0.365z"/>
            <glyph unicode="&#xe840;"
                   d="M185.524 922.977c-81.179 0-148.079-66.902-148.079-148.083v-658.1c0-81.182 66.9-148.083 148.079-148.083h658.078c81.179 0 148.079 66.902 148.079 148.083v658.1c0 81.182-66.9 148.083-148.079 148.083h-658.078zM185.524 825.13h658.078c28.655 0 50.234-21.58 50.234-50.236v-658.1c0-28.656-21.579-50.236-50.234-50.236h-658.078c-28.655 0-50.234 21.58-50.234 50.236v658.1c0 28.656 21.579 50.236 50.234 50.236z"/>
            <glyph unicode="&#xe841;"
                   d="M184.667 678.295h31.912v114.145l-34.717-7.216v18.44l34.523 7.215h19.534v-132.585h31.912v-17.037h-83.165v17.037z"/>
            <glyph unicode="&#xe842;"
                   d="M486.869 677.181h78.4v-17.049h-105.423v17.049c8.526 7.956 20.128 18.62 34.807 31.991 14.753 13.438 24.020 22.096 27.801 25.974 7.191 7.287 12.195 13.438 15.013 18.453 2.891 5.081 4.337 10.062 4.337 14.943 0 7.956-3.114 14.441-9.341 19.456-6.153 5.014-14.197 7.521-24.132 7.521-7.043 0-14.494-1.103-22.352-3.309-7.784-2.206-16.125-5.549-25.021-10.029v20.458c9.045 3.276 17.496 5.75 25.355 7.421s15.050 2.507 21.574 2.507c17.2 0 30.915-3.878 41.146-11.633s15.346-18.118 15.346-31.089c0-6.151-1.298-12.001-3.892-17.55-2.521-5.482-7.154-11.968-13.901-19.456-1.854-1.939-7.747-7.555-17.682-16.848-9.934-9.226-23.946-22.163-42.036-38.811z"/>
            <glyph unicode="&#xe843;"
                   d="M818.595 736.949c10.68-2.283 19.003-7.034 24.969-14.252 6.040-7.218 9.060-16.131 9.060-26.737 0-16.278-5.598-28.873-16.794-37.786s-27.106-13.369-47.729-13.369c-6.924 0-14.068 0.7-21.434 2.099-7.292 1.326-14.842 3.351-22.649 6.077v21.544c6.187-3.609 12.963-6.334 20.329-8.176s15.063-2.762 23.091-2.762c13.995 0 24.638 2.762 31.93 8.286 7.366 5.524 11.048 13.553 11.048 24.086 0 9.723-3.425 17.309-10.275 22.76-6.776 5.524-16.241 8.286-28.394 8.286h-19.224v18.34h20.108c10.975 0 19.371 2.173 25.19 6.519 5.819 4.419 8.728 10.754 8.728 19.003 0 8.47-3.020 14.952-9.060 19.445-5.966 4.567-14.547 6.85-25.743 6.85-6.114 0-12.669-0.663-19.666-1.989s-14.694-3.388-23.091-6.187v19.887c8.47 2.357 16.388 4.125 23.754 5.303 7.439 1.178 14.437 1.768 20.992 1.768 16.941 0 30.346-3.867 40.216-11.601 9.87-7.66 14.805-18.046 14.805-31.157 0-9.133-2.615-16.867-7.844-23.202-5.23-6.261-12.669-10.607-22.318-13.037z"/>
            <glyph unicode="&#xe844;" glyph-name="token_manage"
                   d="M2.363-9.11v181.153c0 27.463 19.77 49.726 44.157 49.726h489.261c24.387 0 44.157-22.263 44.157-49.726v-181.153c0-27.463-19.77-49.726-44.157-49.726h-489.261c-24.387 0-44.157 22.263-44.157 49.726zM549.383 360.227v181.153c0 27.463 16.198 49.726 36.178 49.726h400.858c19.981 0 36.178-22.263 36.178-49.726v-181.153c0-27.463-16.198-49.726-36.178-49.726h-400.858c-19.981 0-36.178 22.263-36.178 49.726zM0.962 729.123v181.153c0 27.463 19.77 49.726 44.157 49.726h489.261c24.387 0 44.157-22.263 44.157-49.726v-181.153c0-27.463-19.77-49.726-44.157-49.726h-489.261c-24.387 0-44.157 22.263-44.157 49.726zM338.194 579.445c-26.972-7.742-16.054-73.436-16.054-89.436 0-3.968-106.501-1.892-114.88-1.892-119.415-1.558-80.318 25.065-80.372-44.817s-38.568-43.778 82.453-43.331c29.636 0.109 82.588 0 112.224 0 1.806 0-0.575-75.991 1.064-82.417 3.94-15.461 15.608-20.613 31.14-9.825 23.725 16.242 49.432 34.189 70.341 48.651 22.592 15.624 45.178 31.244 67.77 46.869 11.759 8.13 30.595 17.45 37.711 28.286 11.357 17.308-8.783 28.752-24.278 39.514-21.876 15.195-43.759 30.391-65.638 45.586-21.542 14.957-43.076 29.917-64.618 44.874-15.644 10.872-11.219 25.296-36.863 17.937zM198.798 304.020c26.972 7.742 16.054 73.436 16.054 89.436 0 3.968 106.501 1.892 114.88 1.892 119.415 1.558 80.318-25.065 80.372 44.817s38.568 43.778-82.453 43.331c-29.636-0.109-82.588 0-112.224 0-1.806 0 0.575 75.991-1.064 82.417-3.94 15.461-15.608 20.613-31.14 9.825-23.725-16.242-49.432-34.189-70.341-48.651-22.592-15.624-45.178-31.244-67.77-46.869-11.759-8.13-30.595-17.45-37.711-28.286-11.357-17.308 8.783-28.752 24.278-39.514 21.876-15.195 43.759-30.391 65.638-45.586 21.542-14.957 43.076-29.917 64.618-44.874 15.644-10.872 11.219-25.296 36.863-17.937z"/>
            <glyph unicode="&#xe845;" glyph-name="remind"
                   d="M0 704v-125l235-110c56.045 72.094 142.692 119.768 240 122 1.537 0.699 9 4 9 4s-12.534 81.952 18 91c29.031 8.602 45.29-8.293 63-21 24.388-17.481 49.612-34.519 74-52 24.769-17.759 49.234-35.241 74-53 17.541-12.579 39.858-25.771 27-46-8.055-12.664-28.688-23.498-42-33-25.576-18.263-51.424-36.739-77-55-23.67-16.903-53.141-38.016-80-57-17.584-12.61-52.54-7.071-57 11-0.157 21.676-1.349 43.333-2 65-42.605 0-80.645-15.385-110-41l142-67 510 242v125zM0 438v-502h1024v501l-509-241-199 94c-0.239-3.696-1-7.235-1-11 0-92.914 74.086-167 167-167s134.789 18.296 153 93h149c1.401-142.884-130.184-239-302-239s-313 141.184-313 313c0 25.891 3.967 50.915 10 75z"/>
            <glyph unicode="&#xe846;" glyph-name="takeownership2"
                   d="M382 962c-106.222 0-192-86.778-192-193s85.778-192 192-192c106.222 0 192 85.778 192 192s-85.778 193-192 193zM382 449c-212.367 0-385-172.633-385-385 0-70.874 58.127-127.583 129-128l449-2.643c73.333 2.87 106.359-5.615 104 26.745-33.962 0-103.885 0.715-137.84 0-117.876-2.482-106.395 107.066-106.331 172.183 0.061 65.117 36.372 179.769 178.89 173.799 7.116 0 24.903 0.109 47.574 1.321-52.313 83.886-125.614 141.594-279.293 141.594zM752.515 215.071c0-4.696-92.641-2.239-102.243-2.239-142.518 5.97-114.042-36.811-114.104-101.928-0.064-65.117-18.672-70.861 99.204-68.379 33.955 0.715 82.522 0 116.484 0 2.069 0 2.547-76.482 2.547-76.482l236.603 157.452-237.35 168.4c0 0-1.141-57.89-1.141-76.824z"/>
            <glyph unicode="&#xe847;"
                   d="M0 704c0 0 0-83.333 0-125 95.15-46.895 505.379-249.948 505.379-249.948l-188.8 191.15c0 0-133.12-1.892-194.373 46.376s-93.423 136.49-93.423 136.49zM781.181 467.808c0 0 6.32-9.663 20.568 0.298 74.084 36.964 148.167 73.929 222.251 110.895 0 41.667 0 83.333 0 125-115.886 0-359.771 0-475.657 0zM0 438c0-167.333 0-334.667 0-502 342.267-0.934 684.534-1.868 1026.802-2.802-19.719 69.374-48.449 228.248-78.999 329.147-27.494 122.361 18.843-56.67-48.443-120.6-36.921-21.862-84.188-50.791-126.999-28.050-28.916 10.767-53.543 27.632-82.987 55.558-22.576 27.758-52.156 51.314-74.732 79.072-38.817-17.909-60.824-34.416-99.642-52.325-171.667 80.667-343.333 161.333-515 242zM1024 437c-54.461-29.717-78.104-45.425-132.565-75.142 88.841-128.961 79.624-291.542 134.844-430.309-0.76 168.484-1.52 336.967-2.28 505.451z"/>
            <glyph unicode="&#xe848;"
                   d="M96.346 824.276l120.482-120.482h125.927v127.894l-118.995 118.947c17.606 5.301 35.787 8.995 55.096 8.995 105.922 0 191.84-85.966 191.84-191.888 0-29.551-7.22-57.207-19.213-82.272l384.256-384.136c11.513-11.633 18.733-27.56 18.733-45.358 0-35.235-28.567-63.899-63.995-63.899-17.702 0-33.724 7.124-45.166 18.733l-384.328 384.208c-24.97-11.897-52.697-19.165-82.128-19.165-106.066 0-191.888 85.966-191.888 191.888 0 19.812 3.742 38.546 9.378 56.535z"/>
            <glyph unicode="&#xe849;"
                   d="M187.481 76.413l-0.678 92.504v41.224h51.712v-41.224l-0.989-92.504zM188.658 7.712v41.304h48.002v-41.304z"/>
            <glyph unicode="&#xe84a;" glyph-name="inactive"
                   d="M163.649 896.363h697.709c55.113 0 99.791-44.678 99.791-99.791v-697.709c0-55.113-44.678-99.791-99.791-99.791h-697.709c-55.113 0-99.791 44.678-99.791 99.791v697.709c0 55.113 44.678 99.791 99.791 99.791z"/>
            <glyph unicode="&#xe84b;" glyph-name="active"
                   d="M31.958 896.656l185.092-3.645 489.868-306.906c0 0 202.904-102.752 5.902-253.787-177.060-135.746-466.259-318.709-466.259-318.709h-214.602z"/>
            <glyph unicode="&#xe84c;"
                   d="M32 896.7v-883.1h214.6c0 0 126.044 96.326 281.898 204.9 21.518 109.319 113.042 214.948 238.402 208.9 63.967 81.366-60 158.7-60 158.7l-489.9 306.9z"/>
            <glyph unicode="&#xe84d;"
                   d="M870.621 130.9l-49.959 50.017v104.413h-58.733v-116.677c0-8.789 4.044-16.365 10.147-21.782l57.258-57.258 41.287 41.287zM791.464 343.727c96.603 0 175.19-78.587 175.19-175.19s-78.587-175.19-175.19-175.19c-96.603 0-175.19 78.587-175.19 175.19s78.587 175.19 175.19 175.19zM791.464 402.123c-128.999 0-233.587-104.588-233.587-233.587s104.588-233.587 233.587-233.587c128.998 0 233.587 104.589 233.587 233.587s-104.589 233.587-233.587 233.587v0z"/>
            <glyph unicode="&#xe84e;" glyph-name="expired"
                   d="M134.302 859.189h180.408l440.408-288.234c0 0 177.112-96.501 0-238.347-159.183-127.488-440.408-299.319-440.408-299.319h-180.408v825.901zM833.275 861.112h153.913v-828.885h-153.913v828.885z"/>
        </font>
</defs>
</svg>
