<?xml version="1.0" standalone="no"?>
<!DOCTYPE svg PUBLIC "-//W3C//DTD SVG 1.1//EN" "http://www.w3.org/Graphics/SVG/1.1/DTD/svg11.dtd">
<svg xmlns="http://www.w3.org/2000/svg">
<defs >
<font id="SourceSansPro" horiz-adv-x="459" ><font-face
    font-family="Source Sans Pro ExtraLight"
    units-per-em="1000"
    panose-1="2 11 3 3 3 4 3 9 2 4"
    ascent="984"
    descent="-273"
    alphabetic="0" />
<glyph unicode=" " glyph-name="space" horiz-adv-x="200" />
<glyph unicode="!" glyph-name="exclam" horiz-adv-x="242" d="M92 172L188 672H216L204 608L116 172H92ZM70 -12Q57 -12 50 -3T42 18Q42 35 55 49T84 64Q98 64 104 55T110 32Q110 16 99 2T70 -12Z" />
<glyph unicode="&quot;" glyph-name="quotedbl" horiz-adv-x="324" d="M134 478L158 608L170 672H198L186 608L156 478H134ZM256 478L280 608L292 672H320L308 608L278 478H256Z" />
<glyph unicode="#" glyph-name="numbersign" horiz-adv-x="458" d="M42 0L110 218H28L36 246H118L172 424H88L96 452H182L244 650H272L210 452H356L418 650H446L384 452H466L458 424H376L322 246H406L398 218H312L244 0H216L284 218H138L70 0H42ZM146 246H294L348
424H200L146 246Z" />
<glyph unicode="$" glyph-name="dollar" horiz-adv-x="456" d="M148 -110L168 -10Q121 -2 84 24T25 78L46 98Q69 67 107 41T194 14Q238 14 273 33T329 86T350 164Q350 207 334 237T293 291T239 335T186 376T144 426T128 492Q128 538 150 574T209 631T295 652L315
750H343L322 649Q358 642 389 619T438 568L416 550Q395 582 364 604T294 626Q236 626 196 591T156 498Q156 462 172 436T213 389T267 348T320 304T362 248T378 170Q378 120 355 79T291 13T195 -12L176 -110H148Z" />
<glyph unicode="%" glyph-name="percent" horiz-adv-x="760" d="M178 258Q121 258 95 301T68 404Q68 446 79 492T111 580T166 646T242 672Q299 672 325 629T352 526Q352 484 341 438T309 350T255 284T178 258ZM180 282Q216 282 243 305T288 366T315 444T324 520Q324
573 305 610T240 648Q204 648 177 625T132 564T105 486T96 410Q96 357 115 320T180 282ZM130 -12L622 672H652L160 -12H130ZM544 -12Q487 -12 461 31T434 134Q434 176 445 222T477 310T532 376T608 402Q665 402 691 359T718 256Q718 214 707 168T675 80T621 14T544
-12ZM546 12Q582 12 609 35T654 96T681 174T690 250Q690 303 671 340T606 378Q570 378 543 355T498 294T471 216T462 140Q462 87 481 50T546 12Z" />
<glyph unicode="&amp;" glyph-name="ampersand" horiz-adv-x="542" d="M204 486Q204 436 218 382Q261 410 299 438T362 500T386 577Q386 603 372 624T326 646Q291 646 263 625T220 568T204 486ZM163 -12Q100 -12 58 27T16 134Q16 189 41 230T107 303T193 365Q176
427 176 482Q176 540 198 582T254 648T328 672Q373 672 393 646T414 584Q414 532 386 493T315 421T224 357Q244 290 279 226T357 112Q404 159 439 216T506 341H534Q501 271 461 208T374 94Q401 66 427 45T478 12L464 -12Q439 -1 411 20T353 73Q311 34 264 11T163
-12ZM46 140Q46 83 81 49T170 14Q214 14 256 36T336 92Q294 142 258 207T200 341Q160 314 125 285T68 220T46 140Z" />
<glyph unicode="&apos;" glyph-name="quotesingle" horiz-adv-x="202" d="M134 478L158 608L170 672H198L186 608L156 478H134Z" />
<glyph unicode="(" glyph-name="parenleft" horiz-adv-x="260" d="M128 -174Q103 -109 88 -29T72 134Q72 251 100 352T180 545T304 730L322 716Q216 587 158 441T100 128Q100 53 112 -27T148 -168L128 -174Z" />
<glyph unicode=")" glyph-name="parenright" horiz-adv-x="262" d="M-36 -174L-54 -160Q53 -31 110 115T168 428Q168 503 156 583T120 724L140 730Q166 666 181 586T196 422Q196 305 168 204T88 11T-36 -174Z" />
<glyph unicode="*" glyph-name="asterisk" horiz-adv-x="374" d="M178 488L162 502L226 582L144 626L152 646L244 614L264 712L286 710L278 612L372 626L376 604L280 578L318 488L298 476L252 560L178 488Z" />
<glyph unicode="+" glyph-name="plus" horiz-adv-x="456" d="M228 110V318H48V344H228V546H256V344H436V318H256V110H228Z" />
<glyph unicode="," glyph-name="comma" horiz-adv-x="202" d="M-26 -146L-34 -122Q5 -104 31 -74T62 -8Q61 -8 60 -8T56 -8Q43 -8 35 0T26 22Q26 37 37 50T66 64Q82 64 90 52T98 22Q98 -33 63 -79T-26 -146Z" />
<glyph unicode="-" glyph-name="hyphen" horiz-adv-x="282" d="M36 236L42 264H248L242 236H36Z" />
<glyph unicode="." glyph-name="period" horiz-adv-x="202" d="M50 -12Q37 -12 30 -3T22 18Q22 35 35 49T64 64Q78 64 84 55T90 32Q90 16 79 2T50 -12Z" />
<glyph unicode="/" glyph-name="slash" horiz-adv-x="350" d="M-74 -160L410 710H438L-46 -160H-74Z" />
<glyph unicode="0" glyph-name="zero" horiz-adv-x="456" d="M186 -12Q136 -12 105 18T60 96T46 196Q46 257 58 321T92 444T145 550T214 624T296 652Q345 652 376 621T421 541T436 442Q436 381 424 317T390 194T337 89T268 15T186 -12ZM186 14Q224 14 258 40T319
111T367 211T397 325T408 436Q408 485 396 528T359 599T294 626Q256 626 223 599T162 527T115 427T85 313T74 202Q74 154 85 111T121 41T186 14Z" />
<glyph unicode="1" glyph-name="one" horiz-adv-x="456" d="M32 0L38 26H182L294 582H182L186 602Q222 607 255 617T310 640H334L210 26H350L346 0H32Z" />
<glyph unicode="2" glyph-name="two" horiz-adv-x="456" d="M-8 0L-6 20Q104 115 182 183T308 305T379 404T402 500Q402 551 372 588T276 626Q240 626 201 608T124 552L106 574Q148 610 189 631T278 652Q353 652 391 610T430 506Q430 450 408 400T338 297T217
179T42 26H366L362 0H-8Z" />
<glyph unicode="3" glyph-name="three" horiz-adv-x="456" d="M174 -12Q128 -12 93 5T34 47T-4 94L18 110Q33 88 54 66T106 29T178 14Q233 14 276 36T343 97T368 182Q368 241 319 281T160 322L166 348Q233 348 279 363T353 402T393 453T406 506Q406 559 378 592T286
626Q252 626 211 610T142 566L124 588Q159 617 202 634T288 652Q363 652 398 614T434 512Q434 451 392 402T276 334V330Q329 315 362 279T396 188Q396 129 368 84T289 14T174 -12Z" />
<glyph unicode="4" glyph-name="four" horiz-adv-x="456" d="M296 0H268L307 194H20L22 210L404 640H424L340 220H432L426 194H335L296 0ZM66 220H312L362 470Q367 493 375 524T390 586H386Q365 559 345 535T306 490L66 220Z" />
<glyph unicode="5" glyph-name="five" horiz-adv-x="456" d="M174 -12Q127 -12 94 4T38 45T2 92L24 108Q37 87 56 66T104 29T180 14Q231 14 275 41T347 115T374 226Q374 301 336 337T236 374Q200 374 174 365T118 338L100 352L180 640H446L440 614H200L134 374Q154
385 179 392T236 400Q308 400 355 358T402 232Q402 158 371 103T287 18T174 -12Z" />
<glyph unicode="6" glyph-name="six" horiz-adv-x="456" d="M80 202Q80 148 96 106T142 39T214 14Q257 14 295 40T356 109T380 202Q380 270 348 310T252 350Q234 350 205 342T143 314T82 255Q81 242 81 229T80 202ZM212 -12Q162 -12 126 15T71 89T52 196Q52 294
73 377T133 521T222 617T334 652Q381 652 412 632T462 576L438 560Q403 626 332 626Q273 626 222 583T135 464T86 295Q124 338 170 358T254 378Q328 378 368 331T408 212Q408 149 382 98T311 18T212 -12Z" />
<glyph unicode="7" glyph-name="seven" horiz-adv-x="456" d="M136 0Q164 127 202 232T299 430T450 614H114L120 640H492L488 620Q412 547 360 476T271 329T211 173T168 0H136Z" />
<glyph unicode="8" glyph-name="eight" horiz-adv-x="456" d="M212 -12Q166 -12 126 6T60 62T34 154Q34 206 57 244T116 311T192 358V362Q164 389 149 417T134 486Q134 538 158 575T220 632T304 652Q343 652 376 636T429 587T450 506Q450 439 413 395T320 318V314Q336
303 357 283T395 235T412 172Q412 115 385 74T312 10T212 -12ZM296 330Q328 348 357 373T404 431T422 504Q422 544 405 571T361 612T302 626Q266 626 234 610T182 562T162 488Q162 427 198 393T296 330ZM212 14Q255 14 294 32T359 84T384 166Q384 212 359 243T295
297T212 344Q146 310 104 267T62 156Q62 109 83 78T139 30T212 14Z" />
<glyph unicode="9" glyph-name="nine" horiz-adv-x="456" d="M102 438Q102 371 134 331T230 290Q249 290 278 298T339 326T400 385Q401 398 401 411T402 438Q402 492 386 534T340 601T268 626Q225 626 187 600T126 531T102 438ZM148 -12Q102 -12 71 8T20 64L44
80Q79 14 150 14Q210 14 261 57T347 176T396 344Q359 301 313 282T228 262Q155 262 115 309T74 428Q74 491 100 542T171 622T270 652Q320 652 356 625T411 551T430 444Q430 347 409 264T349 119T260 23T148 -12Z" />
<glyph unicode=":" glyph-name="colon" horiz-adv-x="202" d="M120 386Q107 386 100 395T92 416Q92 433 105 447T134 462Q148 462 154 453T160 430Q160 414 149 400T120 386ZM50 -12Q37 -12 30 -3T22 18Q22 35 35 49T64 64Q78 64 84 55T90 32Q90 16 79 2T50 -12Z" />
<glyph unicode=";" glyph-name="semicolon" horiz-adv-x="202" d="M120 386Q107 386 100 395T92 416Q92 433 105 447T134 462Q148 462 154 453T160 430Q160 414 149 400T120 386ZM-26 -146L-34 -122Q5 -104 31 -74T62 -8Q61 -8 60 -8T56 -8Q43 -8 35 0T26 22Q26
37 37 50T66 64Q82 64 90 52T98 22Q98 -33 63 -79T-26 -146Z" />
<glyph unicode="&lt;" glyph-name="less" horiz-adv-x="456" d="M436 156L46 316V344L436 504V476L206 382L84 332V328L206 278L436 184V156Z" />
<glyph unicode="=" glyph-name="equal" horiz-adv-x="456" d="M48 416V442H436V416H48ZM48 474V500H436V474H48Z" />
<glyph unicode="&gt;" glyph-name="greater" horiz-adv-x="456" d="M48 156V184L278 278L400 328V332L278 382L48 476V504L438 344V316L48 156Z" />
<glyph unicode="?" glyph-name="question" horiz-adv-x="380" d="M144 176Q146 229 168 268T221 341T284 404T337 469T358 548Q358 599 331 627T256 656Q220 656 186 639T128 594L110 614Q134 641 173 661T258 682Q318 682 352 648T386 554Q386 504 365 466T313
396T249 331T195 261T170 174L144 176ZM126 -12Q113 -12 106 -3T98 18Q98 35 111 49T140 64Q154 64 160 55T166 32Q166 16 155 2T126 -12Z" />
<glyph unicode="@" glyph-name="at" horiz-adv-x="772" d="M330 -142Q247 -142 183 -105T83 1T46 164Q46 264 81 348T175 494T309 591T462 626Q549 626 610 590T702 490T734 340Q734 249 707 185T637 88T548 54Q512 54 491 75T464 130H462Q437 102 409 82T346
62Q319 62 295 76T254 118T238 190Q238 232 252 273T293 347T353 400T428 420Q452 420 471 406T504 368H506L518 412H542L494 200Q482 149 494 115T552 80Q589 80 624 110T683 197T706 334Q706 454 643 527T460 600Q387 600 318 568T194 477T107 340T74 170Q74
81 107 17T198 -81T332 -116Q416 -116 480 -78L492 -100Q453 -122 412 -132T330 -142ZM348 88Q404 88 458 160L498 338Q480 371 462 382T426 394Q391 394 362 376T311 328T278 264T266 196Q266 141 290 115T348 88Z" />
<glyph unicode="A" glyph-name="A" horiz-adv-x="480" d="M204 396L132 264H372L356 396Q350 452 343 509T330 626H326Q296 565 266 510T204 396ZM-46 0L320 660H350L434 0H404L375 238H118L-12 0H-46Z" />
<glyph unicode="B" glyph-name="B" horiz-adv-x="566" d="M40 0L172 660H328Q420 660 469 622T518 518Q518 468 494 433T434 377T368 352V348Q400 341 429 324T476 277T494 206Q494 136 461 91T369 23T230 0H40ZM142 364H260Q374 364 431 407T488 516Q488 572
446 603T312 634H196L142 364ZM74 26H212Q287 26 344 43T432 100T464 203Q464 261 416 299T278 338H138L74 26Z" />
<glyph unicode="C" glyph-name="C" horiz-adv-x="536" d="M278 -12Q204 -12 155 22T82 114T58 246Q58 304 72 364T114 479T182 577T275 646T390 672Q446 672 483 644T542 580L518 564Q499 599 467 622T388 646Q330 646 283 622T200 557T138 464T101 358T88 252Q88
185 108 131T170 46T280 14Q328 14 366 31T442 80L460 60Q418 26 375 7T278 -12Z" />
<glyph unicode="D" glyph-name="D" horiz-adv-x="572" d="M40 0L172 660H276Q367 660 427 628T516 538T546 404Q546 320 524 247T457 118T347 32T194 0H40ZM74 26H196Q273 26 332 56T433 139T495 259T516 402Q516 470 490 522T410 604T274 634H196L74 26Z" />
<glyph unicode="E" glyph-name="E" horiz-adv-x="484" d="M40 0L172 660H514L508 634H196L142 364H406L400 338H138L74 26H396L390 0H40Z" />
<glyph unicode="F" glyph-name="F" horiz-adv-x="448" d="M40 0L172 660H514L508 634H196L140 352H404L398 326H136L70 0H40Z" />
<glyph unicode="G" glyph-name="G" horiz-adv-x="570" d="M288 -12Q210 -12 159 21T83 113T58 246Q58 319 80 394T145 532T253 633T400 672Q456 672 493 644T552 580L528 564Q509 599 477 622T398 646Q338 646 289 622T203 557T140 464T101 358T88 252Q88 187
108 133T172 47T290 14Q338 14 374 30T434 68L478 290H320L326 316H514L460 54Q426 24 384 6T288 -12Z" />
<glyph unicode="H" glyph-name="H" horiz-adv-x="598" d="M40 0L172 660H202L142 364H498L558 660H588L456 0H426L494 338H138L70 0H40Z" />
<glyph unicode="I" glyph-name="I" horiz-adv-x="218" d="M40 0L172 660H202L70 0H40Z" />
<glyph unicode="J" glyph-name="J" horiz-adv-x="428" d="M146 -12Q86 -12 52 17T2 90L28 102Q54 14 148 14Q207 14 244 57T294 170L392 660H422L324 168Q309 86 263 37T146 -12Z" />
<glyph unicode="K" glyph-name="K" horiz-adv-x="522" d="M40 0L172 660H202L128 290H130L526 660H564L312 420L464 0H432L288 400L120 244L70 0H40Z" />
<glyph unicode="L" glyph-name="L" horiz-adv-x="432" d="M40 0L172 660H202L76 26H376L370 0H40Z" />
<glyph unicode="M" glyph-name="M" horiz-adv-x="676" d="M40 0L172 660H222L288 262L314 112H318L396 262L616 660H666L534 0H504L596 460Q605 501 615 547T634 632H630L552 490L326 76H292L220 490L196 632H192Q185 592 178 547T162 460L70 0H40Z" />
<glyph unicode="N" glyph-name="N" horiz-adv-x="600" d="M40 0L172 660H206L390 174L438 42H442Q450 89 457 136T474 230L560 660H590L458 0H426L244 484L194 622H190Q183 574 174 528T156 436L70 0H40Z" />
<glyph unicode="O" glyph-name="O" horiz-adv-x="612" d="M274 -12Q202 -12 155 23T85 120T62 262Q62 315 75 372T114 482T177 578T264 646T372 672Q444 672 491 637T561 540T584 398Q584 345 571 288T532 178T469 82T382 14T274 -12ZM276 14Q330 14 374 38T451
102T508 193T542 295T554 394Q554 468 535 525T476 614T370 646Q316 646 272 622T195 558T138 467T104 365T92 266Q92 192 111 135T170 46T276 14Z" />
<glyph unicode="P" glyph-name="P" horiz-adv-x="524" d="M40 0L172 660H340Q430 660 481 624T532 510Q532 402 458 348T256 294H128L70 0H40ZM134 320H250Q502 320 502 508Q502 576 457 605T322 634H196L134 320Z" />
<glyph unicode="Q" glyph-name="Q" horiz-adv-x="612" d="M276 14Q330 14 374 38T451 102T508 193T542 295T554 394Q554 468 535 525T476 614T370 646Q316 646 272 622T195 558T138 467T104 365T92 266Q92 192 111 135T170 46T276 14ZM440 -150Q370 -150 316 -117T245
-10Q183 -3 143 33T82 129T62 262Q62 315 75 372T114 482T177 578T264 646T372 672Q444 672 491 637T561 540T584 398Q584 345 571 288T532 178T469 82T383 14T275 -12Q289 -67 334 -94T442 -122Q464 -122 488 -116L492 -144Q479 -147 467 -148T440 -150Z" />
<glyph unicode="R" glyph-name="R" horiz-adv-x="522" d="M40 0L172 660H332Q421 660 471 627T522 518Q522 459 494 415T417 344T305 311L434 0H400L273 310H132L70 0H40ZM138 336H260Q371 336 431 384T492 516Q492 581 448 607T314 634H196L138 336Z" />
<glyph unicode="S" glyph-name="S" horiz-adv-x="488" d="M226 -12Q156 -12 104 17T18 98L42 114Q74 66 120 40T230 14Q280 14 320 34T384 90T408 176Q408 221 385 252T322 306L234 358Q194 382 162 418T130 506Q130 550 153 588T217 649T314 672Q374 672 419
646T490 584L468 566Q443 599 403 622T308 646Q263 646 230 626T179 575T160 510Q160 462 187 433T248 384L334 334Q381 307 409 271T438 180Q438 122 410 79T334 12T226 -12Z" />
<glyph unicode="T" glyph-name="T" horiz-adv-x="492" d="M180 0L306 632H100L106 660H548L542 632H336L210 0H180Z" />
<glyph unicode="U" glyph-name="U" horiz-adv-x="594" d="M268 -12Q181 -12 132 38T82 180Q82 200 84 219T90 262L170 660H200L122 270Q116 246 114 226T112 188Q112 106 152 60T272 14Q315 14 354 36T425 107T472 238L556 660H586L500 230Q482 140 447 87T365
11T268 -12Z" />
<glyph unicode="V" glyph-name="V" horiz-adv-x="450" d="M146 0L84 660H112L148 260Q154 206 160 150T170 38H174Q201 92 230 150T288 260L498 660H528L180 0H146Z" />
<glyph unicode="W" glyph-name="W" horiz-adv-x="726" d="M110 0L108 660H138V260Q137 206 137 152T136 44H140Q166 98 191 152T240 260L428 660H462L476 260Q479 206 481 152T484 44H488Q511 98 533 152T580 260L748 660H780L496 0H458L442 472Q442 513 441 550T440
628H436Q421 588 404 551T368 472L148 0H110Z" />
<glyph unicode="X" glyph-name="X" horiz-adv-x="446" d="M-36 0L224 344L110 660H140L214 450Q222 428 228 409T244 366H246Q264 387 282 410T316 456L468 660H500L256 338L380 0H350L272 218Q263 242 254 267T236 318H234Q213 293 193 265T154 212L-4 0H-36Z" />
<glyph unicode="Y" glyph-name="Y" horiz-adv-x="422" d="M140 0L195 273L86 660H116L175 445Q185 409 194 374T214 302H216Q241 337 265 373T315 445L466 660H498L225 273L170 0H140Z" />
<glyph unicode="Z" glyph-name="Z" horiz-adv-x="502" d="M2 0L6 18L486 634H152L158 660H528L524 642L46 26H416L410 0H2Z" />
<glyph unicode="[" glyph-name="bracketleft" horiz-adv-x="262" d="M18 -152L190 708H334L332 686H208L46 -130H168L162 -152H18Z" />
<glyph unicode="\" glyph-name="backslash" horiz-adv-x="350" d="M238 -160L90 710H114L262 -160H238Z" />
<glyph unicode="]" glyph-name="bracketright" horiz-adv-x="262" d="M-64 -152L-60 -130H62L228 686H104L108 708H254L82 -152H-64Z" />
<glyph unicode="^" glyph-name="asciicircum" horiz-adv-x="458" d="M92 290L236 670H260L404 290H378L298 502L250 634H248L200 502L120 290H92Z" />
<glyph unicode="_" glyph-name="underscore" horiz-adv-x="484" d="M-26 -112L-20 -84H438L432 -112H-26Z" />
<glyph unicode="`" glyph-name="grave" horiz-adv-x="504" d="M364 570L250 730L276 748L384 584L364 570Z" />
<glyph unicode="a" glyph-name="a" horiz-adv-x="524" d="M186 -12Q123 -12 85 32T46 160Q46 229 67 289T126 394T210 464T306 490Q350 490 381 468T432 410H436L454 478H478L382 0H358L370 78H366Q329 39 283 14T186 -12ZM188 14Q238 14 285 42T378 122L430 372Q402
422 371 443T304 464Q259 464 218 439T144 371T93 275T74 166Q74 90 105 52T188 14Z" />
<glyph unicode="b" glyph-name="b" horiz-adv-x="522" d="M216 -12Q173 -12 142 10T90 68H86L68 0H44L188 722H216L172 506L152 408H154Q193 440 239 465T336 490Q399 490 437 446T476 318Q476 249 455 189T396 84T312 14T216 -12ZM218 14Q263 14 304 39T378 107T429
203T448 312Q448 388 418 426T334 464Q292 464 241 438T146 372L92 106Q121 57 151 36T218 14Z" />
<glyph unicode="c" glyph-name="c" horiz-adv-x="428" d="M210 -12Q134 -12 89 37T44 176Q44 247 66 304T124 403T206 467T298 490Q339 490 366 475T418 432L398 412Q376 439 354 451T296 464Q254 464 214 442T142 380T91 290T72 182Q72 14 212 14Q250 14 282
29T342 66L358 44Q333 25 297 7T210 -12Z" />
<glyph unicode="d" glyph-name="d" horiz-adv-x="526" d="M186 -12Q123 -12 85 32T46 160Q46 229 67 289T126 394T210 464T306 490Q350 490 381 468T432 410H436L456 506L500 722H528L382 0H358L370 78H366Q329 39 283 14T186 -12ZM188 14Q238 14 285 42T378 122L430
372Q402 422 371 443T304 464Q259 464 218 439T144 371T93 275T74 166Q74 90 105 52T188 14Z" />
<glyph unicode="e" glyph-name="e" horiz-adv-x="468" d="M224 -12Q142 -12 93 38T44 184Q44 252 65 308T121 405T200 468T290 490Q367 490 399 443T432 322Q432 298 429 278T420 242H78Q63 162 80 112T137 38T226 14Q259 14 291 28T350 62L364 40Q336 19 300
4T224 -12ZM84 268H398Q404 298 404 328Q404 362 393 393T357 444T288 464Q243 464 201 439T128 369T84 268Z" />
<glyph unicode="f" glyph-name="f" horiz-adv-x="246" d="M48 0L138 452H76L80 474L144 478L168 598Q183 669 216 701T292 734Q316 734 332 728T362 712L348 690Q336 698 323 703T290 708Q253 708 229 675T196 598L172 478H280L274 452H166L76 0H48Z" />
<glyph unicode="g" glyph-name="g" horiz-adv-x="518" d="M166 -234Q114 -234 75 -214T6 -168L24 -146Q51 -171 87 -189T168 -208Q242 -208 284 -159T342 -30L366 86Q324 46 280 21T184 -4Q123 -4 85 40T46 166Q46 233 67 291T125 394T207 464T300 490Q343 490
375 468T426 410H430L448 478H472L366 -48Q348 -133 298 -183T166 -234ZM186 22Q228 22 278 50T372 124L424 372Q395 422 365 443T298 464Q255 464 215 439T143 372T93 277T74 172Q74 97 104 60T186 22Z" />
<glyph unicode="h" glyph-name="h" horiz-adv-x="504" d="M44 0L188 722H216L160 444L148 398H152Q200 439 242 464T328 490Q390 490 416 458T442 374Q442 356 441 344T434 310L372 0H344L406 306Q411 329 412 342T414 370Q414 417 393 440T324 464Q291 464 246
439T144 358L72 0H44Z" />
<glyph unicode="i" glyph-name="i" horiz-adv-x="214" d="M44 0L140 478H168L72 0H44ZM182 600Q170 600 162 608T154 628Q154 646 165 657T190 668Q202 668 210 660T218 638Q218 622 207 611T182 600Z" />
<glyph unicode="j" glyph-name="j" horiz-adv-x="214" d="M-60 -234Q-81 -234 -94 -229T-118 -218L-106 -194Q-97 -200 -87 -204T-58 -208Q-28 -208 -8 -179T22 -104L140 478H168L52 -98Q39 -162 12 -198T-60 -234ZM176 600Q164 600 156 608T148 628Q148 646 159
657T184 668Q196 668 204 660T212 638Q212 622 201 611T176 600Z" />
<glyph unicode="k" glyph-name="k" horiz-adv-x="436" d="M44 0L188 722H216L108 176H110L408 478H444L258 286L374 0H344L236 266L98 126L72 0H44Z" />
<glyph unicode="l" glyph-name="l" horiz-adv-x="226" d="M86 -12Q71 -12 61 -3T50 24Q50 29 51 36T54 50L188 722H216L82 48Q81 41 81 36T80 28Q80 14 94 14Q97 14 100 14T110 18L114 -6Q107 -9 101 -10T86 -12Z" />
<glyph unicode="m" glyph-name="m" horiz-adv-x="776" d="M44 0L140 478H164L152 400H156Q197 439 239 464T316 490Q376 490 400 460T426 388Q477 438 522 464T602 490Q662 490 688 458T714 374Q714 356 713 344T706 310L644 0H616L678 306Q683 329 684 342T686
370Q686 417 666 440T598 464Q574 464 529 439T430 358L358 0H330L392 306Q397 329 398 342T400 370Q400 417 380 440T312 464Q288 464 243 439T144 358L72 0H44Z" />
<glyph unicode="n" glyph-name="n" horiz-adv-x="504" d="M44 0L140 478H164L152 400H156Q201 439 243 464T328 490Q390 490 416 458T442 374Q442 356 441 344T434 310L372 0H344L406 306Q411 329 412 342T414 370Q414 417 393 440T324 464Q291 464 246 439T144
358L72 0H44Z" />
<glyph unicode="o" glyph-name="o" horiz-adv-x="500" d="M204 -12Q132 -12 89 37T46 176Q46 243 66 300T122 399T202 466T296 490Q368 490 411 441T454 302Q454 235 434 178T378 79T298 12T204 -12ZM206 14Q247 14 286 36T356 98T407 188T426 296Q426 379 392
421T294 464Q254 464 215 442T144 380T93 290T74 182Q74 100 108 57T206 14Z" />
<glyph unicode="p" glyph-name="p" horiz-adv-x="520" d="M0 -222L140 478H164L152 408H156Q195 440 240 465T336 490Q399 490 437 446T476 318Q476 249 455 189T396 84T312 14T216 -12Q173 -12 140 11T86 68H84L62 -42L28 -222H0ZM218 14Q263 14 304 39T378 107T429
203T448 312Q448 388 418 426T334 464Q292 464 241 438T146 370L92 102Q121 54 151 34T218 14Z" />
<glyph unicode="q" glyph-name="q" horiz-adv-x="524" d="M310 -222L346 -42L370 80H368Q329 40 283 14T186 -12Q123 -12 85 32T46 160Q46 229 67 289T126 394T210 464T306 490Q350 490 381 468T432 410H436L454 478H478L338 -222H310ZM188 14Q238 14 285 42T378
122L430 372Q402 422 371 443T304 464Q259 464 218 439T144 371T93 275T74 166Q74 90 105 52T188 14Z" />
<glyph unicode="r" glyph-name="r" horiz-adv-x="308" d="M44 0L140 478H164L148 388H152Q182 430 219 460T302 490Q311 490 321 489T344 482L332 454Q326 457 318 459T296 462Q257 462 213 425T136 322L72 0H44Z" />
<glyph unicode="s" glyph-name="s" horiz-adv-x="384" d="M158 -12Q106 -12 63 15T0 76L22 92Q42 61 78 38T162 14Q197 14 226 28T274 66T292 122Q292 142 285 158T255 193T188 236Q137 265 109 293T80 358Q80 398 99 427T149 473T218 490Q300 490 352 432L330
416Q311 437 283 450T216 464Q170 464 139 435T108 364Q108 330 136 307T198 264Q249 235 275 214T310 173T320 128Q320 85 299 54T240 5T158 -12Z" />
<glyph unicode="t" glyph-name="t" horiz-adv-x="290" d="M170 -12Q116 -12 95 15T74 78Q74 92 75 102T78 124L146 452H70L74 474L152 478L184 616H208L180 478H312L306 452H174L106 122Q105 113 104 104T102 84Q102 50 117 32T172 14Q190 14 205 20T232 32L242
10Q229 3 210 -4T170 -12Z" />
<glyph unicode="u" glyph-name="u" horiz-adv-x="514" d="M184 -12Q123 -12 97 20T70 104Q70 122 72 134T78 168L140 478H168L106 172Q102 150 100 137T98 108Q98 62 119 38T188 14Q221 14 266 39T368 120L440 478H468L372 0H348L360 80H356Q311 41 270 15T184 -12Z" />
<glyph unicode="v" glyph-name="v" horiz-adv-x="408" d="M136 0L58 478H86L136 166Q142 132 147 96T158 26H162Q180 61 199 96T238 166L408 478H438L174 0H136Z" />
<glyph unicode="w" glyph-name="w" horiz-adv-x="674" d="M112 0L68 478H96L124 154Q127 121 130 90T136 26H140Q155 58 169 89T198 154L348 478H388L412 154Q414 121 416 90T420 26H424Q439 58 453 89T484 154L638 478H666L438 0H396L374 312Q371 347 370 384T366
454H362Q347 421 331 384T298 312L154 0H112Z" />
<glyph unicode="x" glyph-name="x" horiz-adv-x="380" d="M-48 0L178 252L82 478H112L164 352Q173 330 180 312T196 272H200Q218 292 236 311T272 352L384 478H416L212 246L316 0H286L232 136Q223 159 213 182T192 228H188Q170 206 151 184T108 138L-14 0H-48Z" />
<glyph unicode="y" glyph-name="y" horiz-adv-x="408" d="M-40 -222Q-47 -222 -58 -220T-84 -212L-72 -188Q-56 -196 -38 -196Q7 -196 46 -157T116 -54L138 -10L58 478H86L136 166Q142 132 148 95T158 24H162Q180 59 199 94T238 166L408 478H438L138 -66Q119 -103
94 -139T36 -198T-40 -222Z" />
<glyph unicode="z" glyph-name="z" horiz-adv-x="384" d="M-10 0L-8 18L364 452H110L116 478H406L404 460L32 26H324L318 0H-10Z" />
<glyph unicode="{" glyph-name="braceleft" horiz-adv-x="260" d="M130 -152Q88 -152 68 -135T48 -78Q48 -52 57 -13T77 68T97 149T106 212Q106 232 94 249T36 266L42 290Q77 290 97 302T126 333T140 372Q149 420 157 474T176 580Q191 655 218 681T300 708H332L328
686H296Q250 686 230 658T198 576Q189 531 182 481T166 382Q157 340 142 314T94 278V274Q115 265 121 250T128 220Q128 193 120 154T100 73T81 -8T72 -72Q72 -100 85 -115T136 -130H166L160 -152H130Z" />
<glyph unicode="|" glyph-name="bar" horiz-adv-x="212" d="M100 -250V750H126V-250H100Z" />
<glyph unicode="}" glyph-name="braceright" horiz-adv-x="262" d="M-64 -152L-60 -130H-28Q19 -130 39 -103T70 -22Q79 23 86 73T102 172Q111 216 127 242T174 278V282Q152 291 146 306T140 336Q140 362 148 400T168 481T187 562T196 626Q196 656 183 671T132
686H102L108 708H138Q180 708 200 691T220 634Q220 608 211 569T191 487T171 406T162 342Q162 324 174 307T232 290L226 266Q191 266 171 254T142 223T128 184Q119 136 111 81T92 -26Q77 -101 49 -126T-32 -152H-64Z" />
<glyph unicode="~" glyph-name="asciitilde" horiz-adv-x="456" d="M324 272Q297 272 274 286T231 318T190 350T150 364Q128 364 109 350T72 300L50 312Q70 351 96 370T150 390Q177 390 200 376T243 344T284 312T324 298Q347 298 365 313T402 362L424 350Q405
311 378 292T324 272Z" />
<glyph unicode="&#xa0;" glyph-name="space" horiz-adv-x="200" />
<glyph unicode="&#xa1;" glyph-name="exclamdown" horiz-adv-x="242" d="M24 -194L36 -130L124 306H148L52 -194H24ZM156 414Q143 414 137 423T130 446Q130 463 142 476T170 490Q184 490 191 481T198 460Q198 444 186 429T156 414Z" />
<glyph unicode="&#xa2;" glyph-name="cent" horiz-adv-x="456" d="M196 -10L219 104Q155 112 119 159T82 288Q82 350 102 399T155 483T229 537T309 558L330 666H358L336 557Q374 553 400 535T446 494L426 474Q405 500 384 514T331 531L251 128Q292 130 325 145T384
180L398 156Q370 138 335 120T246 102L224 -10H196ZM112 294Q112 224 140 181T224 129L303 532Q259 529 215 499T142 416T112 294Z" />
<glyph unicode="&#xa3;" glyph-name="sterling" horiz-adv-x="456" d="M8 0L12 16Q89 57 124 124T160 268Q160 275 160 282T159 296H64L70 318L158 322Q156 352 153 383T150 442Q150 541 199 596T330 652Q378 652 409 626T456 570L432 554Q416 584 390 605T328
626Q284 626 250 603T197 540T178 448Q178 420 181 388T186 322H350L344 296H188Q188 291 188 285T188 274Q188 195 161 136T80 30V26H358L354 0H8Z" />
<glyph unicode="&#xa4;" glyph-name="currency" horiz-adv-x="456" d="M30 132L14 152L89 218Q83 234 80 253T76 294Q76 340 93 381T138 453L90 518L110 534L157 471Q183 493 213 505T276 518Q340 518 376 471L450 536L466 516L389 448Q404 417 404 370Q404 327
389 288T348 218L404 144L384 128L330 199Q304 174 272 160T204 146Q136 146 102 195L30 132ZM206 172Q248 172 287 197T351 266T376 364Q376 426 350 459T274 492Q233 492 194 467T129 398T104 300Q104 238 130 205T206 172Z" />
<glyph unicode="&#xa5;" glyph-name="yen" horiz-adv-x="456" d="M164 0L198 170H36L42 194H204L218 272H56L62 296H212L114 640H142L198 436Q207 403 216 369T234 296H238Q264 335 286 369T332 436L464 640H494L264 296H414L408 272H246L232 194H394L388 170H226L192
0H164Z" />
<glyph unicode="&#xa6;" glyph-name="brokenbar" horiz-adv-x="212" d="M100 274V750H126V274H100ZM100 -250V220H126V-250H100Z" />
<glyph unicode="&#xa7;" glyph-name="section" horiz-adv-x="454" d="M174 -44Q132 -44 95 -26T26 24L46 46Q73 16 106 -1T176 -18Q221 -18 254 11T288 86Q288 119 272 141T230 179T175 210T121 242T79 285T62 346Q62 402 94 439T175 495Q168 507 163 521T158
552Q158 612 196 646T288 680Q330 680 364 660T424 612L402 592Q380 619 351 636T286 654Q249 654 218 629T186 558Q186 529 202 508T243 470T297 437T350 401T392 355T408 292Q408 233 380 203T299 151Q316 126 316 92Q316 55 297 24T246 -25T174 -44ZM90 352Q90
314 111 290T163 247T228 212T284 170Q331 187 355 212T380 286Q380 325 360 351T309 396T246 434T191 476Q145 458 118 429T90 352Z" />
<glyph unicode="&#xa8;" glyph-name="dieresis" horiz-adv-x="504" d="M254 602Q228 602 228 628Q228 645 238 655T260 666Q286 666 286 638Q286 623 276 613T254 602ZM420 602Q394 602 394 628Q394 645 404 655T426 666Q452 666 452 638Q452 623 442 613T420 602Z" />
<glyph unicode="&#xa9;" glyph-name="copyright" horiz-adv-x="660" d="M298 -12Q221 -12 163 23T73 120T40 264Q40 334 65 402T136 527T247 618T394 652Q471 652 529 617T619 520T652 376Q652 306 627 238T556 113T445 22T298 -12ZM300 12Q374 12 434 44T537
130T603 246T626 372Q626 450 597 507T516 596T392 628Q318 628 258 596T155 510T89 394T66 268Q66 190 95 133T176 44T300 12ZM322 124Q262 124 223 160T184 272Q184 328 202 372T249 446T313 493T382 510Q418 510 439 497T476 460L456 442Q441 462 424 473T380
484Q342 484 303 458T238 385T212 278Q212 214 242 182T324 150Q359 150 387 165T442 198L456 176Q426 155 396 140T322 124Z" />
<glyph unicode="&#xaa;" glyph-name="ordfeminine" horiz-adv-x="346" d="M186 402Q144 402 118 431T92 518Q92 578 117 627T183 705T268 734Q292 734 313 723T348 684H352L364 726H384L322 410H300L310 462H306Q281 435 251 419T186 402ZM188 426Q218 426 252
447T314 500L344 652Q326 685 307 697T266 710Q229 710 195 683T140 612T118 522Q118 473 138 450T188 426Z" />
<glyph unicode="&#xab;" glyph-name="guillemotleft" horiz-adv-x="372" d="M142 74L40 240L46 272L204 428L220 412L72 252L162 86L142 74ZM278 74L176 240L182 272L340 428L356 412L208 252L298 86L278 74Z" />
<glyph unicode="&#xac;" glyph-name="logicalnot" horiz-adv-x="456" d="M408 110V318H48V344H436V110H408Z" />
<glyph unicode="&#xad;" glyph-name="hyphen" horiz-adv-x="282" d="M36 236L42 264H248L242 236H36Z" />
<glyph unicode="&#xae;" glyph-name="registered" horiz-adv-x="376" d="M220 332Q178 332 143 352T87 408T66 494Q66 549 91 597T160 675T258 706Q300 706 335 686T391 629T412 544Q412 489 386 441T317 362T220 332ZM222 356Q266 356 303 381T363 448T386 540Q386
602 351 642T256 682Q211 682 174 657T115 589T92 498Q92 437 126 397T222 356ZM162 418L204 624H258Q318 624 318 566Q318 542 304 525T268 500L298 418H270L244 494H204L188 418H162ZM210 518H236Q262 518 277 530T292 564Q292 600 254 600H224L210 518Z" />
<glyph unicode="&#xaf;" glyph-name="overscore" horiz-adv-x="504" d="M218 608L222 634H454L450 608H218Z" />
<glyph unicode="&#xb0;" glyph-name="degree" horiz-adv-x="284" d="M198 456Q159 456 133 483T106 554Q106 589 121 618T162 666T220 684Q259 684 285 657T312 586Q312 551 297 522T256 474T198 456ZM200 480Q226 480 245 495T275 533T286 582Q286 615 268 637T218
660Q192 660 173 645T143 607T132 558Q132 525 150 503T200 480Z" />
<glyph unicode="&#xb1;" glyph-name="plusminus" horiz-adv-x="456" d="M228 110V318H48V344H228V546H256V344H436V318H256V110H228ZM48 0V26H436V0H48Z" />
<glyph unicode="&#xb2;" glyph-name="two.sups" horiz-adv-x="344" d="M90 410L94 434Q186 501 240 547T319 632T344 712Q344 748 325 768T266 788Q241 788 216 772T170 732L152 750Q175 774 204 793T268 812Q316 812 344 786T372 714Q372 668 347 627T269 539T136
434H336L332 410H90Z" />
<glyph unicode="&#xb3;" glyph-name="three.sups" horiz-adv-x="344" d="M210 398Q165 398 133 423T86 478L108 492Q123 464 147 443T212 422Q253 422 283 445T314 512Q314 547 283 573T190 600L196 624Q247 624 278 638T324 674T338 718Q338 750 318 769T262
788Q213 788 166 749L152 770Q203 812 264 812Q309 812 337 788T366 718Q366 682 339 651T266 608Q305 598 323 571T342 518Q342 480 324 453T275 412T210 398Z" />
<glyph unicode="&#xb4;" glyph-name="acute" horiz-adv-x="504" d="M298 580L282 598L436 740L456 716L298 580Z" />
<glyph unicode="&#xb5;" glyph-name="mu" horiz-adv-x="510" d="M0 -200L136 478H164L102 172Q98 150 96 137T94 108Q94 62 115 38T184 14Q217 14 262 39T364 120L436 478H464L368 0H344L356 80H352Q307 41 266 15T180 -12Q144 -12 116 4T76 58L58 -42L28 -200H0Z" />
<glyph unicode="&#xb6;" glyph-name="paragraph" horiz-adv-x="476" d="M288 -80L436 660H464L316 -80H288ZM300 248Q239 248 188 267T107 324T76 418Q76 498 113 552T210 633T334 660H386L302 248H300Z" />
<glyph unicode="&#xb7;" glyph-name="middot" horiz-adv-x="202" d="M110 292Q97 292 90 301T82 322Q82 339 95 353T124 368Q138 368 144 359T150 336Q150 320 139 306T110 292Z" />
<glyph unicode="&#xb8;" glyph-name="cedilla" horiz-adv-x="504" d="M92 -216L90 -192Q152 -190 183 -174T214 -132Q214 -109 197 -99T146 -86L202 2H230L188 -68Q223 -77 233 -90T244 -124Q244 -167 202 -190T92 -216Z" />
<glyph unicode="&#xb9;" glyph-name="one.sups" horiz-adv-x="340" d="M206 410L272 744H180L184 764Q222 770 244 777T288 800H310L232 410H206Z" />
<glyph unicode="&#xba;" glyph-name="ordmasculine" horiz-adv-x="340" d="M200 402Q149 402 121 435T92 526Q92 589 117 636T182 708T264 734Q315 734 343 702T372 610Q372 547 347 500T282 428T200 402ZM202 426Q239 426 272 451T325 517T346 606Q346 656 325
683T262 710Q225 710 192 685T139 619T118 530Q118 481 140 454T202 426Z" />
<glyph unicode="&#xbb;" glyph-name="guillemotright" horiz-adv-x="372" d="M36 74L20 90L168 250L78 416L98 428L200 262L194 230L36 74ZM172 74L156 90L304 250L214 416L234 428L336 262L330 230L172 74Z" />
<glyph unicode="&#xbc;" glyph-name="onequarter" horiz-adv-x="724" d="M156 270L222 604H130L134 624Q172 630 194 637T238 660H260L182 270H156ZM120 -12L612 672H642L150 -12H120ZM438 144H573L592 242L616 340H612L540 258L438 144ZM544 0L568 120H398L402
138L630 390H648L599 144H656L650 120H594L570 0H544Z" />
<glyph unicode="&#xbd;" glyph-name="onehalf" horiz-adv-x="740" d="M152 270L218 604H126L130 624Q168 630 190 637T234 660H256L178 270H152ZM90 -12L582 672H612L120 -12H90ZM402 0L406 24Q498 91 552 137T631 222T656 302Q656 338 637 358T578 378Q553 378
528 362T482 322L464 340Q487 364 516 383T580 402Q628 402 656 376T684 304Q684 258 659 217T581 129T448 24H648L644 0H402Z" />
<glyph unicode="&#xbe;" glyph-name="threequarters" horiz-adv-x="744" d="M176 258Q131 258 99 283T52 338L74 352Q89 324 113 303T178 282Q219 282 249 305T280 372Q280 407 249 433T156 460L162 484Q213 484 244 498T290 534T304 578Q304 610 284 629T228
648Q179 648 132 609L118 630Q169 672 230 672Q275 672 303 648T332 578Q332 542 305 511T232 468Q271 458 289 431T308 378Q308 340 290 313T241 272T176 258ZM162 -12L654 672H684L192 -12H162ZM460 144H595L614 242L638 340H634L562 258L460 144ZM566 0L590
120H420L424 138L652 390H670L621 144H678L672 120H616L592 0H566Z" />
<glyph unicode="&#xbf;" glyph-name="questiondown" horiz-adv-x="380" d="M122 -202Q62 -202 28 -168T-6 -74Q-6 -24 15 14T67 84T131 149T185 219T210 306L236 304Q234 251 212 212T159 139T96 76T43 11T22 -68Q22 -119 49 -147T124 -176Q160 -176 194 -159T252
-114L270 -134Q246 -161 207 -181T122 -202ZM240 416Q227 416 221 425T214 448Q214 465 226 478T254 492Q268 492 275 483T282 462Q282 446 270 431T240 416Z" />
<glyph unicode="&#xc0;" glyph-name="Agrave" horiz-adv-x="480" d="M204 396L132 264H372L356 396Q350 452 343 509T330 626H326Q296 565 266 510T204 396ZM-46 0L320 660H350L434 0H404L375 238H118L-12 0H-46ZM364 706L254 828L278 848L380 720L364 706Z" />
<glyph unicode="&#xc1;" glyph-name="Aacute" horiz-adv-x="480" d="M204 396L132 264H372L356 396Q350 452 343 509T330 626H326Q296 565 266 510T204 396ZM-46 0L320 660H350L434 0H404L375 238H118L-12 0H-46ZM324 716L312 732L452 842L470 816L324 716Z" />
<glyph unicode="&#xc2;" glyph-name="Acircumflex" horiz-adv-x="480" d="M204 396L132 264H372L356 396Q350 452 343 509T330 626H326Q296 565 266 510T204 396ZM-46 0L320 660H350L434 0H404L375 238H118L-12 0H-46ZM232 709L218 725L354 839H382L478 725L462
711L368 811H364L232 709Z" />
<glyph unicode="&#xc3;" glyph-name="Atilde" horiz-adv-x="480" d="M204 396L132 264H372L356 396Q350 452 343 509T330 626H326Q296 565 266 510T204 396ZM-46 0L320 660H350L434 0H404L375 238H118L-12 0H-46ZM424 722Q399 722 382 734T352 764T325 793T290
806Q267 806 248 784T218 724L196 726Q204 771 230 801T296 832Q322 832 338 820T368 790T395 761T430 748Q453 748 471 770T502 830L524 828Q517 783 490 753T424 722Z" />
<glyph unicode="&#xc4;" glyph-name="Adieresis" horiz-adv-x="480" d="M204 396L132 264H372L356 396Q350 452 343 509T330 626H326Q296 565 266 510T204 396ZM-46 0L320 660H350L434 0H404L375 238H118L-12 0H-46ZM270 726Q244 726 244 752Q244 769 254 779T276
790Q302 790 302 762Q302 747 292 737T270 726ZM436 726Q410 726 410 752Q410 769 420 779T442 790Q468 790 468 762Q468 747 458 737T436 726Z" />
<glyph unicode="&#xc5;" glyph-name="Aring" horiz-adv-x="480" d="M204 396L132 264H372L356 396Q350 452 343 509T330 626H326Q296 565 266 510T204 396ZM-46 0L320 660H350L434 0H404L375 238H118L-12 0H-46ZM350 702Q322 702 300 720T278 776Q278 814 304
840T370 866Q399 866 420 848T442 792Q442 755 416 729T350 702ZM352 724Q378 724 398 743T418 790Q418 844 368 844Q342 844 322 826T302 778Q302 753 315 739T352 724Z" />
<glyph unicode="&#xc6;" glyph-name="AE" horiz-adv-x="774" d="M292 392L189 252H394L470 632H466L292 392ZM-32 0L458 660H804L798 634H500L446 364H696L690 338H442L378 26H686L680 0H344L389 226H170L4 0H-32Z" />
<glyph unicode="&#xc7;" glyph-name="Ccedilla" horiz-adv-x="536" d="M278 -12Q204 -12 155 22T82 114T58 246Q58 304 72 364T114 479T182 577T275 646T390 672Q446 672 483 644T542 580L518 564Q499 599 467 622T388 646Q330 646 283 622T200 557T138 464T101
358T88 252Q88 185 108 131T170 46T280 14Q328 14 366 31T442 80L460 60Q418 26 375 7T278 -12ZM152 -216L150 -192Q212 -190 243 -174T274 -132Q274 -109 257 -99T206 -86L262 2H290L248 -68Q283 -77 293 -90T304 -124Q304 -167 262 -190T152 -216Z" />
<glyph unicode="&#xc8;" glyph-name="Egrave" horiz-adv-x="484" d="M40 0L172 660H514L508 634H196L142 364H406L400 338H138L74 26H396L390 0H40ZM382 706L272 828L296 848L398 720L382 706Z" />
<glyph unicode="&#xc9;" glyph-name="Eacute" horiz-adv-x="484" d="M40 0L172 660H514L508 634H196L142 364H406L400 338H138L74 26H396L390 0H40ZM342 716L330 732L470 842L488 816L342 716Z" />
<glyph unicode="&#xca;" glyph-name="Ecircumflex" horiz-adv-x="484" d="M40 0L172 660H514L508 634H196L142 364H406L400 338H138L74 26H396L390 0H40ZM250 709L236 725L372 839H400L496 725L480 711L386 811H382L250 709Z" />
<glyph unicode="&#xcb;" glyph-name="Edieresis" horiz-adv-x="484" d="M40 0L172 660H514L508 634H196L142 364H406L400 338H138L74 26H396L390 0H40ZM288 726Q262 726 262 752Q262 769 272 779T294 790Q320 790 320 762Q320 747 310 737T288 726ZM454 726Q428
726 428 752Q428 769 438 779T460 790Q486 790 486 762Q486 747 476 737T454 726Z" />
<glyph unicode="&#xcc;" glyph-name="Igrave" horiz-adv-x="218" d="M40 0L172 660H202L70 0H40ZM222 706L112 828L136 848L238 720L222 706Z" />
<glyph unicode="&#xcd;" glyph-name="Iacute" horiz-adv-x="218" d="M40 0L172 660H202L70 0H40ZM182 716L170 732L310 842L328 816L182 716Z" />
<glyph unicode="&#xce;" glyph-name="Icircumflex" horiz-adv-x="218" d="M40 0L172 660H202L70 0H40ZM90 965L76 981L212 1095H240L336 981L320 967L226 1067H222L90 965Z" />
<glyph unicode="&#xcf;" glyph-name="Idieresis" horiz-adv-x="218" d="M40 0L172 660H202L70 0H40ZM128 726Q102 726 102 752Q102 769 112 779T134 790Q160 790 160 762Q160 747 150 737T128 726ZM294 726Q268 726 268 752Q268 769 278 779T300 790Q326 790 326
762Q326 747 316 737T294 726Z" />
<glyph unicode="&#xd0;" glyph-name="Eth" horiz-adv-x="590" d="M58 0L126 338H54L60 362L131 364L190 660H294Q385 660 445 628T534 538T564 404Q564 320 542 247T475 118T365 32T212 0H58ZM92 26H214Q291 26 350 56T451 139T513 259T534 402Q534 470 508 522T428
604T292 634H214L160 364H330L324 338H155L92 26Z" />
<glyph unicode="&#xd1;" glyph-name="Ntilde" horiz-adv-x="600" d="M40 0L172 660H206L390 174L438 42H442Q450 89 457 136T474 230L560 660H590L458 0H426L244 484L194 622H190Q183 574 174 528T156 436L70 0H40ZM476 722Q451 722 434 734T404 764T377 793T342
806Q319 806 300 784T270 724L248 726Q256 771 282 801T348 832Q374 832 390 820T420 790T447 761T482 748Q505 748 523 770T554 830L576 828Q569 783 542 753T476 722Z" />
<glyph unicode="&#xd2;" glyph-name="Ograve" horiz-adv-x="612" d="M274 -12Q202 -12 155 23T85 120T62 262Q62 315 75 372T114 482T177 578T264 646T372 672Q444 672 491 637T561 540T584 398Q584 345 571 288T532 178T469 82T382 14T274 -12ZM276 14Q330 14
374 38T451 102T508 193T542 295T554 394Q554 468 535 525T476 614T370 646Q316 646 272 622T195 558T138 467T104 365T92 266Q92 192 111 135T170 46T276 14ZM426 706L316 828L340 848L442 720L426 706Z" />
<glyph unicode="&#xd3;" glyph-name="Oacute" horiz-adv-x="612" d="M274 -12Q202 -12 155 23T85 120T62 262Q62 315 75 372T114 482T177 578T264 646T372 672Q444 672 491 637T561 540T584 398Q584 345 571 288T532 178T469 82T382 14T274 -12ZM276 14Q330 14
374 38T451 102T508 193T542 295T554 394Q554 468 535 525T476 614T370 646Q316 646 272 622T195 558T138 467T104 365T92 266Q92 192 111 135T170 46T276 14ZM386 716L374 732L514 842L532 816L386 716Z" />
<glyph unicode="&#xd4;" glyph-name="Ocircumflex" horiz-adv-x="612" d="M274 -12Q202 -12 155 23T85 120T62 262Q62 315 75 372T114 482T177 578T264 646T372 672Q444 672 491 637T561 540T584 398Q584 345 571 288T532 178T469 82T382 14T274 -12ZM276 14Q330
14 374 38T451 102T508 193T542 295T554 394Q554 468 535 525T476 614T370 646Q316 646 272 622T195 558T138 467T104 365T92 266Q92 192 111 135T170 46T276 14ZM294 709L280 725L416 839H444L540 725L524 711L430 811H426L294 709Z" />
<glyph unicode="&#xd5;" glyph-name="Otilde" horiz-adv-x="612" d="M274 -12Q202 -12 155 23T85 120T62 262Q62 315 75 372T114 482T177 578T264 646T372 672Q444 672 491 637T561 540T584 398Q584 345 571 288T532 178T469 82T382 14T274 -12ZM276 14Q330 14
374 38T451 102T508 193T542 295T554 394Q554 468 535 525T476 614T370 646Q316 646 272 622T195 558T138 467T104 365T92 266Q92 192 111 135T170 46T276 14ZM486 722Q461 722 444 734T414 764T387 793T352 806Q329 806 310 784T280 724L258 726Q266 771 292 801T358
832Q384 832 400 820T430 790T457 761T492 748Q515 748 533 770T564 830L586 828Q579 783 552 753T486 722Z" />
<glyph unicode="&#xd6;" glyph-name="Odieresis" horiz-adv-x="612" d="M274 -12Q202 -12 155 23T85 120T62 262Q62 315 75 372T114 482T177 578T264 646T372 672Q444 672 491 637T561 540T584 398Q584 345 571 288T532 178T469 82T382 14T274 -12ZM276 14Q330
14 374 38T451 102T508 193T542 295T554 394Q554 468 535 525T476 614T370 646Q316 646 272 622T195 558T138 467T104 365T92 266Q92 192 111 135T170 46T276 14ZM332 726Q306 726 306 752Q306 769 316 779T338 790Q364 790 364 762Q364 747 354 737T332 726ZM498
726Q472 726 472 752Q472 769 482 779T504 790Q530 790 530 762Q530 747 520 737T498 726Z" />
<glyph unicode="&#xd7;" glyph-name="multiply" horiz-adv-x="456" d="M84 148L66 166L224 332L66 496L84 514L242 350L400 514L418 496L260 332L418 166L400 148L242 314L84 148Z" />
<glyph unicode="&#xd8;" glyph-name="Oslash" horiz-adv-x="612" d="M24 -22L2 -4L95 97Q62 165 62 262Q62 315 75 372T114 482T177 578T264 646T372 672Q430 672 472 649T540 584L626 678L642 660L552 561Q569 527 576 486T584 398Q584 345 571 288T532 178T469
82T382 14T274 -12Q218 -12 177 10T109 72L24 -22ZM92 266Q92 181 116 121L519 561Q497 601 461 623T370 646Q316 646 272 622T195 558T138 467T104 365T92 266ZM276 14Q330 14 374 38T451 102T508 193T542 295T554 394Q554 435 549 471T531 537L129 94Q152 57
188 36T276 14Z" />
<glyph unicode="&#xd9;" glyph-name="Ugrave" horiz-adv-x="594" d="M268 -12Q181 -12 132 38T82 180Q82 200 84 219T90 262L170 660H200L122 270Q116 246 114 226T112 188Q112 106 152 60T272 14Q315 14 354 36T425 107T472 238L556 660H586L500 230Q482 140
447 87T365 11T268 -12ZM414 706L304 828L328 848L430 720L414 706Z" />
<glyph unicode="&#xda;" glyph-name="Uacute" horiz-adv-x="594" d="M268 -12Q181 -12 132 38T82 180Q82 200 84 219T90 262L170 660H200L122 270Q116 246 114 226T112 188Q112 106 152 60T272 14Q315 14 354 36T425 107T472 238L556 660H586L500 230Q482 140
447 87T365 11T268 -12ZM374 716L362 732L502 842L520 816L374 716Z" />
<glyph unicode="&#xdb;" glyph-name="Ucircumflex" horiz-adv-x="594" d="M268 -12Q181 -12 132 38T82 180Q82 200 84 219T90 262L170 660H200L122 270Q116 246 114 226T112 188Q112 106 152 60T272 14Q315 14 354 36T425 107T472 238L556 660H586L500 230Q482
140 447 87T365 11T268 -12ZM282 709L268 725L404 839H432L528 725L512 711L418 811H414L282 709Z" />
<glyph unicode="&#xdc;" glyph-name="Udieresis" horiz-adv-x="594" d="M268 -12Q181 -12 132 38T82 180Q82 200 84 219T90 262L170 660H200L122 270Q116 246 114 226T112 188Q112 106 152 60T272 14Q315 14 354 36T425 107T472 238L556 660H586L500 230Q482 140
447 87T365 11T268 -12ZM320 726Q294 726 294 752Q294 769 304 779T326 790Q352 790 352 762Q352 747 342 737T320 726ZM486 726Q460 726 460 752Q460 769 470 779T492 790Q518 790 518 762Q518 747 508 737T486 726Z" />
<glyph unicode="&#xdd;" glyph-name="Yacute" horiz-adv-x="422" d="M140 0L195 273L86 660H116L175 445Q185 409 194 374T214 302H216Q241 337 265 373T315 445L466 660H498L225 273L170 0H140ZM280 716L268 732L408 842L426 816L280 716Z" />
<glyph unicode="&#xde;" glyph-name="Thorn" horiz-adv-x="536" d="M40 0L172 660H202L178 536H314Q404 536 455 500T506 386Q506 278 432 224T230 170H104L70 0H40ZM110 196H224Q476 196 476 384Q476 452 431 481T296 510H172L110 196Z" />
<glyph unicode="&#xdf;" glyph-name="germandbls" horiz-adv-x="512" d="M310 -12Q276 -12 241 2T176 42L194 62Q221 40 249 27T312 14Q344 14 371 28T415 67T432 124Q432 159 416 183T375 227T327 264T287 303T270 356Q270 391 285 416T322 463T366 505T403 553T418
616Q418 655 399 681T334 708Q295 708 264 684T210 620T178 530L72 0H44L152 540Q163 592 188 636T250 707T336 734Q387 734 416 704T446 616Q446 576 431 547T394 496T350 454T313 412T298 362Q298 333 314 313T355 276T403 239T443 194T460 130Q460 91 441 59T388
8T310 -12Z" />
<glyph unicode="&#xe0;" glyph-name="agrave" horiz-adv-x="524" d="M186 -12Q123 -12 85 32T46 160Q46 229 67 289T126 394T210 464T306 490Q350 490 381 468T432 410H436L454 478H478L382 0H358L370 78H366Q329 39 283 14T186 -12ZM188 14Q238 14 285 42T378
122L430 372Q402 422 371 443T304 464Q259 464 218 439T144 371T93 275T74 166Q74 90 105 52T188 14ZM360 570L246 730L272 748L380 584L360 570Z" />
<glyph unicode="&#xe1;" glyph-name="aacute" horiz-adv-x="524" d="M186 -12Q123 -12 85 32T46 160Q46 229 67 289T126 394T210 464T306 490Q350 490 381 468T432 410H436L454 478H478L382 0H358L370 78H366Q329 39 283 14T186 -12ZM188 14Q238 14 285 42T378
122L430 372Q402 422 371 443T304 464Q259 464 218 439T144 371T93 275T74 166Q74 90 105 52T188 14ZM294 580L278 598L432 740L452 716L294 580Z" />
<glyph unicode="&#xe2;" glyph-name="acircumflex" horiz-adv-x="524" d="M186 -12Q123 -12 85 32T46 160Q46 229 67 289T126 394T210 464T306 490Q350 490 381 468T432 410H436L454 478H478L382 0H358L370 78H366Q329 39 283 14T186 -12ZM188 14Q238 14 285 42T378
122L430 372Q402 422 371 443T304 464Q259 464 218 439T144 371T93 275T74 166Q74 90 105 52T188 14ZM212 574L194 590L338 736H366L458 588L438 574L352 706H348L212 574Z" />
<glyph unicode="&#xe3;" glyph-name="atilde" horiz-adv-x="524" d="M186 -12Q123 -12 85 32T46 160Q46 229 67 289T126 394T210 464T306 490Q350 490 381 468T432 410H436L454 478H478L382 0H358L370 78H366Q329 39 283 14T186 -12ZM188 14Q238 14 285 42T378
122L430 372Q402 422 371 443T304 464Q259 464 218 439T144 371T93 275T74 166Q74 90 105 52T188 14ZM408 580Q381 580 365 595T338 631T312 666T276 682Q248 682 231 653T204 582L178 584Q185 613 197 641T229 687T280 706Q307 706 323 691T350 655T376 620T412
604Q441 604 458 634T484 704L510 702Q503 674 491 646T459 599T408 580Z" />
<glyph unicode="&#xe4;" glyph-name="adieresis" horiz-adv-x="524" d="M186 -12Q123 -12 85 32T46 160Q46 229 67 289T126 394T210 464T306 490Q350 490 381 468T432 410H436L454 478H478L382 0H358L370 78H366Q329 39 283 14T186 -12ZM188 14Q238 14 285 42T378
122L430 372Q402 422 371 443T304 464Q259 464 218 439T144 371T93 275T74 166Q74 90 105 52T188 14ZM250 602Q224 602 224 628Q224 645 234 655T256 666Q282 666 282 638Q282 623 272 613T250 602ZM416 602Q390 602 390 628Q390 645 400 655T422 666Q448 666 448
638Q448 623 438 613T416 602Z" />
<glyph unicode="&#xe5;" glyph-name="aring" horiz-adv-x="524" d="M186 -12Q123 -12 85 32T46 160Q46 229 67 289T126 394T210 464T306 490Q350 490 381 468T432 410H436L454 478H478L382 0H358L370 78H366Q329 39 283 14T186 -12ZM188 14Q238 14 285 42T378
122L430 372Q402 422 371 443T304 464Q259 464 218 439T144 371T93 275T74 166Q74 90 105 52T188 14ZM328 548Q295 548 272 567T248 624Q248 667 275 699T346 732Q379 732 402 713T426 656Q426 613 399 581T328 548ZM330 570Q359 570 380 595T402 654Q402 680 387
695T344 710Q315 710 294 686T272 626Q272 601 287 586T330 570Z" />
<glyph unicode="&#xe6;" glyph-name="ae" horiz-adv-x="766" d="M158 -12Q112 -12 76 16T40 102Q40 168 81 209T196 270T370 294Q375 314 376 327T378 356Q378 407 356 435T280 464Q246 464 209 451T136 416L124 440Q157 460 199 475T282 490Q336 490 369 461T406
372Q441 426 489 458T588 490Q665 490 697 443T730 322Q730 298 727 278T718 242H390Q377 176 390 125T438 44T522 14Q557 14 589 28T648 62L662 40Q634 19 598 4T520 -12Q468 -12 427 19T370 96Q319 45 266 17T158 -12ZM164 14Q203 14 255 40T362 122Q356 164
357 196T366 268Q277 266 210 249T106 196T68 108Q68 62 96 38T164 14ZM396 268H696Q702 298 702 328Q702 362 691 393T655 444T586 464Q547 464 508 439T439 369T396 268Z" />
<glyph unicode="&#xe7;" glyph-name="ccedilla" horiz-adv-x="428" d="M210 -12Q134 -12 89 37T44 176Q44 247 66 304T124 403T206 467T298 490Q339 490 366 475T418 432L398 412Q376 439 354 451T296 464Q254 464 214 442T142 380T91 290T72 182Q72 14 212 14Q250
14 282 29T342 66L358 44Q333 25 297 7T210 -12ZM82 -216L80 -192Q142 -190 173 -174T204 -132Q204 -109 187 -99T136 -86L192 2H220L178 -68Q213 -77 223 -90T234 -124Q234 -167 192 -190T82 -216Z" />
<glyph unicode="&#xe8;" glyph-name="egrave" horiz-adv-x="468" d="M224 -12Q142 -12 93 38T44 184Q44 252 65 308T121 405T200 468T290 490Q367 490 399 443T432 322Q432 298 429 278T420 242H78Q63 162 80 112T137 38T226 14Q259 14 291 28T350 62L364 40Q336
19 300 4T224 -12ZM84 268H398Q404 298 404 328Q404 362 393 393T357 444T288 464Q243 464 201 439T128 369T84 268ZM340 570L226 730L252 748L360 584L340 570Z" />
<glyph unicode="&#xe9;" glyph-name="eacute" horiz-adv-x="468" d="M224 -12Q142 -12 93 38T44 184Q44 252 65 308T121 405T200 468T290 490Q367 490 399 443T432 322Q432 298 429 278T420 242H78Q63 162 80 112T137 38T226 14Q259 14 291 28T350 62L364 40Q336
19 300 4T224 -12ZM84 268H398Q404 298 404 328Q404 362 393 393T357 444T288 464Q243 464 201 439T128 369T84 268ZM274 580L258 598L412 740L432 716L274 580Z" />
<glyph unicode="&#xea;" glyph-name="ecircumflex" horiz-adv-x="468" d="M224 -12Q142 -12 93 38T44 184Q44 252 65 308T121 405T200 468T290 490Q367 490 399 443T432 322Q432 298 429 278T420 242H78Q63 162 80 112T137 38T226 14Q259 14 291 28T350 62L364
40Q336 19 300 4T224 -12ZM84 268H398Q404 298 404 328Q404 362 393 393T357 444T288 464Q243 464 201 439T128 369T84 268ZM192 574L174 590L318 736H346L438 588L418 574L332 706H328L192 574Z" />
<glyph unicode="&#xeb;" glyph-name="edieresis" horiz-adv-x="468" d="M224 -12Q142 -12 93 38T44 184Q44 252 65 308T121 405T200 468T290 490Q367 490 399 443T432 322Q432 298 429 278T420 242H78Q63 162 80 112T137 38T226 14Q259 14 291 28T350 62L364 40Q336
19 300 4T224 -12ZM84 268H398Q404 298 404 328Q404 362 393 393T357 444T288 464Q243 464 201 439T128 369T84 268ZM230 602Q204 602 204 628Q204 645 214 655T236 666Q262 666 262 638Q262 623 252 613T230 602ZM396 602Q370 602 370 628Q370 645 380 655T402
666Q428 666 428 638Q428 623 418 613T396 602Z" />
<glyph unicode="&#xec;" glyph-name="igrave" horiz-adv-x="214" d="M44 0L140 478H168L72 0H44ZM212 570L98 730L124 748L232 584L212 570Z" />
<glyph unicode="&#xed;" glyph-name="iacute" horiz-adv-x="214" d="M44 0L140 478H168L72 0H44ZM146 580L130 598L284 740L304 716L146 580Z" />
<glyph unicode="&#xee;" glyph-name="icircumflex" horiz-adv-x="214" d="M44 0L140 478H168L72 0H44ZM64 574L46 590L190 736H218L310 588L290 574L204 706H200L64 574Z" />
<glyph unicode="&#xef;" glyph-name="idieresis" horiz-adv-x="214" d="M44 0L140 478H168L72 0H44ZM102 602Q76 602 76 628Q76 645 86 655T108 666Q134 666 134 638Q134 623 124 613T102 602ZM268 602Q242 602 242 628Q242 645 252 655T274 666Q300 666 300 638Q300
623 290 613T268 602Z" />
<glyph unicode="&#xf0;" glyph-name="eth" horiz-adv-x="514" d="M78 168Q78 127 94 92T141 36T216 14Q260 14 296 38T360 105T402 202T420 317Q396 354 363 384T282 414Q221 414 175 379T104 287T78 168ZM210 -12Q163 -12 127 12T71 76T50 164Q50 217 66 266T114
355T188 417T284 440Q324 440 358 418T420 359Q417 433 398 489T347 590L198 526L190 548L333 609Q311 636 284 659T226 702L242 722Q309 679 358 620L504 682L512 660L372 600Q407 551 427 487T448 340Q448 242 418 162T335 35T210 -12Z" />
<glyph unicode="&#xf1;" glyph-name="ntilde" horiz-adv-x="504" d="M44 0L140 478H164L152 400H156Q201 439 243 464T328 490Q390 490 416 458T442 374Q442 356 441 344T434 310L372 0H344L406 306Q411 329 412 342T414 370Q414 417 393 440T324 464Q291 464
246 439T144 358L72 0H44ZM414 580Q387 580 371 595T344 631T318 666T282 682Q254 682 237 653T210 582L184 584Q191 613 203 641T235 687T286 706Q313 706 329 691T356 655T382 620T418 604Q447 604 464 634T490 704L516 702Q509 674 497 646T465 599T414 580Z"
/>
<glyph unicode="&#xf2;" glyph-name="ograve" horiz-adv-x="500" d="M204 -12Q132 -12 89 37T46 176Q46 243 66 300T122 399T202 466T296 490Q368 490 411 441T454 302Q454 235 434 178T378 79T298 12T204 -12ZM206 14Q247 14 286 36T356 98T407 188T426 296Q426
379 392 421T294 464Q254 464 215 442T144 380T93 290T74 182Q74 100 108 57T206 14ZM364 570L250 730L276 748L384 584L364 570Z" />
<glyph unicode="&#xf3;" glyph-name="oacute" horiz-adv-x="500" d="M204 -12Q132 -12 89 37T46 176Q46 243 66 300T122 399T202 466T296 490Q368 490 411 441T454 302Q454 235 434 178T378 79T298 12T204 -12ZM206 14Q247 14 286 36T356 98T407 188T426 296Q426
379 392 421T294 464Q254 464 215 442T144 380T93 290T74 182Q74 100 108 57T206 14ZM298 580L282 598L436 740L456 716L298 580Z" />
<glyph unicode="&#xf4;" glyph-name="ocircumflex" horiz-adv-x="500" d="M204 -12Q132 -12 89 37T46 176Q46 243 66 300T122 399T202 466T296 490Q368 490 411 441T454 302Q454 235 434 178T378 79T298 12T204 -12ZM206 14Q247 14 286 36T356 98T407 188T426
296Q426 379 392 421T294 464Q254 464 215 442T144 380T93 290T74 182Q74 100 108 57T206 14ZM216 574L198 590L342 736H370L462 588L442 574L356 706H352L216 574Z" />
<glyph unicode="&#xf5;" glyph-name="otilde" horiz-adv-x="500" d="M204 -12Q132 -12 89 37T46 176Q46 243 66 300T122 399T202 466T296 490Q368 490 411 441T454 302Q454 235 434 178T378 79T298 12T204 -12ZM206 14Q247 14 286 36T356 98T407 188T426 296Q426
379 392 421T294 464Q254 464 215 442T144 380T93 290T74 182Q74 100 108 57T206 14ZM412 580Q385 580 369 595T342 631T316 666T280 682Q252 682 235 653T208 582L182 584Q189 613 201 641T233 687T284 706Q311 706 327 691T354 655T380 620T416 604Q445 604 462
634T488 704L514 702Q507 674 495 646T463 599T412 580Z" />
<glyph unicode="&#xf6;" glyph-name="odieresis" horiz-adv-x="500" d="M204 -12Q132 -12 89 37T46 176Q46 243 66 300T122 399T202 466T296 490Q368 490 411 441T454 302Q454 235 434 178T378 79T298 12T204 -12ZM206 14Q247 14 286 36T356 98T407 188T426 296Q426
379 392 421T294 464Q254 464 215 442T144 380T93 290T74 182Q74 100 108 57T206 14ZM254 602Q228 602 228 628Q228 645 238 655T260 666Q286 666 286 638Q286 623 276 613T254 602ZM420 602Q394 602 394 628Q394 645 404 655T426 666Q452 666 452 638Q452 623
442 613T420 602Z" />
<glyph unicode="&#xf7;" glyph-name="divide" horiz-adv-x="456" d="M48 318V344H436V318H48ZM242 114Q229 114 221 124T212 148Q212 162 220 171T242 180Q256 180 264 171T272 148Q272 135 264 125T242 114ZM242 478Q229 478 221 488T212 512Q212 526 220 535T242
544Q256 544 264 535T272 512Q272 499 264 489T242 478Z" />
<glyph unicode="&#xf8;" glyph-name="oslash" horiz-adv-x="500" d="M74 182Q74 125 90 89L401 408Q366 464 294 464Q254 464 215 442T144 380T93 290T74 182ZM18 -22L0 -4L69 67Q46 111 46 176Q46 243 66 300T122 399T202 466T296 490Q378 490 421 429L488 498L506
480L434 406Q454 361 454 302Q454 235 434 178T378 79T298 12T204 -12Q125 -12 83 45L18 -22ZM206 14Q247 14 286 36T356 98T407 188T426 296Q426 347 412 384L103 65Q136 14 206 14Z" />
<glyph unicode="&#xf9;" glyph-name="ugrave" horiz-adv-x="514" d="M184 -12Q123 -12 97 20T70 104Q70 122 72 134T78 168L140 478H168L106 172Q102 150 100 137T98 108Q98 62 119 38T188 14Q221 14 266 39T368 120L440 478H468L372 0H348L360 80H356Q311 41
270 15T184 -12ZM354 570L240 730L266 748L374 584L354 570Z" />
<glyph unicode="&#xfa;" glyph-name="uacute" horiz-adv-x="514" d="M184 -12Q123 -12 97 20T70 104Q70 122 72 134T78 168L140 478H168L106 172Q102 150 100 137T98 108Q98 62 119 38T188 14Q221 14 266 39T368 120L440 478H468L372 0H348L360 80H356Q311 41
270 15T184 -12ZM288 580L272 598L426 740L446 716L288 580Z" />
<glyph unicode="&#xfb;" glyph-name="ucircumflex" horiz-adv-x="514" d="M184 -12Q123 -12 97 20T70 104Q70 122 72 134T78 168L140 478H168L106 172Q102 150 100 137T98 108Q98 62 119 38T188 14Q221 14 266 39T368 120L440 478H468L372 0H348L360 80H356Q311
41 270 15T184 -12ZM206 574L188 590L332 736H360L452 588L432 574L346 706H342L206 574Z" />
<glyph unicode="&#xfc;" glyph-name="udieresis" horiz-adv-x="514" d="M184 -12Q123 -12 97 20T70 104Q70 122 72 134T78 168L140 478H168L106 172Q102 150 100 137T98 108Q98 62 119 38T188 14Q221 14 266 39T368 120L440 478H468L372 0H348L360 80H356Q311
41 270 15T184 -12ZM244 602Q218 602 218 628Q218 645 228 655T250 666Q276 666 276 638Q276 623 266 613T244 602ZM410 602Q384 602 384 628Q384 645 394 655T416 666Q442 666 442 638Q442 623 432 613T410 602Z" />
<glyph unicode="&#xfd;" glyph-name="yacute" horiz-adv-x="408" d="M-40 -222Q-47 -222 -58 -220T-84 -212L-72 -188Q-56 -196 -38 -196Q7 -196 46 -157T116 -54L138 -10L58 478H86L136 166Q142 132 148 95T158 24H162Q180 59 199 94T238 166L408 478H438L138
-66Q119 -103 94 -139T36 -198T-40 -222ZM228 580L212 598L366 740L386 716L228 580Z" />
<glyph unicode="&#xfe;" glyph-name="thorn" horiz-adv-x="520" d="M0 -222L188 722H216L172 506L152 408H154Q193 440 239 465T336 490Q399 490 437 446T476 318Q476 249 455 189T396 84T312 14T216 -12Q173 -12 141 11T86 68H84L62 -42L28 -222H0ZM218 14Q263
14 304 39T378 107T429 203T448 312Q448 388 418 426T334 464Q292 464 241 438T146 372L92 102Q121 54 151 34T218 14Z" />
<glyph unicode="&#xff;" glyph-name="ydieresis" horiz-adv-x="408" d="M-40 -222Q-47 -222 -58 -220T-84 -212L-72 -188Q-56 -196 -38 -196Q7 -196 46 -157T116 -54L138 -10L58 478H86L136 166Q142 132 148 95T158 24H162Q180 59 199 94T238 166L408 478H438L138
-66Q119 -103 94 -139T36 -198T-40 -222ZM184 602Q158 602 158 628Q158 645 168 655T190 666Q216 666 216 638Q216 623 206 613T184 602ZM350 602Q324 602 324 628Q324 645 334 655T356 666Q382 666 382 638Q382 623 372 613T350 602Z" />
<glyph unicode="&#x2013;" glyph-name="endash" horiz-adv-x="462" d="M36 238L42 264H426L418 238H36Z" />
<glyph unicode="&#x2014;" glyph-name="emdash" horiz-adv-x="768" d="M36 238L42 264H732L726 238H36Z" />
<glyph unicode="&#x2018;" glyph-name="quoteleft" horiz-adv-x="202" d="M156 498Q141 498 131 509T120 542Q120 595 147 636T220 702L232 682Q193 658 173 627T152 564Q153 564 154 564T156 564Q170 564 179 557T188 534Q188 519 179 509T156 498Z" />
<glyph unicode="&#x2019;" glyph-name="quoteright" horiz-adv-x="202" d="M126 498L114 518Q153 542 173 573T194 636Q193 636 192 636T190 636Q177 636 168 643T158 666Q158 681 167 691T190 702Q205 702 215 691T226 658Q226 606 199 565T126 498Z" />
<glyph unicode="&#x201a;" glyph-name="quotesinglbase" horiz-adv-x="202" d="M-6 -140L-18 -120Q21 -96 41 -65T62 -2Q61 -2 60 -2T58 -2Q45 -2 36 5T26 28Q26 43 35 53T58 64Q73 64 83 53T94 20Q94 -32 67 -73T-6 -140Z" />
<glyph unicode="&#x201c;" glyph-name="quotedblleft" horiz-adv-x="324" d="M156 498Q141 498 131 509T120 542Q120 595 147 636T220 702L232 682Q193 658 173 627T152 564Q153 564 154 564T156 564Q170 564 179 557T188 534Q188 519 179 509T156 498ZM278 498Q263
498 253 509T242 542Q242 595 269 636T342 702L354 682Q315 658 295 627T274 564Q275 564 276 564T278 564Q292 564 301 557T310 534Q310 519 301 509T278 498Z" />
<glyph unicode="&#x201d;" glyph-name="quotedblright" horiz-adv-x="324" d="M126 498L114 518Q153 542 173 573T194 636Q193 636 192 636T190 636Q177 636 168 643T158 666Q158 681 167 691T190 702Q205 702 215 691T226 658Q226 606 199 565T126 498ZM248 498L236
518Q275 542 295 573T316 636Q315 636 314 636T312 636Q299 636 290 643T280 666Q280 681 289 691T312 702Q327 702 337 691T348 658Q348 606 321 565T248 498Z" />
<glyph unicode="&#x201e;" glyph-name="quotedblbase" horiz-adv-x="324" d="M-6 -140L-18 -120Q21 -96 41 -65T62 -2Q61 -2 60 -2T58 -2Q45 -2 36 5T26 28Q26 43 35 53T58 64Q73 64 83 53T94 20Q94 -32 67 -73T-6 -140ZM116 -140L104 -120Q143 -96 163 -65T184
-2Q183 -2 182 -2T180 -2Q167 -2 158 5T148 28Q148 43 157 53T180 64Q195 64 205 53T216 20Q216 -32 189 -73T116 -140Z" />
<glyph unicode="&#x2022;" glyph-name="bullet" horiz-adv-x="266" d="M126 160Q90 160 66 186T42 252Q42 281 54 308T91 352T148 370Q183 370 206 345T230 278Q230 248 218 221T182 177T126 160Z" />
<glyph unicode="&#x2039;" glyph-name="guilsinglleft" horiz-adv-x="236" d="M142 74L40 240L46 272L204 428L220 412L72 252L162 86L142 74Z" />
<glyph unicode="&#x203a;" glyph-name="guilsinglright" horiz-adv-x="236" d="M36 74L20 90L168 250L78 416L98 428L200 262L194 230L36 74Z" />
</font>
</defs>
</svg>
