<?xml version="1.0" encoding="utf-8"?>
<!-- Generator: Adobe Illustrator 18.1.1, SVG Export Plug-In . SVG Version: 6.00 Build 0)  -->
<svg version="1.1" id="Capa_1" xmlns="http://www.w3.org/2000/svg" xmlns:xlink="http://www.w3.org/1999/xlink" x="0px" y="0px"
	 viewBox="0 0 16 16" enable-background="new 0 0 16 16" xml:space="preserve">
<g>
	<g id="_x33_56._Play">
		<g>
			<path fill="#FFFFFF" d="M15,4C12.8,0.2,7.9-1.1,4,1.1C0.2,3.3-1.1,8.2,1.1,12C3.3,15.9,8.2,17.2,12,15C15.9,12.8,17.2,7.9,15,4z
				 M11.2,13.6c-3.1,1.8-7,0.7-8.7-2.3c-1.8-3.1-0.7-7,2.3-8.7c3.1-1.8,7-0.7,8.7,2.3C15.3,7.9,14.3,11.8,11.2,13.6z M10.9,7.7
				L6.7,5.3C6.3,5,6,5.2,6,5.7l0,4.8c0,0.4,0.3,0.6,0.7,0.4l4.2-2.4C11.3,8.3,11.3,7.9,10.9,7.7z"/>
		</g>
	</g>
</g>
</svg>
