<?xml version="1.0" encoding="UTF-8" standalone="no"?>
<svg
   xmlns:dc="http://purl.org/dc/elements/1.1/"
   xmlns:cc="http://creativecommons.org/ns#"
   xmlns:rdf="http://www.w3.org/1999/02/22-rdf-syntax-ns#"
   xmlns:svg="http://www.w3.org/2000/svg"
   xmlns="http://www.w3.org/2000/svg"
   xml:space="preserve"
   style="enable-background:new 0 0 438.529 438.529;"
   viewBox="0 0 438.529 438.529"
   height="438.529px"
   width="438.529px"
   y="0px"
   x="0px"
   id="Capa_1"
   version="1.1"><metadata
   id="metadata45"><rdf:RDF><cc:Work
       rdf:about=""><dc:format>image/svg+xml</dc:format><dc:type
         rdf:resource="http://purl.org/dc/dcmitype/StillImage" /><dc:title></dc:title></cc:Work></rdf:RDF></metadata><defs
   id="defs43" />
<g
   transform="matrix(0.87288165,0,0,0.87288165,27.872479,27.872605)"
   id="g8">
	<g
   id="g6">
		<path
   id="path2"
   d="m 180.156,225.828 c -1.903,-1.902 -4.093,-2.854 -6.567,-2.854 -2.475,0 -4.665,0.951 -6.567,2.854 L 72.235,320.615 31.123,279.498 c -3.617,-3.61 -7.895,-5.421 -12.847,-5.421 -4.952,0 -9.235,1.811 -12.851,5.421 -3.617,3.621 -5.424,7.905 -5.424,12.854 v 127.907 c 0,4.948 1.807,9.229 5.424,12.847 3.619,3.613 7.902,5.424 12.851,5.424 h 127.906 c 4.949,0 9.23,-1.811 12.847,-5.424 3.615,-3.617 5.424,-7.898 5.424,-12.847 0,-4.949 -1.809,-9.233 -5.424,-12.854 l -41.112,-41.104 94.787,-94.793 c 1.902,-1.903 2.853,-4.086 2.853,-6.564 0,-2.478 -0.953,-4.66 -2.853,-6.57 z" />
		<path
   id="path4"
   d="M 433.11,5.424 C 429.496,1.807 425.212,0 420.263,0 H 292.356 c -4.948,0 -9.227,1.807 -12.847,5.424 -3.614,3.615 -5.421,7.898 -5.421,12.847 0,4.949 1.807,9.233 5.421,12.847 l 41.106,41.112 -94.786,94.787 c -1.901,1.906 -2.854,4.093 -2.854,6.567 0,2.474 0.953,4.665 2.854,6.567 l 32.552,32.548 c 1.902,1.903 4.086,2.853 6.563,2.853 2.477,0 4.661,-0.95 6.563,-2.853 l 94.794,-94.787 41.104,41.109 c 3.62,3.616 7.905,5.428 12.854,5.428 4.949,0 9.229,-1.812 12.847,-5.428 3.614,-3.614 5.421,-7.898 5.421,-12.847 V 18.268 C 438.53,13.315 436.734,9.04 433.11,5.424 Z" />
	</g>
</g>
<g
   id="g10">
</g>
<g
   id="g12">
</g>
<g
   id="g14">
</g>
<g
   id="g16">
</g>
<g
   id="g18">
</g>
<g
   id="g20">
</g>
<g
   id="g22">
</g>
<g
   id="g24">
</g>
<g
   id="g26">
</g>
<g
   id="g28">
</g>
<g
   id="g30">
</g>
<g
   id="g32">
</g>
<g
   id="g34">
</g>
<g
   id="g36">
</g>
<g
   id="g38">
</g>
</svg>