<?xml version="1.0" encoding="UTF-8" standalone="no"?>
<svg
   xmlns:dc="http://purl.org/dc/elements/1.1/"
   xmlns:cc="http://creativecommons.org/ns#"
   xmlns:rdf="http://www.w3.org/1999/02/22-rdf-syntax-ns#"
   xmlns:svg="http://www.w3.org/2000/svg"
   xmlns="http://www.w3.org/2000/svg"
   data-lt-installed="true"
   xml:space="preserve"
   enable-background="new 0 0 512 512"
   viewBox="0 0 512 512"
   height="512px"
   width="512px"
   y="0px"
   x="0px"
   id="Layer_1"
   version="1.1"><metadata
   id="metadata9"><rdf:RDF><cc:Work
       rdf:about=""><dc:format>image/svg+xml</dc:format><dc:type
         rdf:resource="http://purl.org/dc/dcmitype/StillImage" /><dc:title></dc:title></cc:Work></rdf:RDF></metadata><defs
   id="defs7" />
<path
   id="path2"
   d="m 44.818558,90.846994 c -16.815864,0 -30.421875,13.606966 -30.421875,30.421876 v 243.37891 c 0,16.48883 13.130011,29.7089 29.5,30.24414 l 61.707027,-164.5293 c 10.27984,-27.51116 40.19505,-48.24804 69.57813,-48.24804 h 265.125 c 0,-16.81587 -13.60697,-30.42188 -30.42188,-30.42188 H 196.92988 L 166.50801,90.846994 Z M 175.18184,212.53645 c -16.7265,0 -35.23525,12.83327 -41.11719,28.49024 L 64.902542,425.49153 H 432.46504 l 66.96484,-184.375 c 5.73363,-15.71686 -3.29889,-28.58008 -20.02539,-28.58008 z m 160.4414,31.11719 c 6.21134,0 12.54228,0.61524 18.99024,1.84766 6.44796,1.23241 13.04337,3.08205 19.78711,5.54687 v 19.16602 c -6.8029,-3.56751 -13.22199,-6.22524 -19.25586,-7.97657 -6.03388,-1.75132 -11.86069,-2.62695 -17.48047,-2.62695 -9.76068,0 -17.30295,2.07528 -22.62695,6.22656 -5.26485,4.15129 -7.89649,10.0531 -7.89649,17.70703 0,6.42152 1.74419,11.28765 5.23438,14.59571 3.54933,3.24319 10.23485,5.87008 20.05468,7.88086 l 10.82422,2.43164 c 13.36917,2.78914 23.21918,7.7189 29.54883,14.78906 6.38881,7.00529 9.58399,16.40963 9.58399,28.21484 0,14.07545 -4.31836,24.74698 -12.95508,32.01172 -8.57757,7.26475 -21.17806,10.89649 -37.80078,10.89649 -6.2705,0 -12.95602,-0.77921 -20.05469,-2.33594 -7.03952,-1.55673 -14.3441,-3.8596 -21.91602,-6.9082 v -20.23633 c 7.27614,4.4756 14.40441,7.84891 21.38477,10.11914 6.98036,2.27023 13.8422,3.4043 20.58594,3.4043 10.23392,0 18.13077,-2.2045 23.6914,-6.61524 5.56063,-4.41074 8.3418,-10.70216 8.3418,-18.875 0,-7.13502 -2.01258,-12.71477 -6.03516,-16.73633 -3.96342,-4.02155 -10.49941,-7.03805 -19.60937,-9.04883 l -10.91407,-2.33398 c -13.36916,-2.91887 -23.0409,-7.49182 -29.01562,-13.71875 -5.97472,-6.22693 -8.96289,-14.8868 -8.96289,-25.97851 0,-12.84304 4.11135,-22.961 12.33398,-30.35547 8.28179,-7.39448 19.66899,-11.0918 34.16211,-11.0918 z m -141.79492,2.62695 h 17.92383 v 128.72266 h 64.50977 v 16.53906 h -82.4336 z"
   style="fill:#010101;stroke-width:0.95069337" />
<flowRoot
   style="fill:#ffffff;fill-opacity:1;stroke:none;font-family:sans-serif;font-style:normal;font-weight:normal;font-size:40px;line-height:1.25;letter-spacing:0px;word-spacing:0px;"
   id="flowRoot11"
   xml:space="preserve"><flowRegion
     style="fill:#ffffff;"
     id="flowRegion13"><rect
       style="fill:#ffffff;"
       y="242.98305"
       x="193.08475"
       height="158.37288"
       width="219.11864"
       id="rect15" /></flowRegion><flowPara
     id="flowPara17"></flowPara></flowRoot></svg>