<svg width="134" height="32" viewBox="0 0 134 32" fill="none" xmlns="http://www.w3.org/2000/svg">
<path d="M3 4.51385C3.91507 4.53339 4.82097 4.70993 5.68197 5.03651C6.54294 5.35225 7.37527 5.74853 8.16899 6.2206C8.95769 6.68426 9.71775 7.1999 10.4446 7.76443C10.8071 8.04738 11.161 8.33611 11.5098 8.63961C11.6856 8.78992 11.8558 8.94563 12.0258 9.10459C12.1107 9.18245 12.1971 9.26355 12.281 9.3443L12.4075 9.47154L12.5445 9.60743L10.0218 9.6132L10.2469 9.33601L10.4583 9.09054C10.5985 8.92869 10.7382 8.77298 10.8811 8.6169C11.1666 8.31075 11.4576 8.01422 11.7541 7.7273C12.0504 7.44146 12.3581 7.16427 12.6654 6.89537C12.822 6.76236 12.9782 6.62972 13.1348 6.49887L13.3709 6.30459L13.6124 6.11679C14.2548 5.61215 14.9219 5.14645 15.6081 4.71102C16.2944 4.27559 17.0026 3.88522 17.7245 3.52404C19.1691 2.80502 20.6851 2.25667 22.2445 1.88902C23.0233 1.70965 23.8123 1.58323 24.6065 1.51055C25.4026 1.43498 26.2035 1.43305 27 1.50478C26.6653 1.74736 26.3247 1.95246 25.9927 2.17198C25.8279 2.28012 25.6607 2.38825 25.4932 2.48954C25.411 2.54144 25.3284 2.59335 25.2462 2.6485L24.9991 2.80746C24.343 3.2227 23.7034 3.64479 23.0668 4.05499C21.7991 4.88692 20.5688 5.72137 19.3639 6.58214C18.1589 7.4429 16.9837 8.32349 15.8349 9.23616C15.5496 9.46721 15.2611 9.6925 14.9784 9.92931C14.693 10.1575 14.4155 10.3979 14.1356 10.6311C13.8584 10.8708 13.5812 11.1076 13.3133 11.3473C13.1787 11.4688 13.0444 11.587 12.9125 11.7056L12.55 12.0405L11.0185 13.4524L10.0222 12.0466C10.003 12.0178 9.96737 11.9745 9.93722 11.9385L9.84129 11.817L9.64634 11.5715L9.24822 11.0777C8.97916 10.7485 8.70735 10.4203 8.43281 10.093C7.88463 9.44018 7.32651 8.79064 6.754 8.15227C6.1815 7.51391 5.59837 6.88456 4.98338 6.27503C4.35908 5.64355 3.69656 5.05526 3 4.51385V4.51385Z" fill="#14AE5C"/>
<path d="M11.9997 25.8697C10.642 25.8684 9.31158 25.4911 8.1585 24.7803C7.00543 24.0695 6.07552 23.0536 5.47357 21.8469L1.13428 23.6986C2.42249 26.4239 4.7047 28.564 7.52106 29.6874C10.3374 30.8109 13.4786 30.8343 16.3117 29.7529L14.4468 25.4511C13.6614 25.7288 12.8336 25.8705 11.9997 25.8697V25.8697Z" fill="#14AE5C"/>
<path d="M4.71816 18.6502C4.71909 17.4083 5.04291 16.1876 5.65837 15.1059C6.27383 14.0242 7.16014 13.1181 8.23176 12.475L5.18101 8.86548C2.99343 10.3631 1.36943 12.5385 0.563981 15.0503C-0.241469 17.5621 -0.182756 20.2679 0.730901 22.743L5.0783 20.8914C4.83953 20.1679 4.71798 19.4115 4.71816 18.6502V18.6502Z" fill="#14AE5C"/>
<path d="M19.2378 9.1687L15.1641 12.1498C16.5367 12.8118 17.6673 13.8812 18.3989 15.2093L22.7436 13.3577C21.9147 11.7131 20.7151 10.2798 19.2378 9.1687V9.1687Z" fill="#14AE5C"/>
<path d="M24 18.6514C24.0015 17.1632 23.7196 15.6882 23.1689 14.3037L18.8323 16.1527C19.4426 17.794 19.431 19.5991 18.7997 21.2325C18.1684 22.866 16.9604 24.2166 15.4001 25.0334L17.2678 29.3382C19.2855 28.3591 20.9859 26.8387 22.1759 24.9497C23.3659 23.0607 23.9979 20.8787 24 18.6514V18.6514Z" fill="#14AE5C"/>
<path d="M30.328 23.5V12.3H32.92V21.388H38.536V23.5H30.328ZM39.8239 23.5V14.892H42.3199V23.5H39.8239ZM41.0719 13.692C40.6132 13.692 40.2399 13.5587 39.9519 13.292C39.6639 13.0253 39.5199 12.6947 39.5199 12.3C39.5199 11.9053 39.6639 11.5747 39.9519 11.308C40.2399 11.0413 40.6132 10.908 41.0719 10.908C41.5305 10.908 41.9039 11.036 42.1919 11.292C42.4799 11.5373 42.6239 11.8573 42.6239 12.252C42.6239 12.668 42.4799 13.0147 42.1919 13.292C41.9145 13.5587 41.5412 13.692 41.0719 13.692ZM55.6604 14.764C56.343 14.764 56.9457 14.9027 57.4684 15.18C58.0017 15.4467 58.4177 15.8627 58.7164 16.428C59.0257 16.9827 59.1804 17.6973 59.1804 18.572V23.5H56.6844V18.956C56.6844 18.2627 56.5404 17.7507 56.2524 17.42C55.9644 17.0893 55.559 16.924 55.0364 16.924C54.6737 16.924 54.3484 17.0093 54.0604 17.18C53.7724 17.34 53.5484 17.5853 53.3884 17.916C53.2284 18.2467 53.1484 18.668 53.1484 19.18V23.5H50.6524V18.956C50.6524 18.2627 50.5084 17.7507 50.2204 17.42C49.943 17.0893 49.543 16.924 49.0204 16.924C48.6577 16.924 48.3324 17.0093 48.0444 17.18C47.7564 17.34 47.5324 17.5853 47.3724 17.916C47.2124 18.2467 47.1324 18.668 47.1324 19.18V23.5H44.6364V14.892H47.0204V17.244L46.5724 16.556C46.871 15.9693 47.2924 15.5267 47.8364 15.228C48.391 14.9187 49.0204 14.764 49.7244 14.764C50.5137 14.764 51.2017 14.9667 51.7884 15.372C52.3857 15.7667 52.7804 16.3747 52.9724 17.196L52.0924 16.956C52.3804 16.284 52.839 15.7507 53.4684 15.356C54.1084 14.9613 54.839 14.764 55.6604 14.764ZM65.7521 23.628C64.7708 23.628 63.9068 23.436 63.1601 23.052C62.4241 22.668 61.8535 22.1453 61.4481 21.484C61.0428 20.812 60.8401 20.0493 60.8401 19.196C60.8401 18.332 61.0375 17.5693 61.4321 16.908C61.8375 16.236 62.3868 15.7133 63.0801 15.34C63.7735 14.956 64.5575 14.764 65.4321 14.764C66.2748 14.764 67.0321 14.9453 67.7041 15.308C68.3868 15.66 68.9255 16.172 69.3201 16.844C69.7148 17.5053 69.9121 18.3 69.9121 19.228C69.9121 19.324 69.9068 19.436 69.8961 19.564C69.8855 19.6813 69.8748 19.7933 69.8641 19.9H62.8721V18.444H68.5521L67.5921 18.876C67.5921 18.428 67.5015 18.0387 67.3201 17.708C67.1388 17.3773 66.8881 17.1213 66.5681 16.94C66.2481 16.748 65.8748 16.652 65.4481 16.652C65.0215 16.652 64.6428 16.748 64.3121 16.94C63.9921 17.1213 63.7415 17.3827 63.5601 17.724C63.3788 18.0547 63.2881 18.4493 63.2881 18.908V19.292C63.2881 19.7613 63.3895 20.1773 63.5921 20.54C63.8055 20.892 64.0988 21.164 64.4721 21.356C64.8561 21.5373 65.3041 21.628 65.8161 21.628C66.2748 21.628 66.6748 21.5587 67.0161 21.42C67.3681 21.2813 67.6881 21.0733 67.9761 20.796L69.3041 22.236C68.9095 22.684 68.4135 23.0307 67.8161 23.276C67.2188 23.5107 66.5308 23.628 65.7521 23.628ZM75.4299 23.692C74.5339 23.692 73.6752 23.5747 72.8539 23.34C72.0325 23.0947 71.3712 22.78 70.8699 22.396L71.7499 20.444C72.2299 20.7853 72.7952 21.068 73.4459 21.292C74.1072 21.5053 74.7739 21.612 75.4459 21.612C75.9579 21.612 76.3685 21.564 76.6779 21.468C76.9979 21.3613 77.2325 21.2173 77.3819 21.036C77.5312 20.8547 77.6059 20.6467 77.6059 20.412C77.6059 20.1133 77.4885 19.8787 77.2539 19.708C77.0192 19.5267 76.7099 19.3827 76.3259 19.276C75.9419 19.1587 75.5152 19.052 75.0459 18.956C74.5872 18.8493 74.1232 18.7213 73.6539 18.572C73.1952 18.4227 72.7739 18.2307 72.3899 17.996C72.0059 17.7613 71.6912 17.452 71.4459 17.068C71.2112 16.684 71.0939 16.1933 71.0939 15.596C71.0939 14.956 71.2645 14.3747 71.6059 13.852C71.9579 13.3187 72.4805 12.8973 73.1739 12.588C73.8779 12.268 74.7579 12.108 75.8139 12.108C76.5179 12.108 77.2112 12.1933 77.8939 12.364C78.5765 12.524 79.1792 12.7693 79.7019 13.1L78.9019 15.068C78.3792 14.7693 77.8565 14.5507 77.3339 14.412C76.8112 14.2627 76.2992 14.188 75.7979 14.188C75.2965 14.188 74.8859 14.2467 74.5659 14.364C74.2459 14.4813 74.0165 14.636 73.8779 14.828C73.7392 15.0093 73.6699 15.2227 73.6699 15.468C73.6699 15.756 73.7872 15.9907 74.0219 16.172C74.2565 16.3427 74.5659 16.4813 74.9499 16.588C75.3339 16.6947 75.7552 16.8013 76.2139 16.908C76.6832 17.0147 77.1472 17.1373 77.6059 17.276C78.0752 17.4147 78.5019 17.6013 78.8859 17.836C79.2699 18.0707 79.5792 18.38 79.8139 18.764C80.0592 19.148 80.1819 19.6333 80.1819 20.22C80.1819 20.8493 80.0059 21.4253 79.6539 21.948C79.3019 22.4707 78.7739 22.892 78.0699 23.212C77.3765 23.532 76.4965 23.692 75.4299 23.692ZM85.409 23.628C84.6943 23.628 84.0543 23.4893 83.489 23.212C82.9343 22.9347 82.5023 22.5133 82.193 21.948C81.8837 21.372 81.729 20.6413 81.729 19.756V14.892H84.225V19.388C84.225 20.1027 84.3743 20.6307 84.673 20.972C84.9823 21.3027 85.4143 21.468 85.969 21.468C86.353 21.468 86.6943 21.388 86.993 21.228C87.2917 21.0573 87.5263 20.8013 87.697 20.46C87.8677 20.108 87.953 19.6707 87.953 19.148V14.892H90.449V23.5H88.081V21.132L88.513 21.82C88.225 22.4173 87.7983 22.8707 87.233 23.18C86.6783 23.4787 86.0703 23.628 85.409 23.628ZM92.7614 23.5V14.892H95.1454V17.324L94.8094 16.62C95.0654 16.012 95.476 15.5533 96.0414 15.244C96.6067 14.924 97.2947 14.764 98.1054 14.764V17.068C97.9987 17.0573 97.9027 17.052 97.8174 17.052C97.732 17.0413 97.6414 17.036 97.5454 17.036C96.8627 17.036 96.308 17.2333 95.8814 17.628C95.4654 18.012 95.2574 18.6147 95.2574 19.436V23.5H92.7614ZM102.222 23.5L98.6064 14.892H101.182L104.19 22.3H102.91L106.03 14.892H108.43L104.798 23.5H102.222ZM113.487 23.628C112.505 23.628 111.641 23.436 110.895 23.052C110.159 22.668 109.588 22.1453 109.183 21.484C108.777 20.812 108.575 20.0493 108.575 19.196C108.575 18.332 108.772 17.5693 109.167 16.908C109.572 16.236 110.121 15.7133 110.815 15.34C111.508 14.956 112.292 14.764 113.167 14.764C114.009 14.764 114.767 14.9453 115.439 15.308C116.121 15.66 116.66 16.172 117.055 16.844C117.449 17.5053 117.647 18.3 117.647 19.228C117.647 19.324 117.641 19.436 117.631 19.564C117.62 19.6813 117.609 19.7933 117.599 19.9H110.607V18.444H116.286L115.327 18.876C115.327 18.428 115.236 18.0387 115.055 17.708C114.873 17.3773 114.623 17.1213 114.303 16.94C113.983 16.748 113.609 16.652 113.183 16.652C112.756 16.652 112.377 16.748 112.047 16.94C111.727 17.1213 111.476 17.3827 111.295 17.724C111.113 18.0547 111.023 18.4493 111.023 18.908V19.292C111.023 19.7613 111.124 20.1773 111.327 20.54C111.54 20.892 111.833 21.164 112.207 21.356C112.591 21.5373 113.039 21.628 113.551 21.628C114.009 21.628 114.409 21.5587 114.751 21.42C115.103 21.2813 115.423 21.0733 115.711 20.796L117.039 22.236C116.644 22.684 116.148 23.0307 115.551 23.276C114.953 23.5107 114.265 23.628 113.487 23.628ZM120.24 26.732C119.792 26.732 119.349 26.6627 118.912 26.524C118.475 26.3853 118.117 26.1933 117.84 25.948L118.752 24.172C118.944 24.3427 119.163 24.476 119.408 24.572C119.664 24.668 119.915 24.716 120.16 24.716C120.512 24.716 120.789 24.6307 120.992 24.46C121.205 24.3 121.397 24.028 121.568 23.644L122.016 22.588L122.208 22.316L125.296 14.892H127.696L123.808 24.028C123.531 24.7213 123.211 25.2653 122.848 25.66C122.496 26.0547 122.101 26.332 121.664 26.492C121.237 26.652 120.763 26.732 120.24 26.732ZM121.712 23.836L117.872 14.892H120.448L123.424 22.092L121.712 23.836Z" fill="#14AE5C"/>
</svg>
