<svg width="16" height="16" viewBox="0 0 16 16" fill="none" xmlns="http://www.w3.org/2000/svg">
<g clip-path="url(#clip0_13822_15343)">
<path d="M3.77124 2.63086C4.25371 4.26914 4.93465 4.8463 6.63069 5.49031C4.86024 6.09298 4.25358 6.73221 3.77124 8.34976C3.25677 6.71679 2.62558 6.09514 0.911788 5.49031C2.61003 4.92671 3.20931 4.27578 3.77124 2.63086Z" fill="#4A8FBF"/>
<path d="M8 6.63086C8.23106 7.41545 8.55717 7.69186 9.36942 8.00028C8.52154 8.28891 8.231 8.59504 8 9.36971C7.75361 8.58766 7.45133 8.28994 6.63058 8.00028C7.44389 7.73037 7.73088 7.41863 8 6.63086Z" fill="#4A8FBF"/>
<rect x="8.03072" y="2.60713" width="1.5" height="5.53467" transform="rotate(-30 8.03072 2.60713)" stroke="#4A8FBF" stroke-width="0.5"/>
<rect x="10.656" y="7.6543" width="2" height="7.224" transform="rotate(-30 10.656 7.6543)" fill="#4A8FBF"/>
</g>
<defs>
<clipPath id="clip0_13822_15343">
<rect width="16" height="16" fill="white"/>
</clipPath>
</defs>
</svg>
