<?xml version="1.0" encoding="UTF-8" standalone="no"?>
<!-- Created with Inkscape (http://www.inkscape.org/) -->
<svg
   xmlns:dc="http://purl.org/dc/elements/1.1/"
   xmlns:cc="http://creativecommons.org/ns#"
   xmlns:rdf="http://www.w3.org/1999/02/22-rdf-syntax-ns#"
   xmlns:svg="http://www.w3.org/2000/svg"
   xmlns="http://www.w3.org/2000/svg"
   xmlns:xlink="http://www.w3.org/1999/xlink"
   xmlns:sodipodi="http://sodipodi.sourceforge.net/DTD/sodipodi-0.dtd"
   xmlns:inkscape="http://www.inkscape.org/namespaces/inkscape"
   width="744.09448819"
   height="1052.3622047"
   id="svg2"
   sodipodi:version="0.32"
   inkscape:version="0.46"
   sodipodi:docname="logo.svg"
   inkscape:output_extension="org.inkscape.output.svg.inkscape">
  <defs
     id="defs4">
    <linearGradient
       id="linearGradient3161">
      <stop
         style="stop-color:#00407a;stop-opacity:1;"
         offset="0"
         id="stop3163" />
      <stop
         style="stop-color:#3e9baf;stop-opacity:1;"
         offset="1"
         id="stop3165" />
    </linearGradient>
    <inkscape:perspective
       sodipodi:type="inkscape:persp3d"
       inkscape:vp_x="0 : 526.18109 : 1"
       inkscape:vp_y="0 : 1000 : 0"
       inkscape:vp_z="744.09448 : 526.18109 : 1"
       inkscape:persp3d-origin="372.04724 : 350.78739 : 1"
       id="perspective10" />
    <linearGradient
       inkscape:collect="always"
       xlink:href="#linearGradient3161"
       id="linearGradient3167"
       x1="336.79556"
       y1="249.04449"
       x2="336.79556"
       y2="392.93332"
       gradientUnits="userSpaceOnUse" />
    <linearGradient
       inkscape:collect="always"
       xlink:href="#linearGradient3161"
       id="linearGradient3175"
       x1="257.30417"
       y1="595.8642"
       x2="257.30417"
       y2="517.34351"
       gradientUnits="userSpaceOnUse" />
    <linearGradient
       inkscape:collect="always"
       xlink:href="#linearGradient3161"
       id="linearGradient3193"
       gradientUnits="userSpaceOnUse"
       x1="336.79556"
       y1="249.04449"
       x2="336.79556"
       y2="392.93332"
       gradientTransform="translate(-16.256377,-368.66629)" />
    <linearGradient
       inkscape:collect="always"
       xlink:href="#linearGradient3161"
       id="linearGradient3195"
       gradientUnits="userSpaceOnUse"
       x1="257.30417"
       y1="595.8642"
       x2="257.30417"
       y2="517.34351"
       gradientTransform="translate(-12.42669,-482.28274)" />
    <linearGradient
       inkscape:collect="always"
       xlink:href="#linearGradient3161"
       id="linearGradient3209"
       gradientUnits="userSpaceOnUse"
       x1="336.79556"
       y1="249.04449"
       x2="336.79556"
       y2="392.93332" />
    <linearGradient
       inkscape:collect="always"
       xlink:href="#linearGradient3161"
       id="linearGradient3211"
       gradientUnits="userSpaceOnUse"
       x1="257.30417"
       y1="595.8642"
       x2="257.30417"
       y2="517.34351" />
  </defs>
  <sodipodi:namedview
     id="base"
     pagecolor="#ffffff"
     bordercolor="#666666"
     borderopacity="1.0"
     gridtolerance="10000"
     guidetolerance="10"
     objecttolerance="10"
     inkscape:pageopacity="0.0"
     inkscape:pageshadow="2"
     inkscape:zoom="0.7"
     inkscape:cx="263.92548"
     inkscape:cy="602.61379"
     inkscape:document-units="px"
     inkscape:current-layer="layer1"
     showgrid="false"
     inkscape:window-width="1154"
     inkscape:window-height="1005"
     inkscape:window-x="1276"
     inkscape:window-y="-4" />
  <metadata
     id="metadata7">
    <rdf:RDF>
      <cc:Work
         rdf:about="">
        <dc:format>image/svg+xml</dc:format>
        <dc:type
           rdf:resource="http://purl.org/dc/dcmitype/StillImage" />
      </cc:Work>
    </rdf:RDF>
  </metadata>
  <g
     inkscape:label="Layer 1"
     inkscape:groupmode="layer"
     id="layer1">
    <g
       id="g3177">
      <text
         sodipodi:linespacing="125%"
         id="text2383"
         y="392.04257"
         x="113.2373"
         style="font-size:209.98257446000002000px;font-style:normal;font-variant:normal;font-weight:normal;font-stretch:normal;text-align:start;line-height:125%;writing-mode:lr-tb;text-anchor:start;fill:url(#linearGradient3167);fill-opacity:1;stroke:none;stroke-width:1px;stroke-linecap:butt;stroke-linejoin:miter;stroke-opacity:1;font-family:World of Water;-inkscape-font-specification:World of Water"
         xml:space="preserve"><tspan
           style="fill-opacity:1;fill:url(#linearGradient3167)"
           y="392.04257"
           x="113.2373"
           id="tspan2385"
           sodipodi:role="line">Lime</tspan></text>
      <text
         transform="scale(1.3081824,0.7644194)"
         sodipodi:linespacing="125%"
         id="text2387"
         y="572.02045"
         x="93.13694"
         style="font-size:114.62914275999999000px;font-style:normal;font-variant:normal;font-weight:normal;font-stretch:normal;text-align:start;line-height:125%;writing-mode:lr-tb;text-anchor:start;fill:url(#linearGradient3175);fill-opacity:1;stroke:none;stroke-width:1px;stroke-linecap:butt;stroke-linejoin:miter;stroke-opacity:1;font-family:World of Water;-inkscape-font-specification:World of Water"
         xml:space="preserve"><tspan
           style="fill-opacity:1;fill:url(#linearGradient3175)"
           y="572.02045"
           x="93.13694"
           id="tspan2389"
           sodipodi:role="line">survey</tspan></text>
    </g>
    <g
       id="g3214"
       inkscape:export-filename="C:\Documents and Settings\jdecock\Desktop\limespired\logo-txt.png"
       inkscape:export-xdpi="40.107407"
       inkscape:export-ydpi="40.107407">
      <g
         transform="translate(2.8571429,360)"
         id="use3197">
        <path
           sodipodi:nodetypes="ccsccccscccccccccccsssccccssscccccscsccccsccssssccccccccscc"
           id="text3201"
           d="M 219.49099,392.04257 L 170.56469,392.04257 C 156.56496,392.04257 145.75013,388.01825 138.12018,379.9696 C 130.49018,371.92097 126.67519,360.82632 126.67521,346.68562 L 126.67521,249.04449 L 155.86437,249.04449 L 155.86437,353.40778 C 155.86433,357.18435 157.68425,360.82312 161.32413,364.32408 C 164.96391,367.82509 168.74258,369.57559 172.66016,369.57556 L 219.49099,369.57556 L 219.49099,392.04257 z M 263.20746,392.04257 L 235.49217,392.04257 L 235.49217,290.8321 L 263.20746,290.8321 L 263.20746,392.04257 z M 434.31173,392.04257 L 406.8015,392.04257 L 406.8015,330.51783 C 406.80137,325.47681 405.08718,321.382 401.65895,318.23339 C 398.23046,315.08492 393.99574,313.51065 388.95478,313.51058 C 382.79429,313.51065 378.34916,314.8051 375.6194,317.39392 C 372.88942,319.98289 371.52448,324.35752 371.52458,330.51783 L 371.52458,392.04257 L 343.80929,392.04257 L 343.80929,330.51783 C 343.80922,325.47681 342.09397,321.382 338.66354,318.23339 C 335.23297,315.08492 330.99932,313.51065 325.96257,313.51058 C 319.80214,313.51065 315.35702,314.8051 312.62719,317.39392 C 309.89727,319.98289 308.53234,324.35752 308.53237,330.51783 L 308.53237,392.04257 L 280.81068,392.04257 L 280.81068,325.48102 C 280.81066,314.83928 285.85175,306.36984 295.93393,300.07267 C 304.61055,294.74972 314.62008,292.0882 325.96257,292.0881 C 338.27898,292.0882 348.77767,295.79852 357.45867,303.21907 C 364.45629,295.79852 374.95498,292.0882 388.95478,292.0881 C 400.15184,292.0882 410.16137,294.74972 418.98341,300.07267 C 429.20213,306.36984 434.31157,314.83928 434.31173,325.48102 L 434.31173,392.04257 z M 546.9159,392.25404 C 530.11789,392.53173 516.67999,392.67057 506.60216,392.67057 C 506.87979,392.67057 504.8484,392.53173 500.508,392.25404 C 497.15008,392.11306 492.04064,391.55342 485.17969,390.5751 C 473.42282,387.91359 464.21964,382.45277 457.57013,374.19264 C 450.92059,365.93255 447.59583,355.78311 447.59583,343.74427 C 447.59583,328.48864 452.63477,316.06537 462.71268,306.47442 C 472.79055,296.88363 485.45947,292.0882 500.71947,292.0881 C 513.74078,292.0882 524.58979,295.72803 533.26652,303.0076 C 542.366,310.71029 546.91579,320.99965 546.9159,333.87571 L 546.9159,345.00668 L 475.94553,345.00668 C 477.06479,362.2233 485.53423,370.83158 501.35388,370.83156 L 546.9159,370.83156 L 546.9159,392.25404 z M 517.3102,324.21861 C 515.07154,317.08 509.82113,313.51065 501.55894,313.51058 C 491.89966,313.51065 484.76098,317.08 480.14287,324.21861 L 517.3102,324.21861 z"
           style="font-size:209.98257446px;font-style:normal;font-variant:normal;font-weight:normal;font-stretch:normal;text-align:start;line-height:125%;writing-mode:lr-tb;text-anchor:start;fill:url(#linearGradient3209);fill-opacity:1;stroke:none;stroke-width:1px;stroke-linecap:butt;stroke-linejoin:miter;stroke-opacity:1;font-family:World of Water;-inkscape-font-specification:World of Water" />
        <text
           transform="scale(1.3081824,0.7644194)"
           sodipodi:linespacing="125%"
           id="text3205"
           y="572.02045"
           x="93.13694"
           style="font-size:114.62914276px;font-style:normal;font-variant:normal;font-weight:normal;font-stretch:normal;text-align:start;line-height:125%;writing-mode:lr-tb;text-anchor:start;fill:url(#linearGradient3211);fill-opacity:1;stroke:none;stroke-width:1px;stroke-linecap:butt;stroke-linejoin:miter;stroke-opacity:1;font-family:World of Water;-inkscape-font-specification:World of Water"
           xml:space="preserve"><tspan
             style="fill:url(#linearGradient3211);fill-opacity:1"
             y="572.02045"
             x="93.13694"
             id="tspan3207"
             sodipodi:role="line">survey</tspan></text>
      </g>
    </g>
  </g>
</svg>
