<svg width="13" height="11" viewBox="0 0 11 9" fill="none" xmlns="http://www.w3.org/2000/svg">
<path d="M10.7533 4.12297L7.50329 0.872965C7.40742 0.778715 7.27525 0.720215 7.12954 0.720215C6.83487 0.720215 6.59654 0.95909 6.59654 1.25322C6.59654 1.39892 6.65504 1.53109 6.74983 1.62697L9.07412 3.95126H0.626833C0.324042 3.95126 0.078125 4.19663 0.078125 4.49997C0.078125 4.8033 0.3235 5.04867 0.626833 5.04867H9.07412L6.74983 7.37297C6.65125 7.46992 6.59004 7.60426 6.59004 7.75322C6.59004 8.04788 6.82892 8.28622 7.12304 8.28622C7.272 8.28622 7.40633 8.22501 7.50329 8.12697L10.7533 4.87697C10.8497 4.78055 10.9093 4.6473 10.9093 4.49997C10.9093 4.35263 10.8497 4.21938 10.7533 4.12297Z" fill="#8146F6"/>
</svg>
