<svg width="11" height="14" viewBox="0 0 11 14" fill="none" xmlns="http://www.w3.org/2000/svg">
<path d="M7.74 6.34C9.51333 6.91333 10.4 8.14 10.4 10.02C10.4 11.2733 9.99333 12.2533 9.18 12.96C8.36667 13.6533 7.25333 14 5.84 14H0V0H5.28C7.94667 0 9.28 1.12667 9.28 3.38C9.28 4.76667 8.76667 5.75333 7.74 6.34ZM2.56 5.5H4.9C5.52667 5.5 5.99333 5.37333 6.3 5.12C6.60667 4.85333 6.76 4.44667 6.76 3.9C6.76 3.32667 6.60667 2.91333 6.3 2.66C5.99333 2.40667 5.52667 2.28 4.9 2.28H2.56V5.5ZM5.46 11.72C6.20667 11.72 6.77333 11.5733 7.16 11.28C7.56 10.9733 7.76 10.46 7.76 9.74C7.76 9.03333 7.55333 8.53333 7.14 8.24C6.74 7.93333 6.18 7.78 5.46 7.78H2.56V11.72H5.46Z" fill="#32373C"/>
</svg>
