<svg width="19" height="19" viewBox="0 0 19 19" fill="none" xmlns="http://www.w3.org/2000/svg">
<path d="M17.2 5.14999V16.15C17.2 16.85 16.6 17.35 16 17.35H3V18.85H16C17.5 18.85 18.7 17.65 18.7 16.05V5.14999H17.2ZM15 13.55V1.74999C15 0.849994 14.3 0.149994 13.4 0.149994H1.6C0.7 0.149994 0 0.849994 0 1.74999V13.55C0 14.45 0.7 15.15 1.6 15.15H13.4C14.3 15.15 15 14.45 15 13.55ZM1.5 13.55V1.74999C1.5 1.64999 1.6 1.64999 1.6 1.64999H13.4C13.5 1.64999 13.5 1.74999 13.5 1.74999V13.55C13.5 13.65 13.4 13.65 13.4 13.65H1.6L1.5 13.55Z" fill="black"/>
</svg>
