<svg width="18" height="18" viewBox="0 0 18 18" fill="none" xmlns="http://www.w3.org/2000/svg">
<path fillRule="evenodd" clipRule="evenodd" d="M2.51749 5.75C3.41755 3.95823 5.03863 2.5911 6.99995 2.02939C6.5354 2.56854 6.13576 3.20527 5.80951 3.90523C5.54437 4.47408 5.3235 5.09299 5.15326 5.75H2.51749ZM1.96262 7.25C1.82371 7.81044 1.75 8.39661 1.75 9C1.75 9.60339 1.82371 10.1896 1.96262 10.75H4.86318C4.78881 10.1834 4.75 9.59803 4.75 8.99997C4.75 8.40189 4.78881 7.81651 4.86317 7.25H1.96262ZM6.37773 7.25C6.29449 7.80919 6.25 8.39511 6.25 8.99997C6.25 9.60489 6.2945 10.1908 6.37774 10.75H11.6223C11.7055 10.1908 11.75 9.60489 11.75 9.00003C11.75 8.39515 11.7055 7.80921 11.6223 7.25H6.37773ZM13.1368 7.25C13.2112 7.81653 13.25 8.40193 13.25 9.00003C13.25 9.59811 13.2112 10.1835 13.1368 10.75H16.0374C16.1763 10.1896 16.25 9.60339 16.25 9C16.25 8.39661 16.1763 7.81044 16.0374 7.25H13.1368ZM15.4825 5.75H12.8467C12.6765 5.09302 12.4556 4.47413 12.1905 3.90529C11.8642 3.2053 11.4646 2.56854 11 2.02937C12.9613 2.59107 14.5824 3.95821 15.4825 5.75ZM11.2894 5.75H6.71058C6.84009 5.31962 6.99413 4.91428 7.16908 4.53893C7.66446 3.47611 8.30802 2.69218 8.99996 2.23256C9.69194 2.69217 10.3355 3.47613 10.8309 4.53899C11.0059 4.91433 11.1599 5.31964 11.2894 5.75ZM2.51749 12.25H5.15328C5.33284 12.943 5.56873 13.5936 5.85353 14.1879C6.17113 14.8505 6.5558 15.455 7.00007 15.9706C5.03869 15.409 3.41757 14.0418 2.51749 12.25ZM11.2894 12.25H6.7106C6.8492 12.7106 7.01588 13.1424 7.2062 13.5396C7.6974 14.5645 8.32608 15.3198 9.0001 15.7674C9.69202 15.3078 10.3356 14.5239 10.8309 13.4611C11.0059 13.0857 11.1599 12.6804 11.2894 12.25ZM12.1905 14.0948C12.4556 13.5259 12.6765 12.907 12.8467 12.25H15.4825C14.5824 14.0418 12.9614 15.4089 11.0001 15.9706C11.4646 15.4315 11.8642 14.7947 12.1905 14.0948ZM0.25 9C0.25 4.16751 4.16751 0.25 9 0.25C13.8325 0.25 17.75 4.16751 17.75 9C17.75 13.8325 13.8325 17.75 9 17.75C4.16751 17.75 0.25 13.8325 0.25 9Z" fill="#1E1E1E"/>
</svg>
