<svg width="14" height="13" viewBox="0 0 14 13" fill="none" xmlns="http://www.w3.org/2000/svg">
<path fillRule="evenodd" clipRule="evenodd" d="M12.5017 5.5C12.5017 7.70914 10.7108 9.5 8.50169 9.5C6.29255 9.5 4.50169 7.70914 4.50169 5.5C4.50169 3.29086 6.29255 1.5 8.50169 1.5C10.7108 1.5 12.5017 3.29086 12.5017 5.5ZM14.0017 5.5C14.0017 8.53757 11.5393 11 8.50169 11C7.10474 11 5.82942 10.4792 4.85932 9.62115L1.49557 12.5644L0.507812 11.4356L3.88086 8.48415C3.32462 7.62461 3.00169 6.60002 3.00169 5.5C3.00169 2.46243 5.46412 0 8.50169 0C11.5393 0 14.0017 2.46243 14.0017 5.5Z" fill="#1E1E1E"/>
</svg>
