<svg width="24" height="24" viewBox="0 0 24 24" fill="none" xmlns="http://www.w3.org/2000/svg">
<g id="block-calendar">
<path id="Shape" fillRule="evenodd" clipRule="evenodd" d="M19.5 7H4.5V19C4.5 19.2761 4.72386 19.5 5 19.5H19C19.2761 19.5 19.5 19.2761 19.5 19V7ZM3 7V5C3 3.89543 3.89543 3 5 3H19C20.1046 3 21 3.89543 21 5V7V19C21 20.1046 20.1046 21 19 21H5C3.89543 21 3 20.1046 3 19V7ZM7 10H9V12H7V10ZM9 14H7V16H9V14ZM11 10H13V12H11V10ZM17 10H15V12H17V10ZM11 14H13V16H11V14ZM17 14H15V16H17V14Z" fill="#6e748c"/>
</g>
</svg>
