<?xml version="1.0" standalone="no"?>
<!DOCTYPE svg PUBLIC "-//W3C//DTD SVG 1.1//EN" "http://www.w3.org/Graphics/SVG/1.1/DTD/svg11.dtd">
<svg xmlns="http://www.w3.org/2000/svg">
<defs >
<font id="Raleway" horiz-adv-x="550" ><font-face
    font-family="Raleway Thin SemiBold"
    units-per-em="1000"
    panose-1="0 0 0 0 0 0 0 0 0 0"
    ascent="940"
    descent="-234"
    alphabetic="0" />
<glyph unicode=" " horiz-adv-x="242" />
<glyph unicode="!" horiz-adv-x="274" d="M72 253L170 717H280L182 253H72ZM18 0L47 137H157L128 0H18Z" />
<glyph unicode="&quot;" horiz-adv-x="351" d="M103 501L150 721H244L197 501H103ZM236 501L283 721H377L330 501H236Z" />
<glyph unicode="#" horiz-adv-x="678" d="M670 436H536L468 278H592L575 194H430L344 0H255L341 194H210L124 0H34L121 194H14L32 278H159L227 436H109L126 514H263L350 710H439L352 514H484L570 710H659L572 514H687L670 436ZM379 278L447 436H316L248 278H379Z" />
<glyph unicode="$" horiz-adv-x="603" d="M226 51L276 50L242 -112H191L226 51ZM235 64L359 644L396 652L271 62L235 64ZM388 815H439L406 661L353 653L388 815ZM537 543Q531 554 516 566T478 590T428 608T370 615Q320 615 287 600T238 559T222 499Q222 473 238
456T285 428T363 403Q419 388 459 368T523 317T546 236Q546 173 522 127T456 51T361 7T249 -7Q173 -7 106 17T-11 89L62 185Q70 172 89 157T137 127T199 104T272 94Q343 94 381 123T420 202Q420 231 400 250T345 282T261 309Q208 325 172 344T117 392T98 461Q98
521 121 568T186 648T281 698T394 715Q441 715 480 705T551 676T607 635L537 543Z" />
<glyph unicode="%" horiz-adv-x="732" d="M216 423Q160 423 126 458T91 546Q91 593 118 632T188 696T278 720Q334 720 368 685T403 597Q403 550 376 510T307 447T216 423ZM227 480Q251 480 273 496T310 537T324 590Q324 621 308 642T267 663Q243 663 221 648T184
607T170 553Q170 522 186 501T227 480ZM477 -10Q422 -10 388 25T353 113Q353 160 380 199T450 263T540 287Q596 287 630 252T664 164Q664 117 638 78T569 14T477 -10ZM489 47Q513 47 535 62T571 103T586 157Q586 188 570 209T528 230Q504 230 482 215T445 174T431
120Q431 89 447 68T489 47ZM26 40L364 373L687 716L729 671L397 342L68 -6L26 40Z" />
<glyph unicode="&amp;" horiz-adv-x="684" d="M190 -10Q136 -10 98 12T38 73T16 159Q16 208 35 246T88 315T161 372T244 424L295 355Q242 327 204 299T144 241T123 171Q123 126 150 101T216 76Q259 76 301 101T380 172T444 280T483 416H578Q559 319 520 241T426
106T312 20T190 -10ZM212 361Q187 398 171 427T148 480T140 528Q140 583 170 625T250 693T357 719Q394 719 427 706T484 667T522 603L446 550Q433 589 406 613T343 637Q317 637 294 625T257 591T243 546Q243 533 248 517T267 477T304 420L596 0H457L212 361ZM494
416H662L647 334H479L494 416Z" />
<glyph unicode="&apos;" horiz-adv-x="219" d="M103 500L150 721H244L197 500H103Z" />
<glyph unicode="(" horiz-adv-x="291" d="M39 262Q39 350 70 430T155 588T274 750L350 714Q317 673 281 620T214 508T162 388T142 270Q142 229 148 182T167 87T195 -6L105 -47Q86 -1 71 51T47 158T39 262Z" />
<glyph unicode=")" horiz-adv-x="290" d="M272 432Q272 366 254 305T203 184T128 67T38 -47L-35 -6Q24 68 69 138T141 279T167 424Q167 479 159 535T138 639T116 714L208 750Q235 674 253 591T272 432Z" />
<glyph unicode="*" horiz-adv-x="329" d="M126 530L183 597L122 619L148 669L209 640L221 716H281L261 640L336 669L340 619L269 597L298 530L248 500L221 571L163 500L126 530Z" />
<glyph unicode="+" horiz-adv-x="421" d="M380 399V311H270V190H170V311H59V399H170V520H270V399H380Z" />
<glyph unicode="," horiz-adv-x="218" d="M-11 -97L34 6H-1L24 128H122L97 6L40 -97H-11Z" />
<glyph unicode="-" horiz-adv-x="404" d="M43 224L64 323H349L328 224H43Z" />
<glyph unicode="." horiz-adv-x="212" d="M-3 0L24 128H116L88 0H-3Z" />
<glyph unicode="/" horiz-adv-x="659" d="M711 710L96 0H-26L589 710H711Z" />
<glyph unicode="0" horiz-adv-x="594" d="M231 -10Q173 -10 131 20T66 102T43 223Q43 301 68 368T139 487T241 568T360 597Q418 597 460 567T525 484T549 363Q549 286 523 218T452 99T351 19T231 -10ZM252 92Q289 92 321 112T380 168T421 250T436 351Q436 415
411 455T339 495Q302 495 268 475T209 419T169 336T154 235Q154 171 180 132T252 92Z" />
<glyph unicode="1" horiz-adv-x="455" d="M23 99H158L232 448Q221 436 200 423T154 399T104 380T61 373L83 476Q102 476 129 488T184 516T232 548T257 571H370L270 99H391L370 0H1L23 99Z" />
<glyph unicode="2" horiz-adv-x="529" d="M-23 0Q-14 42 0 78T37 145T96 205T184 260Q225 281 260 298T322 331T363 368T378 414Q378 433 370 448T343 474T295 484Q270 484 248 477T207 458T171 432T140 405L87 486Q100 498 124 513T181 544T253 570T336 581Q391
581 428 563T484 515T503 445Q503 402 485 369T440 312T381 269T323 237Q302 227 277 213T228 182T183 144T150 99H442L421 0H-23Z" />
<glyph unicode="3" horiz-adv-x="528" d="M153 -147Q81 -147 32 -121T-42 -44L40 32Q55 -4 86 -25T171 -47Q221 -47 255 -31T308 16T327 91Q327 137 296 163T201 189H175L194 275H222Q270 275 305 292T360 340T379 406Q379 442 355 460T289 479Q242 479 201 457T129
394L77 469Q102 501 140 525T226 562T322 576Q405 576 452 536T500 430Q500 385 479 344T422 273T341 236Q388 227 414 189T441 97Q441 26 404 -29T302 -116T153 -147Z" />
<glyph unicode="4" horiz-adv-x="546" d="M257 32H-31L-10 130L407 571H482L388 132H472L451 32H367L333 -127H223L257 32ZM290 132L348 403L102 132H290Z" />
<glyph unicode="5" horiz-adv-x="531" d="M155 -149Q83 -149 32 -115T-37 -21L41 42Q59 -1 95 -26T176 -52Q210 -52 239 -40T292 -5T328 48T341 115Q341 162 314 191T242 221Q207 221 173 204T114 156H17Q22 170 35 203T66 281T102 372T137 461T166 533T182 571H513L491
470H241L167 276Q186 294 214 305T277 317Q332 317 372 294T434 229T456 134Q456 73 432 21T366 -69T269 -128T155 -149Z" />
<glyph unicode="6" horiz-adv-x="591" d="M237 -10Q296 -10 350 13T447 76T514 168T539 279Q539 335 516 378T450 448T350 474Q316 474 283 462T223 429T175 377Q192 454 223 508T294 590T380 619Q426 619 458 595T504 528L583 596Q561 652 514 683T403 715Q323
715 258 676T145 568T71 410T45 220Q45 113 95 52T237 -10ZM258 84Q225 84 201 100T162 146T148 209Q148 244 162 276T202 332T258 371T321 386Q354 386 379 370T418 326T432 263Q432 227 417 195T377 138T321 99T258 84Z" />
<glyph unicode="7" horiz-adv-x="530" d="M386 482H64L85 583H581L93 -127H-31L386 482Z" />
<glyph unicode="8" horiz-adv-x="579" d="M222 -8Q163 -8 118 15T48 80T22 173Q22 227 46 267T107 336T177 380Q150 395 131 426T112 494Q112 546 136 585T201 653T287 695T376 710Q422 710 464 692T534 638T561 550Q561 511 543 478T495 419T433 380Q467 362
491 325T515 238Q515 184 491 139T425 60T331 10T222 -8ZM245 91Q273 91 300 101T351 131T389 176T404 234Q404 266 389 288T349 322T295 334Q267 334 239 324T188 294T151 249T137 191Q137 161 152 138T192 103T245 91ZM314 418Q335 418 358 425T401 448T434 484T447
533Q447 557 435 575T402 602T355 612Q322 612 292 598T243 559T223 498Q223 473 236 455T270 427T314 418Z" />
<glyph unicode="9" horiz-adv-x="574" d="M172 -154Q251 -154 316 -115T429 -7T503 151T529 341Q529 448 478 509T337 571Q278 571 224 548T127 485T60 393T35 282Q35 227 58 183T124 113T224 87Q259 87 291 99T351 133T399 184Q382 107 351 53T280 -29T194 -58Q149
-58 116 -33T70 33L-9 -35Q13 -91 60 -122T172 -154ZM252 175Q220 175 195 191T156 236T141 298Q141 334 156 366T197 423T253 462T316 477Q349 477 373 461T412 416T426 352Q426 317 412 285T372 229T316 190T252 175Z" />
<glyph unicode=":" horiz-adv-x="220" d="M83 391L110 518H201L174 391H83ZM0 0L28 128H118L91 0H0Z" />
<glyph unicode=";" horiz-adv-x="223" d="M84 391L111 518H201L174 391H84ZM-8 -97L37 6H2L27 128H125L99 6L43 -97H-8Z" />
<glyph unicode="&lt;" horiz-adv-x="549" d="M30 284L450 538V421L189 259L450 101V-21L30 229V284Z" />
<glyph unicode="=" horiz-adv-x="482" d="M80 162V235H389V162H80ZM80 317V390H389V317H80Z" />
<glyph unicode="&gt;" horiz-adv-x="548" d="M500 229L79 -21V101L340 259L79 421V538L500 284V229Z" />
<glyph unicode="?" horiz-adv-x="466" d="M109 221Q117 256 129 285T164 338T222 382Q247 396 275 410T327 444T366 488T381 548Q381 587 357 608T299 629Q270 629 244 616T196 583T158 541L96 590Q121 631 158 660T237 704T322 719Q363 719 399 703T458 653T481
565Q481 519 469 486T436 430T388 388T330 353Q303 338 276 323T229 284T201 221H109ZM64 0L91 126H182L156 0H64Z" />
<glyph unicode="@" horiz-adv-x="811" d="M573 36Q603 36 627 62T668 129T694 216T703 300Q703 350 687 396T639 478T561 536T452 557Q379 557 311 527T189 443T103 318T71 164Q71 88 100 29T182 -65T310 -100Q350 -100 386 -90T464 -62L469 -106Q426 -126 384
-136T300 -146Q218 -146 155 -108T57 -1T22 159Q22 237 47 305T116 427T216 521T336 582T464 603Q532 603 585 580T676 517T733 424T752 313Q752 280 745 237T723 150T685 68T630 7T555 -16Q524 -16 504 -1T483 50Q483 55 483 60T485 70Q450 38 408 18T321 -2Q272
-2 237 22T182 89T162 182Q162 236 182 286T238 375T316 437T408 460Q460 460 493 434T539 369L555 450H617L545 107Q543 97 542 89T541 74Q541 54 549 45T573 36ZM349 56Q379 56 408 71T459 110T493 164L515 297Q502 347 473 372T405 398Q375 398 345 383T289
339T248 275T232 196Q232 156 247 124T289 74T349 56Z" />
<glyph unicode="A" horiz-adv-x="649" d="M365 710H464L578 0H460L432 193H177L68 0H-50L365 710ZM428 276L388 581L214 276H428Z" />
<glyph unicode="B" horiz-adv-x="651" d="M166 710H517Q557 710 583 689T623 635T637 565Q637 523 620 484T572 413T500 364Q544 349 568 312T592 222Q592 170 571 129T514 60T433 16T339 0H15L166 710ZM359 97Q382 97 404 107T443 136T470 177T481 227Q481 251
473 270T449 302T412 314H194L149 97H359ZM404 404Q426 404 446 413T483 440T509 481T519 532Q519 568 502 590T455 613H258L213 404H404Z" />
<glyph unicode="C" horiz-adv-x="655" d="M301 -6Q237 -6 189 19T107 86T58 182T41 291Q41 351 60 411T114 526T198 623T310 689T445 714Q543 714 601 670T677 559L582 502Q570 547 546 571T492 604T427 613Q358 613 308 585T223 510T173 409T156 302Q156 246
175 199T231 123T323 95Q356 95 392 107T462 145T521 212L603 159Q569 104 518 67T411 12T301 -6Z" />
<glyph unicode="D" horiz-adv-x="692" d="M166 710H407Q498 710 556 674T643 575T672 436Q672 342 641 263T553 124T421 33T256 0H15L166 710ZM277 99Q341 99 392 125T480 196T536 298T556 419Q556 476 537 519T480 586T386 611H258L149 99H277Z" />
<glyph unicode="E" horiz-adv-x="579" d="M166 710H621L600 611H258L215 409H511L492 316H195L149 99H500L479 0H15L166 710Z" />
<glyph unicode="F" horiz-adv-x="561" d="M166 710H616L595 611H258L213 399H495L475 306H193L128 0H15L166 710Z" />
<glyph unicode="G" horiz-adv-x="691" d="M292 -5Q235 -5 189 18T110 82T59 176T41 290Q41 373 75 449T166 586T297 680T449 715Q545 715 602 673T679 560L581 498Q566 556 524 585T424 614Q370 614 322 588T236 516T178 415T156 299Q156 242 176 196T233 123T322
96Q376 96 431 125T542 214L519 100Q463 47 407 21T292 -5ZM546 276H406L424 359H657L581 0H487L546 276Z" />
<glyph unicode="H" horiz-adv-x="715" d="M166 710H279L216 413H548L611 710H723L572 0H460L527 313H195L128 0H15L166 710Z" />
<glyph unicode="I" horiz-adv-x="271" d="M166 709H279L128 0H15L166 709Z" />
<glyph unicode="J" horiz-adv-x="475" d="M96 -11Q53 -11 19 0T-41 33L5 125Q17 113 47 102T117 90Q160 90 189 106T239 155T273 236T302 349L379 709H491L414 349Q397 268 375 202T319 88T231 15T96 -11Z" />
<glyph unicode="K" horiz-adv-x="634" d="M166 709H279L201 344L587 710H712L381 396L576 0H450L296 327L173 214L128 0H15L166 709Z" />
<glyph unicode="L" horiz-adv-x="560" d="M166 710H279L149 99H506L485 0H15L166 710Z" />
<glyph unicode="M" horiz-adv-x="834" d="M166 710H286L412 276L723 710H842L691 0H578L687 511L411 124H349L237 511L128 0H15L166 710Z" />
<glyph unicode="N" horiz-adv-x="736" d="M166 710H254L523 198L631 709H744L593 0H501L234 500L128 0H15L166 710Z" />
<glyph unicode="O" horiz-adv-x="725" d="M297 -5Q235 -5 187 19T107 84T58 178T41 289Q41 354 63 416T124 532T215 627T327 691T452 715Q513 715 560 691T641 624T690 529T706 419Q706 355 685 293T624 178T533 83T421 19T297 -5ZM319 96Q378 96 427 124T514
198T571 300T591 411Q591 465 573 511T518 585T429 613Q371 613 321 586T234 512T177 410T156 298Q156 244 174 198T229 124T319 96Z" />
<glyph unicode="P" horiz-adv-x="601" d="M166 710H450Q502 710 539 683T597 611T617 518Q617 469 597 421T540 334T457 271T356 247H180L128 0H15L166 710ZM371 346Q396 346 420 359T462 395T490 447T501 509Q501 540 491 562T462 598T421 611H258L201 346H371Z" />
<glyph unicode="Q" horiz-adv-x="724" d="M297 -5Q235 -5 187 19T107 84T57 178T40 289Q40 354 62 416T124 532T215 627T327 691T452 715Q513 715 560 691T640 624T689 529T706 419Q706 355 685 293T624 178T533 83T421 19T297 -5ZM514 0L358 247H465L623 0H514ZM319
96Q378 96 427 124T514 198T571 300T591 411Q591 465 573 511T518 586T428 614Q370 614 320 586T234 512T177 410T156 298Q156 244 174 198T229 124T319 96Z" />
<glyph unicode="R" horiz-adv-x="637" d="M15 0L166 710H461Q513 710 550 683T607 611T627 518Q627 478 614 439T576 366T519 307T448 270L548 0H421L329 247H180L128 0H15ZM382 346Q407 346 430 359T471 396T500 447T511 506Q511 536 501 559T474 597T433 611H258L201
346H382Z" />
<glyph unicode="S" horiz-adv-x="590" d="M243 -7Q167 -7 100 17T-17 89L56 185Q64 172 83 157T130 127T192 104T266 94Q313 94 346 107T396 144T414 202Q414 231 394 250T339 282T255 309Q202 325 166 344T111 392T92 461Q92 521 115 568T180 648T275 698T388
715Q434 715 473 705T545 676T601 635L531 543Q525 554 510 566T472 590T422 608T364 615Q314 615 281 600T232 559T215 499Q215 473 231 456T279 428T357 403Q413 388 453 368T517 317T540 236Q540 173 516 127T450 51T355 7T243 -7Z" />
<glyph unicode="T" horiz-adv-x="589" d="M303 611H81L102 710H659L638 611H416L286 0H174L303 611Z" />
<glyph unicode="U" horiz-adv-x="722" d="M296 -5Q213 -5 162 27T89 113T66 233Q66 262 69 290T80 350L156 710H269L192 350Q187 324 184 300T181 253Q181 208 194 173T237 117T317 96Q369 96 408 117T476 175T522 257T551 350L627 710H740L663 350Q648 277 618
213T542 100T436 23T296 -5Z" />
<glyph unicode="V" horiz-adv-x="648" d="M91 710H210L287 141L605 710H724L305 0H209L91 710Z" />
<glyph unicode="W" horiz-adv-x="1002" d="M88 710H209L292 130L445 391L397 707H502L532 466L665 707H770L588 391L629 130L958 710H1081L652 0H557L501 318L309 0H214L88 710Z" />
<glyph unicode="X" horiz-adv-x="615" d="M258 350L88 710H212L335 430L577 710H700L378 350L541 0H418L301 270L69 0H-55L258 350Z" />
<glyph unicode="Y" horiz-adv-x="615" d="M237 256L85 710H208L314 354L574 710H696L349 254L295 0H182L237 256Z" />
<glyph unicode="Z" horiz-adv-x="598" d="M-16 86L498 611H106L127 710H650L632 624L128 99H521L500 0H-35L-16 86Z" />
<glyph unicode="[" horiz-adv-x="282" d="M6 -40L172 740H331L313 651H254L126 49H185L166 -40H6Z" />
<glyph unicode="\" horiz-adv-x="579" d="M231 710L493 0H371L108 710H231Z" />
<glyph unicode="]" horiz-adv-x="283" d="M-28 -40L-9 49H49L177 651H119L138 740H298L133 -40H-28Z" />
<glyph unicode="^" horiz-adv-x="572" d="M49 303L247 710H340L537 303H445L294 615L139 303H49Z" />
<glyph unicode="_" horiz-adv-x="470" d="M-27 -99L-6 0H346L325 -99H-27Z" />
<glyph unicode="`" horiz-adv-x="258" d="M150 730H253L284 620L207 601L150 730Z" />
<glyph unicode="a" horiz-adv-x="615" d="M205 -10Q147 -10 105 19T41 97T19 206Q19 270 42 328T105 432T198 505T307 532Q364 532 403 501T457 424L478 522H589L505 130Q504 125 504 122T503 115Q503 95 526 94L506 0Q492 -2 481 -3T461 -5Q430 -5 413 8T396
47Q396 52 396 59T398 75T403 95Q364 45 311 18T205 -10ZM253 84Q273 84 295 92T339 114T379 147T408 188L436 325Q432 357 415 382T374 423T321 438Q283 438 250 420T191 370T150 301T135 224Q135 184 149 153T190 103T253 84Z" />
<glyph unicode="b" horiz-adv-x="605" d="M272 -10Q212 -10 173 19T117 95L97 0H0L155 730H265L201 424Q239 473 290 502T397 532Q454 532 492 503T549 425T569 320Q569 253 545 194T478 88T382 16T272 -10ZM266 84Q302 84 335 101T395 149T437 218T453 299Q453
336 440 367T403 418T343 438Q313 438 283 423T226 382T180 325L150 187Q152 158 168 135T209 98T266 84Z" />
<glyph unicode="c" horiz-adv-x="536" d="M228 -10Q160 -10 114 20T43 100T19 211Q19 274 43 331T110 434T211 505T339 532Q420 532 468 497T531 402L417 368Q406 402 382 420T320 438Q284 438 251 422T191 376T149 308T133 224Q133 183 147 152T186 103T245 84Q270
84 295 93T342 119T374 156L475 124Q451 85 413 55T327 8T228 -10Z" />
<glyph unicode="d" horiz-adv-x="614" d="M205 -10Q147 -10 105 19T41 97T19 206Q19 270 42 328T105 432T198 505T307 532Q364 532 403 501T457 424L522 730H633L505 130Q504 125 504 122T503 115Q503 95 526 94L506 0Q492 -2 481 -3T461 -5Q430 -5 413 8T395
46Q395 51 396 57T398 73T403 95Q364 45 311 18T205 -10ZM253 84Q273 84 295 92T339 114T379 147T408 188L436 325Q432 357 415 382T374 423T321 438Q283 438 250 420T191 370T150 301T135 224Q135 184 149 153T190 103T253 84Z" />
<glyph unicode="e" horiz-adv-x="545" d="M229 -10Q163 -10 116 19T45 98T20 211Q20 276 44 333T112 436T214 506T342 532Q396 532 436 516T499 468T522 388Q522 308 450 266T229 224Q201 224 166 225T87 231L102 302Q142 300 173 298T231 296Q302 296 343 307T402
338T420 385Q420 408 409 422T378 443T330 451Q286 451 249 432T186 378T145 300T130 209Q130 171 142 140T181 90T248 71Q291 71 331 92T394 151L481 124Q456 85 416 55T328 7T229 -10Z" />
<glyph unicode="f" horiz-adv-x="347" d="M117 425H52L70 510H136L140 531Q153 596 183 642T255 714T346 740Q375 740 403 732T456 708L415 626Q403 636 385 641T349 647Q313 647 288 618T251 534L246 510H372L353 425H227L92 -212H-18L117 425Z" />
<glyph unicode="g" horiz-adv-x="605" d="M163 -223Q80 -223 32 -193T-44 -111L30 -53Q50 -95 90 -117T180 -139Q222 -139 261 -123T329 -72T370 15L386 95Q351 48 299 22T196 -5Q140 -5 100 24T40 101T19 206Q19 271 42 329T107 433T202 505T315 532Q375 532
413 502T470 424L491 523H588L480 15Q464 -61 418 -114T305 -195T163 -223ZM251 84Q274 84 297 92T341 115T379 148T406 188L436 325Q431 359 414 384T373 424T319 438Q280 438 247 419T188 369T148 300T133 224Q133 185 148 154T189 103T251 84Z" />
<glyph unicode="h" horiz-adv-x="574" d="M155 730H265L199 418Q239 471 294 501T407 532Q452 532 479 516T517 471T528 405Q528 385 526 364T518 319L451 0H341L403 293Q407 310 408 324T410 352Q410 393 392 413T341 434Q314 434 283 418T223 375T177 311L110
0H0L155 730Z" />
<glyph unicode="i" horiz-adv-x="239" d="M112 523H222L110 0H0L112 523ZM155 730H265L240 609H130L155 730Z" />
<glyph unicode="j" horiz-adv-x="245" d="M-90 -191Q-125 -191 -153 -180T-202 -146L-138 -72Q-128 -84 -114 -89T-83 -95Q-65 -95 -47 -85T-16 -58T2 -19L117 523H227L114 -11Q103 -63 72 -104T-2 -168T-90 -191ZM161 730H271L245 609H135L161 730Z" />
<glyph unicode="k" horiz-adv-x="551" d="M240 246Q330 266 377 308T424 395Q424 419 412 429T378 440Q337 440 293 410T212 330T155 221L177 365Q208 412 245 449T325 509T417 531Q471 531 497 501T524 422Q524 357 483 303T364 213L471 0H353L240 246ZM155 730H265L110
0H0L155 730Z" />
<glyph unicode="l" horiz-adv-x="294" d="M116 -8Q71 -8 46 14T21 77Q21 85 22 94T25 111L156 730H265L143 151Q142 146 141 141T140 131Q140 89 183 89Q194 89 209 93T238 102L234 16Q209 6 176 -1T116 -8Z" />
<glyph unicode="m" horiz-adv-x="887" d="M112 523H211L189 418Q228 471 283 501T396 532Q436 532 462 518T502 477T517 413Q546 452 579 478T650 518T726 532Q770 532 795 516T832 472T843 407Q843 389 840 367T832 319L764 0H654L716 293Q724 329 724 356Q724
396 707 415T660 434Q631 434 602 419T547 375T502 310L437 0H327L389 293Q394 312 395 327T397 357Q397 397 381 415T334 434Q292 434 248 400T177 311L110 0H0L112 523Z" />
<glyph unicode="n" horiz-adv-x="574" d="M112 523H211L189 418Q215 453 251 478T329 518T414 532Q458 532 483 516T519 473T530 410Q530 389 527 366T518 319L451 0H341L403 293Q407 312 409 327T411 357Q411 397 395 415T347 434Q318 434 286 418T224 375T177
311L110 0H0L112 523Z" />
<glyph unicode="o" horiz-adv-x="582" d="M231 -10Q159 -10 112 20T42 100T19 211Q19 276 42 334T109 437T209 507T332 532Q405 532 452 502T523 422T546 311Q546 246 523 188T456 86T356 16T231 -10ZM249 84Q284 84 317 99T375 144T416 211T431 296Q431 338 418
369T379 419T315 438Q280 438 248 422T189 377T148 309T133 225Q133 184 146 152T185 102T249 84Z" />
<glyph unicode="p" horiz-adv-x="606" d="M111 523H208L188 429Q227 476 278 504T386 532Q443 532 484 503T547 424T569 315Q569 252 546 194T484 89T393 17T284 -10Q225 -10 186 20T131 98L65 -213H-45L111 523ZM268 84Q306 84 339 102T398 151T439 220T454 298Q454
337 440 368T399 419T336 438Q316 438 294 430T249 408T210 375T182 335L152 198Q159 166 174 141T214 100T268 84Z" />
<glyph unicode="q" horiz-adv-x="605" d="M387 98Q346 45 295 18T189 -10Q135 -10 97 18T39 95T19 202Q19 269 43 328T111 433T207 505T317 532Q375 532 414 503T471 428L491 523H588L431 -213H321L387 98ZM248 84Q279 84 307 97T360 132T406 184L435 322Q434
353 419 379T378 422T323 438Q287 438 253 420T192 370T150 301T134 221Q134 183 147 152T187 103T248 84Z" />
<glyph unicode="r" horiz-adv-x="366" d="M112 523H214L188 406Q226 460 274 493T369 526Q379 526 385 526T395 524L374 428Q315 427 262 399T178 320L110 0H0L112 523Z" />
<glyph unicode="s" horiz-adv-x="477" d="M183 -10Q120 -10 65 10T-25 69L34 139Q70 106 110 89T195 72Q229 72 254 82T294 110T308 152Q308 183 282 196T203 224Q152 240 119 254T71 289T55 345Q55 400 85 442T168 508T285 532Q344 532 388 514T464 462L403 396Q375
425 345 438T276 451Q243 451 218 442T178 415T163 371Q163 344 183 332T254 306Q308 291 345 274T400 233T419 170Q419 119 390 78T308 14T183 -10Z" />
<glyph unicode="t" horiz-adv-x="355" d="M47 78Q47 86 48 94T51 111L121 438H54L73 523H138L175 695H285L248 523H356L338 438H231L169 146Q168 142 168 139T167 131Q167 111 178 102T208 93Q223 93 237 97T264 105T284 114L288 27Q273 18 251 10T202 -3T148
-8Q105 -8 76 12T47 78Z" />
<glyph unicode="u" horiz-adv-x="586" d="M150 -10Q28 -10 28 120Q28 138 30 158T38 203L107 523H216L152 225Q145 191 145 165Q145 84 214 84Q243 84 272 97T330 135T381 197L450 523H560L477 130Q476 125 475 122T474 115Q474 95 497 94L478 0Q463 -2 452 -3T432
-5Q402 -5 385 8T368 45Q368 50 369 57T372 76T377 106Q332 49 273 20T150 -10Z" />
<glyph unicode="v" horiz-adv-x="517" d="M53 523H167L213 93Q251 149 283 202T342 307T390 414T427 523H530Q494 393 421 262T247 0H130L53 523Z" />
<glyph unicode="w" horiz-adv-x="778" d="M46 523H156L229 98Q257 136 282 174T331 251L267 523H371L404 357Q425 398 442 440T472 523H568Q546 453 515 387T443 254L477 109Q509 152 536 193T587 275T629 356T665 438T695 523H797Q757 393 681 262T499 0H401L368
158Q342 119 315 80T258 0H150L46 523Z" />
<glyph unicode="x" horiz-adv-x="501" d="M182 261L57 523H171L251 344L256 327L268 344L424 523H538L302 261L429 0H314L233 178L227 194L216 178L59 0H-56L182 261Z" />
<glyph unicode="y" horiz-adv-x="510" d="M-40 -140Q2 -135 28 -127T73 -102T114 -53L143 -11L49 523H162L221 97L255 153Q292 213 318 261T364 352T396 436T421 523H529Q516 475 500 433T462 344T407 241T323 103L243 -26Q208 -82 177 -120T115 -181T49 -214T-25
-226L-40 -140Z" />
<glyph unicode="z" horiz-adv-x="470" d="M-22 69L347 445H68L85 523H484L469 454L102 78H392L375 0H-37L-22 69Z" />
<glyph unicode="{" horiz-adv-x="285" d="M262 651L214 427Q211 410 199 392T169 360Q178 350 182 337T187 309Q187 305 187 302T186 293L136 58H188L170 -31H40Q34 -31 29 -27T23 -12Q23 -10 23 -7T24 -1L79 259Q80 263 80 266T80 274Q80 293 72 306T48 322L65
400Q79 400 91 410T111 435T123 461L175 710Q179 729 189 734T204 740H334L314 651H262Z" />
<glyph unicode="|" horiz-adv-x="314" d="M115 -130V775H209V-130H115Z" />
<glyph unicode="}" horiz-adv-x="286" d="M121 651L140 740H269Q273 740 279 736T286 719Q286 713 285 710L232 461Q231 458 231 455T230 448Q230 431 238 416T264 400L247 322Q227 319 211 301T189 259L134 -1Q130 -18 121 -24T105 -31H-24L-5 58H47L97 293Q101
310 113 328T141 360Q133 371 129 383T124 410Q124 415 124 418T126 427L173 651H121Z" />
<glyph unicode="~" horiz-adv-x="529" d="M45 232Q47 240 56 259T83 300T127 338T189 354Q222 354 246 341T293 313T344 299Q370 299 386 311T411 335T419 350H481Q480 346 471 328T443 288T398 249T333 232Q300 232 275 246T228 273T179 287Q153 287 138 274T116
247T108 232H45Z" />
<glyph unicode="&#xa0;" horiz-adv-x="242" />
<glyph unicode="&#xa1;" horiz-adv-x="273" d="M225 460L127 -4H17L115 460H225ZM279 713L250 576H140L169 713H279Z" />
<glyph unicode="&#xa2;" horiz-adv-x="559" d="M177 -120L201 -9Q146 -4 108 28T48 109T27 211Q27 267 47 320T106 418T197 493T315 531L340 645H390L366 531Q433 529 478 496T541 402L427 368Q418 399 397 415T346 434L272 87Q292 89 314 98T355 122T384 156L485
124Q459 80 416 50T329 5T251 -10L228 -120H177ZM141 222Q141 191 151 164T179 118T222 92L294 430Q261 424 234 404T185 354T153 290T141 222Z" />
<glyph unicode="&#xa3;" horiz-adv-x="507" d="M71 378H420L402 294H54L71 378ZM3 71Q44 104 72 133T119 189T146 245T155 303Q155 340 147 374T130 441T121 508Q121 551 140 588T193 654T267 699T352 715Q408 715 452 687T520 610L447 542Q432 579 400 602T332
625Q302 625 277 610T236 568T220 508Q220 480 228 450T245 386T253 314Q253 286 248 261T228 209T188 153T122 86Q143 91 161 94T195 97Q220 97 240 93T280 84T322 79Q340 79 358 83T401 96L410 14Q384 0 354 -7T297 -15Q269 -15 242 -8T189 5T131 12Q107 12 75
7T11 -8L3 71Z" />
<glyph unicode="&#xa4;" horiz-adv-x="571" d="M185 491Q207 506 234 514T293 523Q324 523 351 515T400 491L470 562L518 515L448 445Q463 423 471 395T480 337Q480 307 472 280T447 229L518 159L475 117L402 185Q380 171 353 162T293 152Q260 152 233 161T182
185L110 117L67 159L138 230Q106 278 106 337Q106 367 113 394T137 444L67 515L115 562L185 491ZM191 336Q191 305 204 280T241 239T293 224Q322 224 344 239T381 280T395 338Q395 371 381 396T345 435T293 450Q265 450 242 436T205 395T191 336Z" />
<glyph unicode="&#xa5;" horiz-adv-x="672" d="M477 389H551L535 316H423L376 254L370 225H516L501 152H354L322 0H210L242 152H98L114 225H258L265 256L246 316H133L149 389H223L114 710H236L341 354L600 710H724L477 389Z" />
<glyph unicode="&#xa6;" horiz-adv-x="308" d="M206 269V-130H112V269H206ZM206 775V376H112V775H206Z" />
<glyph unicode="&#xa7;" horiz-adv-x="506" d="M406 208Q426 188 426 141Q426 81 401 38T336 -34T254 -75T174 -88Q126 -88 90 -72T31 -32T-6 11L79 79Q103 46 130 32T191 17Q212 17 232 23T270 42T297 73T308 115Q308 137 297 148T268 164T232 169Q156 174 113
210T70 309Q70 336 77 357T94 394T111 419Q103 430 97 451T90 500Q90 545 110 583T165 652T242 698T329 715Q369 715 398 705T446 677T479 640T500 602L406 562Q401 581 388 593T355 611T315 617Q294 617 274 610T238 590T213 558T203 516Q203 483 225 471T281
457Q322 456 361 443T426 401T451 323Q451 298 444 275T427 235T406 208ZM176 309Q176 287 186 275T212 256T246 248T282 244T310 236Q324 247 334 266T344 305Q344 329 332 342T302 361T266 368Q249 368 233 371T207 379Q196 368 186 350T176 309Z" />
<glyph unicode="&#xa8;" horiz-adv-x="363" d="M125 615L149 725H240L217 615H125ZM297 615L320 725H411L388 615H297Z" />
<glyph unicode="&#xa9;" horiz-adv-x="852" d="M435 -7Q355 -7 287 20T169 96T91 211T63 355Q63 432 91 498T169 612T287 688T435 715Q516 715 584 688T704 613T783 498T812 355Q812 277 784 211T704 96T585 20T435 -7ZM435 37Q504 37 564 60T669 125T739 225T764
353Q764 421 740 479T671 580T566 647T435 671Q366 671 307 647T203 580T134 480T110 354Q110 287 134 230T202 129T305 61T435 37ZM443 119Q391 119 347 136T269 185T217 260T198 355Q198 399 213 441T258 518T333 572T439 592Q514 592 569 560T650 470L544 436Q533
460 515 473T477 492T439 497Q408 497 384 486T344 454T319 408T310 355Q310 321 321 295T352 250T394 223T441 213Q462 213 483 220T521 242T548 276L655 244Q642 214 613 185T541 138T443 119Z" />
<glyph unicode="&#xaa;" horiz-adv-x="421" d="M163 342Q121 342 96 368T70 433Q70 473 93 503T154 551T239 569Q263 569 284 565T320 553L325 575Q327 581 327 587T328 597Q328 624 312 638T265 653Q239 653 211 643T150 613L136 666Q212 712 284 712Q344 712
377 685T410 607Q410 597 409 587T405 565L380 447Q379 445 379 442T379 437Q379 422 397 421L381 348Q372 346 363 345T347 344Q322 344 310 353T298 380Q298 385 299 390T302 407Q272 375 236 359T163 342ZM200 404Q220 404 242 412T280 434T300 463L309 506Q296
513 279 516T243 520Q205 520 178 501T151 451Q151 431 164 418T200 404Z" />
<glyph unicode="&#xab;" horiz-adv-x="601" d="M35 284L321 469L301 378L117 259L251 144L232 54L23 229L35 284ZM292 284L578 469L559 378L375 259L510 144L490 54L281 229L292 284Z" />
<glyph unicode="&#xac;" horiz-adv-x="580" d="M531 387L473 113H379L416 288H59L80 387H531Z" />
<glyph unicode="&#xad;" horiz-adv-x="571" d="M43 224L64 323H516L494 224H43Z" />
<glyph unicode="&#xae;" horiz-adv-x="852" d="M436 -7Q355 -7 287 20T169 96T91 211T63 355Q63 432 91 498T169 612T287 688T436 715Q517 715 585 688T704 613T783 498T812 355Q812 277 784 211T705 96T586 20T436 -7ZM436 36Q528 36 602 76T720 188T763 354Q763
421 739 478T670 579T567 647T436 671Q366 671 307 647T204 580T136 479T112 355Q112 287 136 229T203 128T306 60T436 36ZM278 577H471Q512 577 543 556T591 501T609 432Q609 403 598 377T567 330T521 302L627 133H538L440 288H357V133H278V577ZM466 357Q497 357
514 378T531 432Q531 467 511 486T463 506H357V357H466Z" />
<glyph unicode="&#xaf;" horiz-adv-x="383" d="M131 642L145 712H428L413 642H131Z" />
<glyph unicode="&#xb0;" horiz-adv-x="271" d="M182 533Q149 533 129 553T108 608Q108 637 123 664T165 707T223 724Q258 724 278 703T298 648Q298 617 282 591T240 549T182 533ZM194 589Q211 589 226 603T241 636Q241 651 233 659T211 668Q194 668 179 655T164
622Q164 607 172 598T194 589Z" />
<glyph unicode="&#xb1;" horiz-adv-x="497" d="M65 40V129H408V40H65ZM408 417V328H286V196H187V328H66V417H187V548H286V417H408Z" />
<glyph unicode="&#xb2;" horiz-adv-x="392" d="M51 395Q62 448 81 483T133 542T214 586Q239 596 265 605T314 627T349 655T363 696Q363 720 347 735T296 750Q267 750 241 741T195 720T162 695L130 745Q141 756 166 772T229 801T312 813Q376 813 407 785T439 711Q439
680 428 655T397 611T347 577T281 550Q245 538 222 524T188 493T172 460H387L373 395H51Z" />
<glyph unicode="&#xb3;" horiz-adv-x="385" d="M202 389Q145 389 107 411T66 472L111 512Q115 491 140 471T213 450Q242 450 267 459T308 485T324 523Q324 550 294 564T207 578H185L197 638H219Q282 638 316 654T350 703Q350 728 328 740T278 752Q240 752 210
738T159 701L129 752Q147 772 173 785T231 806T293 813Q353 813 389 786T425 715Q425 675 397 648T320 611Q355 605 374 581T393 524Q393 479 365 449T294 404T202 389Z" />
<glyph unicode="&#xb4;" horiz-adv-x="257" d="M196 602L126 620L202 730H307L196 602Z" />
<glyph unicode="&#xb5;" horiz-adv-x="619" d="M121 523H231L167 225Q164 209 162 194T159 165Q159 84 231 84Q259 84 288 97T346 135T396 197L465 523H575L492 130Q491 126 491 123T490 115Q490 95 516 94L495 0Q480 -2 468 -3T447 -5Q417 -5 400 8T383 44Q383
52 385 65T393 106Q375 77 344 51T276 7T205 -10Q166 -10 147 10T125 58L74 -212H-36L121 523Z" />
<glyph unicode="&#xb6;" horiz-adv-x="614" d="M63 404Q63 497 103 565T217 672T392 710H658L640 626H573L423 -80H329L392 216H338L274 -80H180L244 216Q158 218 111 269T63 404ZM158 419Q158 382 171 356T208 317T261 300L331 626Q279 625 240 597T180 522T158
419ZM479 626H425L355 300H409L479 626Z" />
<glyph unicode="&#xb7;" horiz-adv-x="211" d="M47 243L76 380H167L138 243H47Z" />
<glyph unicode="&#xb8;" horiz-adv-x="304" d="M56 -193Q33 -193 8 -186T-40 -164L1 -105Q13 -115 26 -120T54 -126Q82 -126 99 -111T117 -67Q117 -48 108 -32T82 0L124 26Q147 5 163 -20T179 -78Q179 -111 164 -137T122 -178T56 -193Z" />
<glyph unicode="&#xb9;" horiz-adv-x="278" d="M292 461L278 395H67L82 461H157L216 740Q208 732 190 720T151 699T115 690L129 757Q144 757 161 765T194 784T220 803T231 813H299L224 461H292Z" />
<glyph unicode="&#xba;" horiz-adv-x="429" d="M222 342Q176 342 145 362T97 416T81 490Q81 533 98 572T144 643T214 693T301 712Q347 712 378 692T425 638T441 563Q441 521 425 482T379 410T309 360T222 342ZM237 414Q267 414 294 433T339 483T356 552Q356 590
337 614T285 639Q255 639 228 621T184 571T167 501Q167 463 186 439T237 414Z" />
<glyph unicode="&#xbb;" horiz-adv-x="601" d="M547 229L264 54L283 144L466 259L332 378L352 469L559 284L547 229ZM289 229L5 54L25 144L208 259L75 378L93 469L301 284L289 229Z" />
<glyph unicode="&#xbc;" horiz-adv-x="839" d="M275 379L261 313H50L65 379H140L199 658Q190 649 172 637T134 617T98 608L112 674Q127 674 144 682T177 702T203 721T214 731H282L206 379H275ZM30 40L368 373L691 716L733 671L401 342L72 -6L30 40ZM621 0L642
99H436L450 161L733 414H781L725 160H780L766 99H712L691 0H621ZM515 160H658L693 325L515 160Z" />
<glyph unicode="&#xbd;" horiz-adv-x="844" d="M434 0Q445 56 466 92T520 152T595 193Q620 203 644 212T689 233T721 261T734 301Q734 325 719 340T669 355Q642 355 617 346T573 325T540 299L510 350Q520 361 545 377T606 406T686 418Q746 418 777 390T808 316Q808
285 798 260T768 216T720 183T657 155Q621 143 599 128T565 97T547 65H758L744 0H434ZM275 379L261 313H50L65 379H140L199 658Q190 649 172 637T134 617T98 608L112 674Q127 674 144 682T177 702T203 721T214 731H282L206 379H275ZM31 40L369 373L692 716L734
671L402 342L72 -6L31 40Z" />
<glyph unicode="&#xbe;" horiz-adv-x="946" d="M185 306Q147 306 117 316T70 344T50 389L95 429Q99 408 123 388T197 367Q226 367 251 376T291 402T307 440Q307 467 277 481T190 495H168L180 555H202Q266 555 299 571T333 620Q333 645 311 657T261 670Q223 670
193 655T143 618L112 670Q130 689 156 702T214 723T276 730Q336 730 372 703T408 632Q408 592 381 565T303 528Q339 522 358 498T377 441Q377 396 349 366T277 321T185 306ZM137 40L475 373L798 716L840 671L508 342L179 -6L137 40ZM728 0L749 99H543L557 161L840
414H888L832 160H887L873 99H819L798 0H728ZM622 160H765L800 325L622 160Z" />
<glyph unicode="&#xbf;" horiz-adv-x="461" d="M334 285Q327 250 314 221T279 168T222 124Q196 110 169 96T117 62T77 19T62 -42Q62 -81 86 -102T144 -123Q173 -123 199 -110T248 -77T285 -35L348 -84Q322 -125 286 -154T207 -198T121 -213Q80 -213 44 -197T-14
-146T-37 -59Q-37 -13 -26 20T7 76T55 118T113 153Q141 169 168 184T215 222T243 285H334ZM379 506L352 380H261L288 506H379Z" />
<glyph unicode="&#xc0;" horiz-adv-x="649" d="M365 710H464L578 0H460L432 193H177L68 0H-50L365 710ZM428 276L388 581L214 276H428ZM323 917H426L457 807L380 788L323 917Z" />
<glyph unicode="&#xc1;" horiz-adv-x="649" d="M365 710H464L578 0H460L432 193H177L68 0H-50L365 710ZM428 276L388 581L214 276H428ZM460 790L390 808L466 918H571L460 790Z" />
<glyph unicode="&#xc2;" horiz-adv-x="649" d="M365 710H464L578 0H460L432 193H177L68 0H-50L365 710ZM428 276L388 581L214 276H428ZM303 822L422 917H502L580 822L516 794L449 857L355 794L303 822Z" />
<glyph unicode="&#xc3;" horiz-adv-x="649" d="M365 710H464L578 0H460L432 193H177L68 0H-50L365 710ZM428 276L388 581L214 276H428ZM497 802Q469 802 451 813T419 834T383 845Q362 845 350 834T332 811T327 797H265Q267 805 275 823T300 862T340 897T394 912Q414
912 428 906T454 890T478 875T508 868Q531 868 544 879T564 903T570 917H632Q631 910 622 892T596 853T554 817T497 802Z" />
<glyph unicode="&#xc4;" horiz-adv-x="649" d="M365 710H464L578 0H460L432 193H177L68 0H-50L365 710ZM428 276L388 581L214 276H428ZM306 802L330 912H421L398 802H306ZM478 802L501 912H592L569 802H478Z" />
<glyph unicode="&#xc5;" horiz-adv-x="649" d="M365 710H464L578 0H460L432 193H177L68 0H-50L365 710ZM428 276L388 581L214 276H428ZM358 830Q358 870 388 893T462 917Q496 917 515 902T534 858Q534 819 505 795T430 771Q397 771 378 787T358 830ZM454 881Q436
881 422 869T407 837Q407 825 415 816T438 807Q456 807 471 820T486 851Q486 865 477 873T454 881Z" />
<glyph unicode="&#xc6;" horiz-adv-x="926" d="M495 710H970L948 611H616L574 411H855L834 312H553L507 99H848L827 0H374L416 193H191L41 0H-80L495 710ZM428 293L490 581L261 293H428Z" />
<glyph unicode="&#xc7;" horiz-adv-x="655" d="M301 -6Q237 -6 189 19T107 86T58 182T41 291Q41 351 60 411T114 526T198 623T310 689T445 714Q543 714 601 670T677 559L582 502Q570 547 546 571T492 604T427 613Q358 613 308 585T223 510T173 409T156 302Q156
246 175 199T231 123T323 95Q356 95 392 107T462 145T521 212L603 159Q569 104 518 67T411 12T301 -6ZM216 -193Q193 -193 168 -186T120 -164L161 -105Q173 -115 186 -120T214 -126Q242 -126 259 -111T277 -67Q277 -48 268 -32T242 0L284 26Q307 5 323 -20T339
-78Q339 -111 324 -137T282 -178T216 -193Z" />
<glyph unicode="&#xc8;" horiz-adv-x="579" d="M166 710H621L600 611H258L215 409H511L492 316H195L149 99H500L479 0H15L166 710ZM294 917H397L428 807L351 788L294 917Z" />
<glyph unicode="&#xc9;" horiz-adv-x="579" d="M166 710H621L600 611H258L215 409H511L492 316H195L149 99H500L479 0H15L166 710ZM427 790L357 808L433 918H538L427 790Z" />
<glyph unicode="&#xca;" horiz-adv-x="579" d="M166 710H621L600 611H258L215 409H511L492 316H195L149 99H500L479 0H15L166 710ZM270 822L389 917H469L547 822L483 794L416 857L322 794L270 822Z" />
<glyph unicode="&#xcb;" horiz-adv-x="579" d="M166 710H621L600 611H258L215 409H511L492 316H195L149 99H500L479 0H15L166 710ZM273 802L297 912H388L365 802H273ZM445 802L468 912H559L536 802H445Z" />
<glyph unicode="&#xcc;" horiz-adv-x="271" d="M166 709H279L128 0H15L166 709ZM132 917H235L266 807L189 788L132 917Z" />
<glyph unicode="&#xcd;" horiz-adv-x="271" d="M166 709H279L128 0H15L166 709ZM264 790L194 808L270 918H375L264 790Z" />
<glyph unicode="&#xce;" horiz-adv-x="271" d="M166 709H279L128 0H15L166 709ZM110 822L229 917H309L387 822L323 794L256 857L162 794L110 822Z" />
<glyph unicode="&#xcf;" horiz-adv-x="271" d="M166 709H279L128 0H15L166 709ZM112 802L136 912H227L204 802H112ZM284 802L307 912H398L375 802H284Z" />
<glyph unicode="&#xd0;" horiz-adv-x="698" d="M57 399H359L342 315H39L57 399ZM172 710H413Q504 710 562 674T649 575T678 436Q678 342 647 263T560 124T428 33T262 0H21L172 710ZM283 99Q347 99 398 125T486 196T542 298T562 419Q562 476 543 519T486 586T392
611H264L155 99H283Z" />
<glyph unicode="&#xd1;" horiz-adv-x="736" d="M166 710H254L523 198L631 709H744L593 0H501L234 500L128 0H15L166 710ZM547 800Q519 800 501 811T469 832T433 843Q412 843 400 832T382 809T377 795H315Q317 803 325 821T350 860T390 895T444 910Q464 910 478
904T504 888T528 873T558 866Q581 866 594 877T614 901T620 915H682Q681 908 672 890T646 851T604 815T547 800Z" />
<glyph unicode="&#xd2;" horiz-adv-x="725" d="M297 -5Q235 -5 187 19T107 84T58 178T41 289Q41 354 63 416T124 532T215 627T327 691T452 715Q513 715 560 691T641 624T690 529T706 419Q706 355 685 293T624 178T533 83T421 19T297 -5ZM319 96Q378 96 427 124T514
198T571 300T591 411Q591 465 573 511T518 585T429 613Q371 613 321 586T234 512T177 410T156 298Q156 244 174 198T229 124T319 96ZM360 915H463L494 805L417 786L360 915Z" />
<glyph unicode="&#xd3;" horiz-adv-x="725" d="M297 -5Q235 -5 187 19T107 84T58 178T41 289Q41 354 63 416T124 532T215 627T327 691T452 715Q513 715 560 691T641 624T690 529T706 419Q706 355 685 293T624 178T533 83T421 19T297 -5ZM319 96Q378 96 427 124T514
198T571 300T591 411Q591 465 573 511T518 585T429 613Q371 613 321 586T234 512T177 410T156 298Q156 244 174 198T229 124T319 96ZM498 788L428 806L504 916H609L498 788Z" />
<glyph unicode="&#xd4;" horiz-adv-x="725" d="M297 -5Q235 -5 187 19T107 84T58 178T41 289Q41 354 63 416T124 532T215 627T327 691T452 715Q513 715 560 691T641 624T690 529T706 419Q706 355 685 293T624 178T533 83T421 19T297 -5ZM319 96Q378 96 427 124T514
198T571 300T591 411Q591 465 573 511T518 585T429 613Q371 613 321 586T234 512T177 410T156 298Q156 244 174 198T229 124T319 96ZM338 820L457 915H537L615 820L551 792L484 855L390 792L338 820Z" />
<glyph unicode="&#xd5;" horiz-adv-x="725" d="M297 -5Q235 -5 187 19T107 84T58 178T41 289Q41 354 63 416T124 532T215 627T327 691T452 715Q513 715 560 691T641 624T690 529T706 419Q706 355 685 293T624 178T533 83T421 19T297 -5ZM319 96Q378 96 427 124T514
198T571 300T591 411Q591 465 573 511T518 585T429 613Q371 613 321 586T234 512T177 410T156 298Q156 244 174 198T229 124T319 96ZM533 800Q505 800 487 811T455 832T419 843Q398 843 386 832T368 809T363 795H301Q303 803 311 821T336 860T376 895T430 910Q450
910 464 904T490 888T514 873T544 866Q567 866 580 877T600 901T606 915H668Q667 908 658 890T632 851T590 815T533 800Z" />
<glyph unicode="&#xd6;" horiz-adv-x="725" d="M297 -5Q235 -5 187 19T107 84T58 178T41 289Q41 354 63 416T124 532T215 627T327 691T452 715Q513 715 560 691T641 624T690 529T706 419Q706 355 685 293T624 178T533 83T421 19T297 -5ZM319 96Q378 96 427 124T514
198T571 300T591 411Q591 465 573 511T518 585T429 613Q371 613 321 586T234 512T177 410T156 298Q156 244 174 198T229 124T319 96ZM341 800L365 910H456L433 800H341ZM513 800L536 910H627L604 800H513Z" />
<glyph unicode="&#xd7;" horiz-adv-x="479" d="M411 164L341 96L231 205L122 96L53 165L162 274L56 381L126 449L232 343L338 450L407 381L301 274L411 164Z" />
<glyph unicode="&#xd8;" horiz-adv-x="725" d="M297 -5Q235 -5 187 19T107 84T58 178T41 289Q41 354 63 416T124 532T215 627T327 691T452 715Q513 715 560 691T641 624T690 529T706 419Q706 355 685 293T624 178T533 83T421 19T297 -5ZM319 96Q378 96 427 124T514
198T571 300T591 411Q591 465 573 511T518 585T429 613Q371 613 321 586T234 512T177 410T156 298Q156 244 174 198T229 124T319 96ZM745 710L130 0H8L623 710H745Z" />
<glyph unicode="&#xd9;" horiz-adv-x="722" d="M296 -5Q213 -5 162 27T89 113T66 233Q66 262 69 290T80 350L156 710H269L192 350Q187 324 184 300T181 253Q181 208 194 173T237 117T317 96Q369 96 408 117T476 175T522 257T551 350L627 710H740L663 350Q648 277
618 213T542 100T436 23T296 -5ZM353 915H456L487 805L410 786L353 915Z" />
<glyph unicode="&#xda;" horiz-adv-x="722" d="M296 -5Q213 -5 162 27T89 113T66 233Q66 262 69 290T80 350L156 710H269L192 350Q187 324 184 300T181 253Q181 208 194 173T237 117T317 96Q369 96 408 117T476 175T522 257T551 350L627 710H740L663 350Q648 277
618 213T542 100T436 23T296 -5ZM488 788L418 806L494 916H599L488 788Z" />
<glyph unicode="&#xdb;" horiz-adv-x="722" d="M296 -5Q213 -5 162 27T89 113T66 233Q66 262 69 290T80 350L156 710H269L192 350Q187 324 184 300T181 253Q181 208 194 173T237 117T317 96Q369 96 408 117T476 175T522 257T551 350L627 710H740L663 350Q648 277
618 213T542 100T436 23T296 -5ZM329 820L448 915H528L606 820L542 792L475 855L381 792L329 820Z" />
<glyph unicode="&#xdc;" horiz-adv-x="722" d="M296 -5Q213 -5 162 27T89 113T66 233Q66 262 69 290T80 350L156 710H269L192 350Q187 324 184 300T181 253Q181 208 194 173T237 117T317 96Q369 96 408 117T476 175T522 257T551 350L627 710H740L663 350Q648 277
618 213T542 100T436 23T296 -5ZM332 800L356 910H447L424 800H332ZM504 800L527 910H618L595 800H504Z" />
<glyph unicode="&#xdd;" horiz-adv-x="615" d="M237 256L85 710H208L314 354L574 710H696L349 254L295 0H182L237 256ZM420 788L350 806L426 916H531L420 788Z" />
<glyph unicode="&#xde;" horiz-adv-x="582" d="M166 710H279L251 577H405Q458 577 495 550T552 479T572 386Q572 336 552 288T495 200T412 138T312 114H152L128 0H15L166 710ZM328 214Q354 214 377 227T419 264T447 316T457 374Q457 404 447 427T420 464T378 478H229L173
214H328Z" />
<glyph unicode="&#xdf;" horiz-adv-x="535" d="M192 95Q243 96 284 112T349 162T373 246Q373 292 346 318T275 345H255L276 445H295Q326 445 349 459T387 498T401 553Q401 586 381 603T330 620Q298 620 274 604T234 561T212 501L105 0H0L111 520Q124 577 160 620T247
689T358 714Q426 714 468 678T511 580Q511 541 493 503T446 439T387 402Q437 389 462 348T487 251Q487 186 462 139T392 60T290 12T170 -6L192 95Z" />
<glyph unicode="&#xe0;" horiz-adv-x="615" d="M205 -10Q147 -10 105 19T41 97T19 206Q19 270 42 328T105 432T198 505T307 532Q364 532 403 501T457 424L478 522H589L505 130Q504 125 504 122T503 115Q503 95 526 94L506 0Q492 -2 481 -3T461 -5Q430 -5 413 8T396
47Q396 52 396 59T398 75T403 95Q364 45 311 18T205 -10ZM253 84Q273 84 295 92T339 114T379 147T408 188L436 325Q432 357 415 382T374 423T321 438Q283 438 250 420T191 370T150 301T135 224Q135 184 149 153T190 103T253 84ZM265 730H368L399 620L322 601L265
730Z" />
<glyph unicode="&#xe1;" horiz-adv-x="615" d="M205 -10Q147 -10 105 19T41 97T19 206Q19 270 42 328T105 432T198 505T307 532Q364 532 403 501T457 424L478 522H589L505 130Q504 125 504 122T503 115Q503 95 526 94L506 0Q492 -2 481 -3T461 -5Q430 -5 413 8T396
47Q396 52 396 59T398 75T403 95Q364 45 311 18T205 -10ZM253 84Q273 84 295 92T339 114T379 147T408 188L436 325Q432 357 415 382T374 423T321 438Q283 438 250 420T191 370T150 301T135 224Q135 184 149 153T190 103T253 84ZM401 603L331 621L407 731H512L401
603Z" />
<glyph unicode="&#xe2;" horiz-adv-x="615" d="M205 -10Q147 -10 105 19T41 97T19 206Q19 270 42 328T105 432T198 505T307 532Q364 532 403 501T457 424L478 522H589L505 130Q504 125 504 122T503 115Q503 95 526 94L506 0Q492 -2 481 -3T461 -5Q430 -5 413 8T396
47Q396 52 396 59T398 75T403 95Q364 45 311 18T205 -10ZM253 84Q273 84 295 92T339 114T379 147T408 188L436 325Q432 357 415 382T374 423T321 438Q283 438 250 420T191 370T150 301T135 224Q135 184 149 153T190 103T253 84ZM244 635L363 730H443L521 635L457
607L390 670L296 607L244 635Z" />
<glyph unicode="&#xe3;" horiz-adv-x="615" d="M205 -10Q147 -10 105 19T41 97T19 206Q19 270 42 328T105 432T198 505T307 532Q364 532 403 501T457 424L478 522H589L505 130Q504 125 504 122T503 115Q503 95 526 94L506 0Q492 -2 481 -3T461 -5Q430 -5 413 8T396
47Q396 52 396 59T398 75T403 95Q364 45 311 18T205 -10ZM253 84Q273 84 295 92T339 114T379 147T408 188L436 325Q432 357 415 382T374 423T321 438Q283 438 250 420T191 370T150 301T135 224Q135 184 149 153T190 103T253 84ZM436 615Q408 615 390 626T358 647T322
658Q301 658 289 647T271 624T266 610H204Q206 618 214 636T239 675T279 710T333 725Q353 725 367 719T393 703T417 688T447 681Q470 681 483 692T503 716T509 730H571Q570 723 561 705T535 666T493 630T436 615Z" />
<glyph unicode="&#xe4;" horiz-adv-x="615" d="M205 -10Q147 -10 105 19T41 97T19 206Q19 270 42 328T105 432T198 505T307 532Q364 532 403 501T457 424L478 522H589L505 130Q504 125 504 122T503 115Q503 95 526 94L506 0Q492 -2 481 -3T461 -5Q430 -5 413 8T396
47Q396 52 396 59T398 75T403 95Q364 45 311 18T205 -10ZM253 84Q273 84 295 92T339 114T379 147T408 188L436 325Q432 357 415 382T374 423T321 438Q283 438 250 420T191 370T150 301T135 224Q135 184 149 153T190 103T253 84ZM247 615L271 725H362L339 615H247ZM419
615L442 725H533L510 615H419Z" />
<glyph unicode="&#xe5;" horiz-adv-x="615" d="M205 -10Q147 -10 105 19T41 97T19 206Q19 270 42 328T105 432T198 505T307 532Q364 532 403 501T457 424L478 522H589L505 130Q504 125 504 122T503 115Q503 95 526 94L506 0Q492 -2 481 -3T461 -5Q430 -5 413 8T396
47Q396 52 396 59T398 75T403 95Q364 45 311 18T205 -10ZM253 84Q273 84 295 92T339 114T379 147T408 188L436 325Q432 357 415 382T374 423T321 438Q283 438 250 420T191 370T150 301T135 224Q135 184 149 153T190 103T253 84ZM299 643Q299 683 329 706T403 730Q437
730 456 715T475 671Q475 632 446 608T371 584Q338 584 319 600T299 643ZM395 694Q377 694 363 682T348 650Q348 638 356 629T379 620Q397 620 412 633T427 664Q427 678 418 686T395 694Z" />
<glyph unicode="&#xe6;" horiz-adv-x="891" d="M132 -10Q67 -10 30 28T-8 125Q-8 182 25 225T115 294T241 319Q272 319 302 314T354 299Q361 322 368 338T376 376Q376 410 352 432T279 454Q241 454 199 439T110 394L91 464Q203 532 307 532Q366 532 405 510T461
447Q501 485 552 508T661 532Q728 532 773 503T842 424T866 313Q866 275 860 255T849 225H447Q446 219 446 212T445 198Q445 160 461 132T504 87T567 71Q609 71 649 93T711 151L800 124Q775 86 736 56T649 8T547 -10Q478 -10 430 20T359 101Q328 61 287 37T205
1T132 -10ZM180 71Q201 71 226 78T273 97T313 124T339 156Q338 162 337 169T336 185Q336 199 337 212T341 238Q320 246 295 251T246 256Q205 256 172 242T120 204T100 147Q100 126 109 109T136 82T180 71ZM756 295Q757 302 757 309T758 324Q758 362 744 391T703
435T641 451Q600 451 564 431T501 376T460 295H756Z" />
<glyph unicode="&#xe7;" horiz-adv-x="536" d="M228 -10Q160 -10 114 20T43 100T19 211Q19 274 43 331T110 434T211 505T339 532Q420 532 468 497T531 402L417 368Q406 402 382 420T320 438Q284 438 251 422T191 376T149 308T133 224Q133 183 147 152T186 103T245
84Q270 84 295 93T342 119T374 156L475 124Q451 85 413 55T327 8T228 -10ZM184 -193Q161 -193 136 -186T88 -164L129 -105Q141 -115 154 -120T182 -126Q210 -126 227 -111T245 -67Q245 -48 236 -32T210 0L252 26Q275 5 291 -20T307 -78Q307 -111 292 -137T250 -178T184
-193Z" />
<glyph unicode="&#xe8;" horiz-adv-x="545" d="M229 -10Q163 -10 116 19T45 98T20 211Q20 276 44 333T112 436T214 506T342 532Q396 532 436 516T499 468T522 388Q522 308 450 266T229 224Q201 224 166 225T87 231L102 302Q142 300 173 298T231 296Q302 296 343
307T402 338T420 385Q420 408 409 422T378 443T330 451Q286 451 249 432T186 378T145 300T130 209Q130 171 142 140T181 90T248 71Q291 71 331 92T394 151L481 124Q456 85 416 55T328 7T229 -10ZM252 985H355L386 875L309 856L252 985Z" />
<glyph unicode="&#xe9;" horiz-adv-x="545" d="M229 -10Q163 -10 116 19T45 98T20 211Q20 276 44 333T112 436T214 506T342 532Q396 532 436 516T499 468T522 388Q522 308 450 266T229 224Q201 224 166 225T87 231L102 302Q142 300 173 298T231 296Q302 296 343
307T402 338T420 385Q420 408 409 422T378 443T330 451Q286 451 249 432T186 378T145 300T130 209Q130 171 142 140T181 90T248 71Q291 71 331 92T394 151L481 124Q456 85 416 55T328 7T229 -10ZM389 602L319 620L395 730H500L389 602Z" />
<glyph unicode="&#xea;" horiz-adv-x="545" d="M229 -10Q163 -10 116 19T45 98T20 211Q20 276 44 333T112 436T214 506T342 532Q396 532 436 516T499 468T522 388Q522 308 450 266T229 224Q201 224 166 225T87 231L102 302Q142 300 173 298T231 296Q302 296 343
307T402 338T420 385Q420 408 409 422T378 443T330 451Q286 451 249 432T186 378T145 300T130 209Q130 171 142 140T181 90T248 71Q291 71 331 92T394 151L481 124Q456 85 416 55T328 7T229 -10ZM228 890L347 985H427L505 890L441 862L374 925L280 862L228 890Z"
/>
<glyph unicode="&#xeb;" horiz-adv-x="545" d="M229 -10Q163 -10 116 19T45 98T20 211Q20 276 44 333T112 436T214 506T342 532Q396 532 436 516T499 468T522 388Q522 308 450 266T229 224Q201 224 166 225T87 231L102 302Q142 300 173 298T231 296Q302 296 343
307T402 338T420 385Q420 408 409 422T378 443T330 451Q286 451 249 432T186 378T145 300T130 209Q130 171 142 140T181 90T248 71Q291 71 331 92T394 151L481 124Q456 85 416 55T328 7T229 -10ZM230 870L254 980H345L322 870H230ZM402 870L425 980H516L493 870H402Z"
/>
<glyph unicode="&#xec;" horiz-adv-x="239" d="M112 523H222L110 0H0L112 523ZM357 730H460L491 620L414 601L357 730Z" />
<glyph unicode="&#xed;" horiz-adv-x="239" d="M112 523H222L110 0H0L112 523ZM214 602L144 620L220 730H325L214 602Z" />
<glyph unicode="&#xee;" horiz-adv-x="239" d="M112 523H222L110 0H0L112 523ZM307 635L426 730H506L584 635L520 607L453 670L359 607L307 635Z" />
<glyph unicode="&#xef;" horiz-adv-x="239" d="M112 523H222L110 0H0L112 523ZM308 618L332 728H423L400 618H308ZM480 618L503 728H594L571 618H480Z" />
<glyph unicode="&#xf0;" horiz-adv-x="587" d="M557 374Q557 286 530 215T455 94T347 17T221 -10Q160 -10 114 16T41 88T15 191Q15 247 39 298T104 388T196 450T302 473Q356 473 395 448T452 380Q452 397 451 413T447 444Q440 495 419 543T355 638T244 730H389Q450
689 486 629T540 502T557 374ZM129 205Q129 171 143 144T183 100T244 84Q279 84 311 98T370 139T410 197T425 265Q425 299 411 326T371 368T310 384Q275 384 243 370T185 331T144 274T129 205ZM572 668L456 607L419 595L295 527L272 572L394 638L428 647L549 713L572
668Z" />
<glyph unicode="&#xf1;" horiz-adv-x="574" d="M112 523H211L189 418Q215 453 251 478T329 518T414 532Q458 532 483 516T519 473T530 410Q530 389 527 366T518 319L451 0H341L403 293Q407 312 409 327T411 357Q411 397 395 415T347 434Q318 434 286 418T224 375T177
311L110 0H0L112 523ZM446 615Q418 615 400 626T368 647T332 658Q311 658 299 647T281 624T276 610H214Q216 618 224 636T249 675T289 710T343 725Q363 725 377 719T403 703T427 688T457 681Q480 681 493 692T513 716T519 730H581Q580 723 571 705T545 666T503
630T446 615Z" />
<glyph unicode="&#xf2;" horiz-adv-x="582" d="M231 -10Q159 -10 112 20T42 100T19 211Q19 276 42 334T109 437T209 507T332 532Q405 532 452 502T523 422T546 311Q546 246 523 188T456 86T356 16T231 -10ZM249 84Q284 84 317 99T375 144T416 211T431 296Q431
338 418 369T379 419T315 438Q280 438 248 422T189 377T148 309T133 225Q133 184 146 152T185 102T249 84ZM246 730H349L380 620L303 601L246 730Z" />
<glyph unicode="&#xf3;" horiz-adv-x="582" d="M231 -10Q159 -10 112 20T42 100T19 211Q19 276 42 334T109 437T209 507T332 532Q405 532 452 502T523 422T546 311Q546 246 523 188T456 86T356 16T231 -10ZM249 84Q284 84 317 99T375 144T416 211T431 296Q431
338 418 369T379 419T315 438Q280 438 248 422T189 377T148 309T133 225Q133 184 146 152T185 102T249 84ZM386 602L316 620L392 730H497L386 602Z" />
<glyph unicode="&#xf4;" horiz-adv-x="582" d="M231 -10Q159 -10 112 20T42 100T19 211Q19 276 42 334T109 437T209 507T332 532Q405 532 452 502T523 422T546 311Q546 246 523 188T456 86T356 16T231 -10ZM249 84Q284 84 317 99T375 144T416 211T431 296Q431
338 418 369T379 419T315 438Q280 438 248 422T189 377T148 309T133 225Q133 184 146 152T185 102T249 84ZM225 890L344 985H424L502 890L438 862L371 925L277 862L225 890Z" />
<glyph unicode="&#xf5;" horiz-adv-x="582" d="M231 -10Q159 -10 112 20T42 100T19 211Q19 276 42 334T109 437T209 507T332 532Q405 532 452 502T523 422T546 311Q546 246 523 188T456 86T356 16T231 -10ZM249 84Q284 84 317 99T375 144T416 211T431 296Q431
338 418 369T379 419T315 438Q280 438 248 422T189 377T148 309T133 225Q133 184 146 152T185 102T249 84ZM419 870Q391 870 373 881T341 902T305 913Q284 913 272 902T254 879T249 865H187Q189 873 197 891T222 930T262 965T316 980Q336 980 350 974T376 958T400
943T430 936Q453 936 466 947T486 971T492 985H554Q553 978 544 960T518 921T476 885T419 870Z" />
<glyph unicode="&#xf6;" horiz-adv-x="582" d="M231 -10Q159 -10 112 20T42 100T19 211Q19 276 42 334T109 437T209 507T332 532Q405 532 452 502T523 422T546 311Q546 246 523 188T456 86T356 16T231 -10ZM249 84Q284 84 317 99T375 144T416 211T431 296Q431
338 418 369T379 419T315 438Q280 438 248 422T189 377T148 309T133 225Q133 184 146 152T185 102T249 84ZM228 870L252 980H343L320 870H228ZM400 870L423 980H514L491 870H400Z" />
<glyph unicode="&#xf7;" horiz-adv-x="527" d="M214 411V526H308V411H214ZM214 58V172H308V58H214ZM59 248V336H462V248H59Z" />
<glyph unicode="&#xf8;" horiz-adv-x="582" d="M225 -10Q158 -10 112 19T43 99T19 208Q19 271 43 328T112 432T214 505T340 532Q407 532 452 503T522 423T546 313Q546 251 522 193T454 89T352 17T225 -10ZM245 84Q280 84 313 101T373 147T416 216T432 299Q432
340 418 370T379 419T319 438Q285 438 252 421T192 374T149 304T133 222Q133 182 146 151T185 102T245 84ZM113 108L140 73L63 -3H-1L113 108ZM122 113L420 447L452 421L148 82L122 113ZM427 455L498 526H563L462 428L427 455Z" />
<glyph unicode="&#xf9;" horiz-adv-x="586" d="M150 -10Q28 -10 28 120Q28 138 30 158T38 203L107 523H216L152 225Q145 191 145 165Q145 84 214 84Q243 84 272 97T330 135T381 197L450 523H560L477 130Q476 125 475 122T474 115Q474 95 497 94L478 0Q463 -2 452
-3T432 -5Q402 -5 385 8T368 45Q368 50 369 57T372 76T377 106Q332 49 273 20T150 -10ZM251 730H354L385 620L308 601L251 730Z" />
<glyph unicode="&#xfa;" horiz-adv-x="586" d="M150 -10Q28 -10 28 120Q28 138 30 158T38 203L107 523H216L152 225Q145 191 145 165Q145 84 214 84Q243 84 272 97T330 135T381 197L450 523H560L477 130Q476 125 475 122T474 115Q474 95 497 94L478 0Q463 -2 452
-3T432 -5Q402 -5 385 8T368 45Q368 50 369 57T372 76T377 106Q332 49 273 20T150 -10ZM392 603L322 621L398 731H503L392 603Z" />
<glyph unicode="&#xfb;" horiz-adv-x="586" d="M150 -10Q28 -10 28 120Q28 138 30 158T38 203L107 523H216L152 225Q145 191 145 165Q145 84 214 84Q243 84 272 97T330 135T381 197L450 523H560L477 130Q476 125 475 122T474 115Q474 95 497 94L478 0Q463 -2 452
-3T432 -5Q402 -5 385 8T368 45Q368 50 369 57T372 76T377 106Q332 49 273 20T150 -10ZM230 635L349 730H429L507 635L443 607L376 670L282 607L230 635Z" />
<glyph unicode="&#xfc;" horiz-adv-x="586" d="M150 -10Q28 -10 28 120Q28 138 30 158T38 203L107 523H216L152 225Q145 191 145 165Q145 84 214 84Q243 84 272 97T330 135T381 197L450 523H560L477 130Q476 125 475 122T474 115Q474 95 497 94L478 0Q463 -2 452
-3T432 -5Q402 -5 385 8T368 45Q368 50 369 57T372 76T377 106Q332 49 273 20T150 -10ZM232 615L256 725H347L324 615H232ZM404 615L427 725H518L495 615H404Z" />
<glyph unicode="&#xfd;" horiz-adv-x="510" d="M-40 -140Q2 -135 28 -127T73 -102T114 -53L143 -11L49 523H162L221 97L255 153Q292 213 318 261T364 352T396 436T421 523H529Q516 475 500 433T462 344T407 241T323 103L243 -26Q208 -82 177 -120T115 -181T49
-214T-25 -226L-40 -140ZM341 602L271 620L347 730H452L341 602Z" />
<glyph unicode="&#xfe;" horiz-adv-x="588" d="M-45 -213L151 710H264L207 448Q242 486 289 509T386 532Q443 532 484 503T547 424T569 315Q569 252 546 194T484 89T393 17T284 -10Q225 -10 186 20T131 98L65 -213H-45ZM268 84Q306 84 339 102T398 151T439 220T454
298Q454 337 440 368T399 419T336 438Q316 438 294 430T249 408T210 375T182 335L152 198Q159 166 174 141T214 100T268 84Z" />
<glyph unicode="&#xff;" horiz-adv-x="510" d="M-40 -140Q2 -135 28 -127T73 -102T114 -53L143 -11L49 523H162L221 97L255 153Q292 213 318 261T364 352T396 436T421 523H529Q516 475 500 433T462 344T407 241T323 103L243 -26Q208 -82 177 -120T115 -181T49
-214T-25 -226L-40 -140ZM177 870L201 980H292L269 870H177ZM349 870L372 980H463L440 870H349Z" />
<glyph unicode="&#x2013;" horiz-adv-x="571" d="M43 224L64 323H516L494 224H43Z" />
<glyph unicode="&#x2014;" horiz-adv-x="880" d="M43 224L64 323H825L804 224H43Z" />
<glyph unicode="&#x2018;" horiz-adv-x="225" d="M243 730L198 612H232L206 488H97L124 613L181 730H243Z" />
<glyph unicode="&#x2019;" horiz-adv-x="217" d="M110 501L156 619H122L148 743H256L230 618L173 501H110Z" />
<glyph unicode="&#x201a;" horiz-adv-x="231" d="M-14 -123L33 0H-2L25 129H134L106 -1L49 -123H-14Z" />
<glyph unicode="&#x201c;" horiz-adv-x="377" d="M243 730L198 612H232L206 488H97L124 613L181 730H243ZM396 730L351 612H384L358 488H250L276 613L333 730H396Z" />
<glyph unicode="&#x201d;" horiz-adv-x="369" d="M263 501L308 619H274L300 743H409L382 618L325 501H263ZM110 501L156 619H122L148 743H256L230 618L173 501H110Z" />
<glyph unicode="&#x201e;" horiz-adv-x="388" d="M-14 -123L33 0H-2L25 129H134L106 -1L49 -123H-14ZM142 -123L189 0H155L182 129H291L263 -1L206 -123H142Z" />
<glyph unicode="&#x2022;" horiz-adv-x="349" d="M281 365Q281 335 264 308T219 265T162 249Q129 249 107 273T85 331Q85 362 102 388T147 431T204 447Q238 447 259 423T281 365Z" />
<glyph unicode="&#x2039;" horiz-adv-x="343" d="M35 284L321 469L301 378L117 259L251 144L232 54L23 229L35 284Z" />
<glyph unicode="&#x203a;" horiz-adv-x="343" d="M289 229L5 54L25 144L208 259L75 378L93 469L301 284L289 229Z" />
</font>
</defs>
</svg>
