<svg width="48" height="48" viewBox="0 0 48 48" fill="none" xmlns="http://www.w3.org/2000/svg">
<path d="M30.8048 42V28.0688H35.4694L36.1676 22.653H30.8048V19.1953C30.8048 17.6273 31.24 16.5587 33.4886 16.5587L36.3566 16.5573V11.7135C35.8604 11.6476 34.1582 11.5001 32.1776 11.5001C28.0426 11.5001 25.212 14.024 25.212 18.659V22.653H20.5354V28.0688H25.212V42H8C6.89544 42 6 41.1046 6 40V8C6 6.89544 6.89544 6 8 6H40C41.1046 6 42 6.89544 42 8V40C42 41.1046 41.1046 42 40 42H30.8048Z" fill="#6E748C"/>
</svg>
