<svg width="644" height="208" viewBox="0 0 644 208" fill="none" xmlns="http://www.w3.org/2000/svg">
<rect width="643" height="208" transform="translate(0.5)" fill="#8146F6"/>
<g clip-path="url(#clip0_4130_1298)">
<path d="M131.499 93.6025L112.691 104.131L116.891 82.9892L101.064 68.3545L122.47 65.8159L131.499 46.2425L140.528 65.8159L161.934 68.3545L146.107 82.9892L150.307 104.131L131.499 93.6025Z" fill="#14AE5C"/>
</g>
<g clip-path="url(#clip1_4130_1298)">
<path d="M218.499 93.6025L199.691 104.131L203.891 82.9892L188.064 68.3545L209.47 65.8159L218.499 46.2425L227.528 65.8159L248.934 68.3545L233.107 82.9892L237.307 104.131L218.499 93.6025Z" fill="#14AE5C"/>
</g>
<g clip-path="url(#clip2_4130_1298)">
<path d="M305.499 93.6025L286.691 104.131L290.891 82.9892L275.064 68.3545L296.47 65.8159L305.499 46.2425L314.528 65.8159L335.934 68.3545L320.107 82.9892L324.307 104.131L305.499 93.6025Z" fill="#14AE5C"/>
</g>
<g clip-path="url(#clip3_4130_1298)">
<path d="M392.499 93.6025L373.691 104.131L377.891 82.9892L362.064 68.3545L383.47 65.8159L392.499 46.2425L401.528 65.8159L422.934 68.3545L407.107 82.9892L411.307 104.131L392.499 93.6025ZM392.499 87.4905L403.824 93.8292L401.294 81.1012L410.822 72.2879L397.934 70.7599L392.499 58.9759L387.064 70.7625L374.176 72.2879L383.704 81.1012L381.174 93.8292L392.499 87.4905Z" fill="white"/>
</g>
<g clip-path="url(#clip4_4130_1298)">
<path d="M479.499 93.6025L460.691 104.131L464.891 82.9892L449.064 68.3545L470.47 65.8159L479.499 46.2425L488.528 65.8159L509.934 68.3545L494.107 82.9892L498.307 104.131L479.499 93.6025ZM479.499 87.4905L490.824 93.8292L488.294 81.1012L497.822 72.2879L484.934 70.7599L479.499 58.9759L474.064 70.7625L461.176 72.2879L470.704 81.1012L468.174 93.8292L479.499 87.4905Z" fill="white"/>
</g>
<path d="M376.934 188.484V207.363H290.607V188.484C290.607 184.004 294.267 180.367 298.776 180.367H368.765C373.274 180.367 376.934 183.994 376.934 188.484Z" fill="#14AE5C"/>
<path d="M370.66 125.318V180.367H296.882L270.037 149.529C265.617 144.403 266.218 136.688 271.378 132.307C273.697 130.336 276.538 129.366 279.37 129.366C282.833 129.366 286.286 130.817 288.713 133.64L296.882 143.197V78.4528C296.882 75.0808 298.253 72.0225 300.483 69.8169C302.713 67.6016 305.781 66.2391 309.175 66.2391C315.963 66.2391 321.468 71.7088 321.468 78.4528V118.505C321.468 111.761 326.973 106.291 333.761 106.291C337.155 106.291 340.233 107.654 342.453 109.869C344.673 112.084 346.054 115.133 346.054 118.505V125.327C346.054 121.955 347.425 118.897 349.655 116.692C351.885 114.486 354.953 113.114 358.347 113.114C365.155 113.104 370.66 118.574 370.66 125.318Z" fill="#FF9AA2"/>
<path d="M362.303 198.521C364.891 198.521 366.99 196.437 366.99 193.865C366.99 191.294 364.891 189.209 362.303 189.209C359.715 189.209 357.617 191.294 357.617 193.865C357.617 196.437 359.715 198.521 362.303 198.521Z" fill="white"/>
<path d="M309.174 87.8631C314.318 87.8631 318.488 83.7202 318.488 78.6097C318.488 73.4992 314.318 69.3563 309.174 69.3563C304.031 69.3563 299.861 73.4992 299.861 78.6097C299.861 83.7202 304.031 87.8631 309.174 87.8631Z" fill="white"/>
<defs>
<clipPath id="clip0_4130_1298">
<rect width="64" height="64" fill="white" transform="translate(99.5 44.9093)"/>
</clipPath>
<clipPath id="clip1_4130_1298">
<rect width="64" height="64" fill="white" transform="translate(186.5 44.9093)"/>
</clipPath>
<clipPath id="clip2_4130_1298">
<rect width="64" height="64" fill="white" transform="translate(273.5 44.9093)"/>
</clipPath>
<clipPath id="clip3_4130_1298">
<rect width="64" height="64" fill="white" transform="translate(360.5 44.9093)"/>
</clipPath>
<clipPath id="clip4_4130_1298">
<rect width="64" height="64" fill="white" transform="translate(447.5 44.9093)"/>
</clipPath>
</defs>
</svg>
