<svg width="50" height="50" viewBox="0 0 50 50" fill="none" xmlns="http://www.w3.org/2000/svg">
<path d="M10.2651 8.9622C11.5493 8.98947 12.8206 9.23598 14.0288 9.69198C15.2371 10.1328 16.4051 10.6862 17.519 11.3453C18.6258 11.9927 19.6924 12.7127 20.7125 13.501C21.2211 13.896 21.7178 14.2992 22.2073 14.723C22.4539 14.9328 22.6929 15.1503 22.9314 15.3722C23.0506 15.4809 23.1718 15.5942 23.2896 15.7069L23.467 15.8846L23.6593 16.0743L20.1192 16.0824L20.435 15.6953L20.7317 15.3526C20.9283 15.1266 21.1245 14.9092 21.325 14.6913C21.7257 14.2638 22.134 13.8497 22.5501 13.4491C22.966 13.05 23.3977 12.663 23.829 12.2875C24.0487 12.1018 24.268 11.9166 24.4877 11.7339L24.819 11.4626L25.1579 11.2004C26.0595 10.4958 26.9956 9.84549 27.9586 9.2375C28.9217 8.62952 29.9155 8.08444 30.9285 7.58013C32.9559 6.57617 35.0832 5.81051 37.2717 5.29716C38.3646 5.04671 39.4718 4.87019 40.5864 4.7687C41.7036 4.66319 42.8276 4.6605 43.9452 4.76065C43.4755 5.09937 42.9976 5.38575 42.5317 5.69225C42.3004 5.84325 42.0658 5.99424 41.8307 6.13566C41.7153 6.20814 41.5994 6.28061 41.484 6.35762L41.1374 6.57957C40.2166 7.15937 39.319 7.74874 38.4257 8.3215C36.6467 9.48311 34.9201 10.6483 33.2292 11.8501C31.5382 13.052 29.889 14.2816 28.2769 15.5559C27.8764 15.8785 27.4716 16.1931 27.0749 16.5238C26.6744 16.8424 26.2849 17.1781 25.8921 17.5037C25.5032 17.8384 25.1142 18.1691 24.7382 18.5038C24.5493 18.6734 24.3608 18.8385 24.1757 19.004L23.667 19.4716L21.5178 21.443L20.1196 19.4802C20.0927 19.4399 20.0427 19.3795 20.0004 19.3292L19.8658 19.1596L19.5922 18.8168L19.0335 18.1273C18.6559 17.6676 18.2745 17.2093 17.8892 16.7523C17.1199 15.8408 16.3367 14.9339 15.5333 14.0425C14.7299 13.1512 13.9115 12.2724 13.0485 11.4213C12.1724 10.5396 11.2427 9.71816 10.2651 8.9622Z" fill="#14AE5C"/>
<path d="M22.8942 38.7811C20.9887 38.7792 19.1218 38.2523 17.5036 37.2599C15.8855 36.2674 14.5805 34.8489 13.7357 33.1641L7.64624 35.7495C9.45404 39.5549 12.6568 42.543 16.6091 44.1117C20.5614 45.6804 24.9695 45.7131 28.9452 44.2031L26.3281 38.1965C25.226 38.5844 24.0643 38.7821 22.8942 38.7811Z" fill="#14AE5C"/>
<path d="M12.6759 28.7005C12.6772 26.9664 13.1316 25.2619 13.9953 23.7515C14.859 22.2412 16.1028 20.976 17.6066 20.078L13.3254 15.0381C10.2555 17.1292 7.97646 20.1667 6.84614 23.6739C5.71583 27.1811 5.79822 30.9593 7.08039 34.4152L13.1813 31.8298C12.8462 30.8196 12.6756 29.7634 12.6759 28.7005Z" fill="#14AE5C"/>
<path d="M33.052 15.4619L27.3352 19.6244C29.2614 20.5488 30.8481 22.0419 31.8748 23.8964L37.9719 21.3109C36.8086 19.0147 35.1252 17.0134 33.052 15.4619Z" fill="#14AE5C"/>
<path d="M39.7345 28.7025C39.7367 26.6246 39.341 24.5649 38.5682 22.6318L32.4825 25.2135C33.3389 27.5052 33.3226 30.0258 32.4367 32.3065C31.5508 34.5873 29.8555 36.4732 27.666 37.6136L30.2869 43.6244C33.1184 42.2573 35.5047 40.1344 37.1747 37.4968C38.8447 34.8591 39.7315 31.8124 39.7345 28.7025Z" fill="#14AE5C"/>
</svg>
