<svg xmlns="http://www.w3.org/2000/svg" width="48" height="48" viewBox="0 0 48 48" fill="none">
  <path d="M36.6743 36.678H31.3433V28.3244C31.3433 26.3324 31.3029 23.769 28.5653 23.769C25.7859 23.769 25.3613 25.9366 25.3613 28.1774V36.678H20.0303V19.5H25.1513V21.8414H25.2203C25.9359 20.4914 27.6759 19.0665 30.2753 19.0665C35.6769 19.0665 36.6759 22.6216 36.6759 27.249L36.6743 36.678ZM14.0094 17.1495C12.2934 17.1495 10.9149 15.7605 10.9149 14.052C10.9149 12.345 12.2949 10.9575 14.0094 10.9575C15.7194 10.9575 17.1054 12.345 17.1054 14.052C17.1054 15.7605 15.7179 17.1495 14.0094 17.1495ZM16.6824 36.678H11.3364V19.5H16.6824V36.678ZM39.3413 6H8.66041C7.19191 6 6.00391 7.161 6.00391 8.5935V39.4066C6.00391 40.8404 7.19191 42 8.66041 42H39.3369C40.8039 42 42.0039 40.8404 42.0039 39.4066V8.5935C42.0039 7.161 40.8039 6 39.3369 6H39.3413Z" fill="#6E748C"/>
</svg>
