<svg width="120" height="36" viewBox="0 0 134 30" fill="none" xmlns="http://www.w3.org/2000/svg">
<path d="M3 3.51391C3.91507 3.53345 4.82097 3.70999 5.68197 4.03657C6.54294 4.35231 7.37527 4.74859 8.16899 5.22066C8.95769 5.68432 9.71775 6.19996 10.4446 6.76449C10.8071 7.04744 11.161 7.33617 11.5098 7.63967C11.6856 7.78998 11.8558 7.9457 12.0258 8.10466C12.1108 8.18251 12.1971 8.26362 12.281 8.34436L12.4075 8.4716L12.5445 8.60749L10.0218 8.61326L10.2469 8.33607L10.4583 8.0906C10.5985 7.92875 10.7382 7.77304 10.8811 7.61696C11.1666 7.31082 11.4576 7.01428 11.7541 6.72736C12.0504 6.44152 12.3581 6.16433 12.6654 5.89543C12.822 5.76242 12.9782 5.62978 13.1348 5.49893L13.3709 5.30465L13.6124 5.11685C14.2548 4.61222 14.9219 4.14651 15.6081 3.71108C16.2944 3.27565 17.0026 2.88528 17.7245 2.5241C19.1691 1.80508 20.6851 1.25673 22.2445 0.889084C23.0233 0.709713 23.8123 0.583293 24.6065 0.510607C25.4026 0.435046 26.2035 0.433116 27 0.504839C26.6653 0.747425 26.3247 0.952524 25.9927 1.17204C25.8279 1.28018 25.6607 1.38831 25.4932 1.4896C25.411 1.54151 25.3284 1.59341 25.2462 1.64856L24.9991 1.80752C24.343 2.22276 23.7034 2.64486 23.0668 3.05505C21.7991 3.88698 20.5688 4.72143 19.3639 5.5822C18.1589 6.44296 16.9837 7.32355 15.8349 8.23622C15.5496 8.46727 15.2611 8.69256 14.9784 8.92937C14.693 9.15754 14.4155 9.39796 14.1356 9.63118C13.8584 9.87088 13.5812 10.1077 13.3133 10.3474C13.1787 10.4689 13.0444 10.5871 12.9125 10.7057L12.55 11.0406L11.0185 12.4525L10.0222 11.0467C10.003 11.0178 9.96737 10.9746 9.93722 10.9385L9.84129 10.8171L9.64634 10.5716L9.24822 10.0778C8.97916 9.74857 8.70735 9.42031 8.43281 9.09302C7.88463 8.44024 7.32651 7.7907 6.754 7.15234C6.1815 6.51397 5.59837 5.88462 4.98338 5.27509C4.35908 4.64361 3.69656 4.05532 3 3.51391Z" fill="#1E1E1E"/>
<path d="M11.9997 24.8698C10.642 24.8684 9.31158 24.4911 8.1585 23.7803C7.00543 23.0696 6.07552 22.0536 5.47357 20.847L1.13428 22.6986C2.42249 25.424 4.7047 27.564 7.52106 28.6875C10.3374 29.8109 13.4786 29.8343 16.3117 28.753L14.4468 24.4511C13.6614 24.7289 12.8336 24.8705 11.9997 24.8698Z" fill="#1E1E1E"/>
<path d="M4.71816 17.6503C4.71909 16.4083 5.04291 15.1876 5.65837 14.1059C6.27383 13.0243 7.16014 12.1181 8.23176 11.475L5.18101 7.86554C2.99343 9.36312 1.36943 11.5386 0.563981 14.0504C-0.241469 16.5621 -0.182756 19.268 0.730901 21.7431L5.0783 19.8915C4.83953 19.168 4.71798 18.4115 4.71816 17.6503Z" fill="#1E1E1E"/>
<path d="M19.2378 8.16882L15.1641 11.1499C16.5367 11.812 17.6673 12.8813 18.3989 14.2094L22.7436 12.3578C21.9147 10.7133 20.7151 9.27995 19.2378 8.16882Z" fill="#1E1E1E"/>
<path d="M24 17.6514C24.0015 16.1632 23.7196 14.6882 23.1689 13.3037L18.8323 15.1527C19.4426 16.794 19.431 18.5991 18.7997 20.2325C18.1684 21.866 16.9604 23.2166 15.4001 24.0334L17.2678 28.3382C19.2855 27.3591 20.9859 25.8387 22.1759 23.9497C23.3659 22.0607 23.9979 19.8787 24 17.6514Z" fill="#1E1E1E"/>
<path d="M30.328 22.5V11.3H32.92V20.388H38.536V22.5H30.328ZM39.8239 22.5V13.892H42.3199V22.5H39.8239ZM41.0719 12.692C40.6132 12.692 40.2399 12.5587 39.9519 12.292C39.6639 12.0253 39.5199 11.6947 39.5199 11.3C39.5199 10.9053 39.6639 10.5747 39.9519 10.308C40.2399 10.0413 40.6132 9.908 41.0719 9.908C41.5305 9.908 41.9039 10.036 42.1919 10.292C42.4799 10.5373 42.6239 10.8573 42.6239 11.252C42.6239 11.668 42.4799 12.0147 42.1919 12.292C41.9145 12.5587 41.5412 12.692 41.0719 12.692ZM55.6604 13.764C56.343 13.764 56.9457 13.9027 57.4684 14.18C58.0017 14.4467 58.4177 14.8627 58.7164 15.428C59.0257 15.9827 59.1804 16.6973 59.1804 17.572V22.5H56.6844V17.956C56.6844 17.2627 56.5404 16.7507 56.2524 16.42C55.9644 16.0893 55.559 15.924 55.0364 15.924C54.6737 15.924 54.3484 16.0093 54.0604 16.18C53.7724 16.34 53.5484 16.5853 53.3884 16.916C53.2284 17.2467 53.1484 17.668 53.1484 18.18V22.5H50.6524V17.956C50.6524 17.2627 50.5084 16.7507 50.2204 16.42C49.943 16.0893 49.543 15.924 49.0204 15.924C48.6577 15.924 48.3324 16.0093 48.0444 16.18C47.7564 16.34 47.5324 16.5853 47.3724 16.916C47.2124 17.2467 47.1324 17.668 47.1324 18.18V22.5H44.6364V13.892H47.0204V16.244L46.5724 15.556C46.871 14.9693 47.2924 14.5267 47.8364 14.228C48.391 13.9187 49.0204 13.764 49.7244 13.764C50.5137 13.764 51.2017 13.9667 51.7884 14.372C52.3857 14.7667 52.7804 15.3747 52.9724 16.196L52.0924 15.956C52.3804 15.284 52.839 14.7507 53.4684 14.356C54.1084 13.9613 54.839 13.764 55.6604 13.764ZM65.7521 22.628C64.7708 22.628 63.9068 22.436 63.1601 22.052C62.4241 21.668 61.8535 21.1453 61.4481 20.484C61.0428 19.812 60.8401 19.0493 60.8401 18.196C60.8401 17.332 61.0375 16.5693 61.4321 15.908C61.8375 15.236 62.3868 14.7133 63.0801 14.34C63.7735 13.956 64.5575 13.764 65.4321 13.764C66.2748 13.764 67.0321 13.9453 67.7041 14.308C68.3868 14.66 68.9255 15.172 69.3201 15.844C69.7148 16.5053 69.9121 17.3 69.9121 18.228C69.9121 18.324 69.9068 18.436 69.8961 18.564C69.8855 18.6813 69.8748 18.7933 69.8641 18.9H62.8721V17.444H68.5521L67.5921 17.876C67.5921 17.428 67.5015 17.0387 67.3201 16.708C67.1388 16.3773 66.8881 16.1213 66.5681 15.94C66.2481 15.748 65.8748 15.652 65.4481 15.652C65.0215 15.652 64.6428 15.748 64.3121 15.94C63.9921 16.1213 63.7415 16.3827 63.5601 16.724C63.3788 17.0547 63.2881 17.4493 63.2881 17.908V18.292C63.2881 18.7613 63.3895 19.1773 63.5921 19.54C63.8055 19.892 64.0988 20.164 64.4721 20.356C64.8561 20.5373 65.3041 20.628 65.8161 20.628C66.2748 20.628 66.6748 20.5587 67.0161 20.42C67.3681 20.2813 67.6881 20.0733 67.9761 19.796L69.3041 21.236C68.9095 21.684 68.4135 22.0307 67.8161 22.276C67.2188 22.5107 66.5308 22.628 65.7521 22.628ZM75.4299 22.692C74.5339 22.692 73.6752 22.5747 72.8539 22.34C72.0325 22.0947 71.3712 21.78 70.8699 21.396L71.7499 19.444C72.2299 19.7853 72.7952 20.068 73.4459 20.292C74.1072 20.5053 74.7739 20.612 75.4459 20.612C75.9579 20.612 76.3685 20.564 76.6779 20.468C76.9979 20.3613 77.2325 20.2173 77.3819 20.036C77.5312 19.8547 77.6059 19.6467 77.6059 19.412C77.6059 19.1133 77.4885 18.8787 77.2539 18.708C77.0192 18.5267 76.7099 18.3827 76.3259 18.276C75.9419 18.1587 75.5152 18.052 75.0459 17.956C74.5872 17.8493 74.1232 17.7213 73.6539 17.572C73.1952 17.4227 72.7739 17.2307 72.3899 16.996C72.0059 16.7613 71.6912 16.452 71.4459 16.068C71.2112 15.684 71.0939 15.1933 71.0939 14.596C71.0939 13.956 71.2645 13.3747 71.6059 12.852C71.9579 12.3187 72.4805 11.8973 73.1739 11.588C73.8779 11.268 74.7579 11.108 75.8139 11.108C76.5179 11.108 77.2112 11.1933 77.8939 11.364C78.5765 11.524 79.1792 11.7693 79.7019 12.1L78.9019 14.068C78.3792 13.7693 77.8565 13.5507 77.3339 13.412C76.8112 13.2627 76.2992 13.188 75.7979 13.188C75.2965 13.188 74.8859 13.2467 74.5659 13.364C74.2459 13.4813 74.0165 13.636 73.8779 13.828C73.7392 14.0093 73.6699 14.2227 73.6699 14.468C73.6699 14.756 73.7872 14.9907 74.0219 15.172C74.2565 15.3427 74.5659 15.4813 74.9499 15.588C75.3339 15.6947 75.7552 15.8013 76.2139 15.908C76.6832 16.0147 77.1472 16.1373 77.6059 16.276C78.0752 16.4147 78.5019 16.6013 78.8859 16.836C79.2699 17.0707 79.5792 17.38 79.8139 17.764C80.0592 18.148 80.1819 18.6333 80.1819 19.22C80.1819 19.8493 80.0059 20.4253 79.6539 20.948C79.3019 21.4707 78.7739 21.892 78.0699 22.212C77.3765 22.532 76.4965 22.692 75.4299 22.692ZM85.409 22.628C84.6943 22.628 84.0543 22.4893 83.489 22.212C82.9343 21.9347 82.5023 21.5133 82.193 20.948C81.8837 20.372 81.729 19.6413 81.729 18.756V13.892H84.225V18.388C84.225 19.1027 84.3743 19.6307 84.673 19.972C84.9823 20.3027 85.4143 20.468 85.969 20.468C86.353 20.468 86.6943 20.388 86.993 20.228C87.2917 20.0573 87.5263 19.8013 87.697 19.46C87.8677 19.108 87.953 18.6707 87.953 18.148V13.892H90.449V22.5H88.081V20.132L88.513 20.82C88.225 21.4173 87.7983 21.8707 87.233 22.18C86.6783 22.4787 86.0703 22.628 85.409 22.628ZM92.7614 22.5V13.892H95.1454V16.324L94.8094 15.62C95.0654 15.012 95.476 14.5533 96.0414 14.244C96.6067 13.924 97.2947 13.764 98.1054 13.764V16.068C97.9987 16.0573 97.9027 16.052 97.8174 16.052C97.732 16.0413 97.6414 16.036 97.5454 16.036C96.8627 16.036 96.308 16.2333 95.8814 16.628C95.4654 17.012 95.2574 17.6147 95.2574 18.436V22.5H92.7614ZM102.222 22.5L98.6064 13.892H101.182L104.19 21.3H102.91L106.03 13.892H108.43L104.798 22.5H102.222ZM113.487 22.628C112.505 22.628 111.641 22.436 110.895 22.052C110.159 21.668 109.588 21.1453 109.183 20.484C108.777 19.812 108.575 19.0493 108.575 18.196C108.575 17.332 108.772 16.5693 109.167 15.908C109.572 15.236 110.121 14.7133 110.815 14.34C111.508 13.956 112.292 13.764 113.167 13.764C114.009 13.764 114.767 13.9453 115.439 14.308C116.121 14.66 116.66 15.172 117.055 15.844C117.449 16.5053 117.647 17.3 117.647 18.228C117.647 18.324 117.641 18.436 117.631 18.564C117.62 18.6813 117.609 18.7933 117.599 18.9H110.607V17.444H116.286L115.327 17.876C115.327 17.428 115.236 17.0387 115.055 16.708C114.873 16.3773 114.623 16.1213 114.303 15.94C113.983 15.748 113.609 15.652 113.183 15.652C112.756 15.652 112.377 15.748 112.047 15.94C111.727 16.1213 111.476 16.3827 111.295 16.724C111.113 17.0547 111.023 17.4493 111.023 17.908V18.292C111.023 18.7613 111.124 19.1773 111.327 19.54C111.54 19.892 111.833 20.164 112.207 20.356C112.591 20.5373 113.039 20.628 113.551 20.628C114.009 20.628 114.409 20.5587 114.751 20.42C115.103 20.2813 115.423 20.0733 115.711 19.796L117.039 21.236C116.644 21.684 116.148 22.0307 115.551 22.276C114.953 22.5107 114.265 22.628 113.487 22.628ZM120.24 25.732C119.792 25.732 119.349 25.6627 118.912 25.524C118.475 25.3853 118.117 25.1933 117.84 24.948L118.752 23.172C118.944 23.3427 119.163 23.476 119.408 23.572C119.664 23.668 119.915 23.716 120.16 23.716C120.512 23.716 120.789 23.6307 120.992 23.46C121.205 23.3 121.397 23.028 121.568 22.644L122.016 21.588L122.208 21.316L125.296 13.892H127.696L123.808 23.028C123.531 23.7213 123.211 24.2653 122.848 24.66C122.496 25.0547 122.101 25.332 121.664 25.492C121.237 25.652 120.763 25.732 120.24 25.732ZM121.712 22.836L117.872 13.892H120.448L123.424 21.092L121.712 22.836Z" fill="#1E1E1E"/>
</svg>
