<svg width="18" height="18" viewBox="0 0 18 18" fill="none" xmlns="http://www.w3.org/2000/svg">
<path d="M9 18C13.9706 18 18 13.9706 18 9C18 4.02944 13.9706 0 9 0C4.02944 0 0 4.02944 0 9C0 13.9706 4.02944 18 9 18ZM12.5303 5.46967C12.8232 5.76256 12.8232 6.23744 12.5303 6.53033L10.0607 9L12.5303 11.4697C12.8232 11.7626 12.8232 12.2374 12.5303 12.5303C12.2374 12.8232 11.7626 12.8232 11.4697 12.5303L9 10.0607L6.53033 12.5303C6.23744 12.8232 5.76256 12.8232 5.46967 12.5303C5.17678 12.2374 5.17678 11.7626 5.46967 11.4697L7.9393 9L5.46967 6.53033C5.17678 6.23744 5.17678 5.76256 5.46967 5.46967C5.76256 5.17678 6.23744 5.17678 6.53033 5.46967L9 7.9393L11.4697 5.46967C11.7626 5.17678 12.2374 5.17678 12.5303 5.46967Z" fill="#9B9B9B"/>
</svg>
