<svg width="24" height="24" viewBox="0 0 24 24" fill="none" xmlns="http://www.w3.org/2000/svg">
<path fillRule="evenodd" clipRule="evenodd" d="M10.2889 4.8356C10.3693 4.35341 10.7865 4 11.2753 4H12.5811C13.0699 4 13.4871 4.35341 13.5675 4.8356L13.8118 6.30162C14.5992 6.56176 15.3145 6.98055 15.9196 7.52014L17.3127 6.99827C17.7704 6.82677 18.2851 7.01137 18.5295 7.43471L19.1824 8.56552C19.4268 8.98887 19.3293 9.52687 18.9519 9.83756L17.8045 10.7821C17.8856 11.1754 17.9282 11.5827 17.9282 12C17.9282 12.4171 17.8856 12.8243 17.8046 13.2174L18.9529 14.1627C19.3303 14.4734 19.4277 15.0114 19.1833 15.4347L18.5304 16.5655C18.286 16.9889 17.7714 17.1735 17.3136 17.002L15.9197 16.4798C15.3145 17.0194 14.5993 17.4382 13.8118 17.6984L13.5675 19.1644C13.4871 19.6466 13.0699 20 12.5811 20H11.2753C10.7865 20 10.3693 19.6466 10.2889 19.1644L10.0446 17.6984C9.25714 17.4382 8.54188 17.0194 7.93667 16.4798L6.54281 17.002C6.08504 17.1735 5.57038 16.9889 5.32597 16.5655L4.67309 15.4347C4.42867 15.0114 4.52614 14.4734 4.90355 14.1627L6.05178 13.2174C5.97076 12.8243 5.9282 12.4171 5.9282 12C5.9282 11.5827 5.9708 11.1754 6.05188 10.7821L4.90449 9.83757C4.52708 9.52688 4.42961 8.98888 4.67403 8.56553L5.3269 7.43472C5.57132 7.01137 6.08598 6.82678 6.54375 6.99828L7.93675 7.52015C8.54195 6.98055 9.25718 6.56176 10.0446 6.30162L10.2889 4.8356ZM14.9282 12C14.9282 13.6569 13.5851 15 11.9282 15C10.2713 15 8.9282 13.6569 8.9282 12C8.9282 10.3431 10.2713 9 11.9282 9C13.5851 9 14.9282 10.3431 14.9282 12Z" fill="#1E1E1E"/>
</svg>
