<svg width="17" height="18" viewBox="0 0 17 18"  xmlns="http://www.w3.org/2000/svg">
<path fillRule="evenodd" clipRule="evenodd" d="M8.69995 0.214279C7.43759 0.214279 6.41424 1.23763 6.41424 2.49999H0.699951V4.49999H2.16694C2.16713 4.59831 2.17458 4.69802 2.18975 4.79856L3.87169 15.9414C4.01935 16.9196 4.86 17.6429 5.84929 17.6429H11.5506C12.5399 17.6429 13.3806 16.9196 13.5282 15.9414L15.2101 4.79856C15.2253 4.69802 15.2328 4.59831 15.233 4.49999H16.7V2.49999H10.9857C10.9857 1.23763 9.96232 0.214279 8.69995 0.214279ZM13.5151 4.5427C13.5172 4.52832 13.5183 4.51406 13.5183 4.49999H3.88158C3.8816 4.51406 3.88267 4.52832 3.88484 4.5427L5.56678 15.6855C5.58787 15.8253 5.70796 15.9286 5.84929 15.9286H11.5506C11.6919 15.9286 11.812 15.8253 11.8331 15.6855L13.5151 4.5427Z" fill="#1E1E1E"/>
</svg>
