<svg xmlns="http://www.w3.org/2000/svg" x="0px" y="0px" width="100" height="100" viewBox="0,0,256,256">
<g fill="#6e748c" fill-rule="nonzero" stroke="none" stroke-width="1" stroke-linecap="butt" stroke-linejoin="miter" stroke-miterlimit="10" stroke-dasharray="" stroke-dashoffset="0" font-family="none" font-weight="none" font-size="none" text-anchor="none" style="mix-blend-mode: normal"><g transform="scale(5.12,5.12)"><path d="M11,4c-3.85433,0 -7,3.14567 -7,7v28c0,3.85433 3.14567,7 7,7h28c3.85433,0 7,-3.14567 7,-7v-28c0,-3.85433 -3.14567,-7 -7,-7zM11,6h28c2.77367,0 5,2.22633 5,5v28c0,2.77367 -2.22633,5 -5,5h-28c-2.77367,0 -5,-2.22633 -5,-5v-28c0,-2.77367 2.22633,-5 5,-5zM13.08594,13l9.22266,13.10352l-9.30859,10.89648h2.5l7.9375,-9.29297l6.53906,9.29297h7.9375l-10.125,-14.38672l8.21094,-9.61328h-2.5l-6.83984,8.00977l-5.63672,-8.00977zM16.91406,15h3.06445l14.10742,20h-3.06445z"></path></g></g>
</svg>